<svg xmlns="http://www.w3.org/2000/svg" viewBox="0 0 2830.18 597.11"><defs><style>.a{fill:#fff;}</style></defs><path class="a" d="M666.14,195.9c-28-27-103.77-73.13-195.75-81.2C454.89,72.64,422.36,32,391.51,0a355.53,355.53,0,0,0-58.26,36.74A256.81,256.81,0,0,0,274.77,1c-30.71,31.83-63.1,72.29-78.45,113.72C104,122.77,28.47,168.9,0,195.9a361.66,361.66,0,0,0,111.34,180c-18.72,96.62-2.52,162.18,15.35,208,43.89,3.51,127.54,1.05,206.84-47.47A348.24,348.24,0,0,0,539.8,583.9c17.81-45.85,34.07-111.41,15.42-208A362.11,362.11,0,0,0,666.14,195.9ZM334.3,115.55c19.91,20.19,42.91,64.85,42.91,127.18,54.12-16.06,109.3-11.22,135.45,1.33-9.88,21.81-59.59,65.56-109.16,80.42,31.83,39.69,43.61,100,41,128-27-4.91-75.73-32.6-110.15-78-34.36,45.37-83.09,73.06-110,78-2.59-28.05,9.19-88.34,40.95-128-49.57-14.86-99.21-58.61-109-80.42,26.08-12.62,81.26-17.46,135.32-1.33C291.53,183.7,314.39,135.74,334.3,115.55ZM493.45,354.28c21,50.9,24.54,126.2,7,175.77a275.78,275.78,0,0,1-167-61.49A277.16,277.16,0,0,1,166,530.05c-17.6-49.08-14-124.87,7-175.77C118.7,320.21,72,252.41,63.8,214.62A284.45,284.45,0,0,1,234.18,167a277.09,277.09,0,0,1,51.6-99.35l9.47,8.13c-22.51,25.38-41.72,67.52-52,104A286.74,286.74,0,0,0,77.54,219.59a284.31,284.31,0,0,0,110.22,130.2c-20,48.17-27.69,117-13,167.36C222.61,515.75,284,494,333.46,453.21,382.54,494.08,444,515.75,491.7,517.15c14.72-50.41,7-119.19-13-167.43A284.05,284.05,0,0,0,588.46,219.59a285.19,285.19,0,0,0-165.19-39.82c-10.31-36.53-29.38-78.67-51.88-104l9.46-8.13a277.46,277.46,0,0,1,51.47,99.28,283,283,0,0,1,170.16,47.68C594.21,252.41,547.93,320.21,493.45,354.28Z"/><path class="a" d="M770.34,410.35c0-15.53,2.37-40.18-14.86-45.25v-1h82.73c77,0,124.95,41.86,124.95,109.07,0,66.53-51,113.11-126.63,113.11h-81v-1c16.88-11.49,14.86-27.7,14.86-47.62Zm34.44,149.26A119.59,119.59,0,0,0,829.43,562c50.32,0,95.23-26.34,95.23-84.76,0-59.1-33.09-88.82-89.48-88.82a133.35,133.35,0,0,0-30.4,3.72Zm224.79-56.72L1012,550.5c-7.1,18.89-9.46,28.7,6.75,34.78v1H956.64v-1c19.58-9.8,25.31-28.71,32.75-48l56.39-140.81c4.73-12.16,11.15-26.34-5.07-31.41v-1h53.36l70.24,173.22c7.77,19.25,13.85,38.16,33.09,48v1h-69.22v-1c16.55-7.44,13.84-11.15,4.73-34.78l-18.24-47.61Zm42.21-110.09-33.42,85.08h66.52ZM1311.41,562c23,1.35,42.89-6.42,59.77-20.61h1l-17.56,44.91H1215.85v-1c17.22-6.08,15.2-31.07,15.2-46.26V411.71c0-15.54,2-40.19-15.2-46.61v-1h64.5v1c-17.23,6.42-14.86,31.41-14.86,46.61V558.93Zm145.74-59.09-17.56,47.61c-7.1,18.89-9.45,28.7,6.75,34.78v1h-62.13v-1c19.59-9.8,25.32-28.71,32.76-48l56.39-140.81c4.73-12.16,11.14-26.34-5.08-31.41v-1h53.37l70.23,173.22c7.77,19.25,13.84,38.16,33.09,48v1h-69.22v-1c16.54-7.44,13.84-11.15,4.72-34.78l-18.23-47.61Zm42.21-110.09-33.44,85.08h66.53Zm223.36-28.7c45.25,0,69.9,23.64,69.9,54.36,0,29.71-26,53-53.69,59.42L1787.56,539c14.18,17.55,35.45,35.11,54.69,47.26h-31c-17.9,0-29-4.38-39.18-16.89l-41.2-51-31.06-47.62c27-4.05,58.41-16.54,58.41-48.29,0-24.31-20.94-38.49-43.55-37.48a175.87,175.87,0,0,0-23,2.71V539c0,15.53-2,40.18,15.19,46.26v1h-64.5v-1c17.22-6.08,14.85-31.07,14.85-46.26V411.71c0-15.54,2.37-40.19-14.85-46.61v-1Zm175.49,178.28c0,18.92-.34,32.42,17.55,42.9v1H1856v-1c17.9-10.48,17.9-24,17.9-42.9V407.66c0-18.92,0-32.42-17.57-42.56v-1h49.32v.33a21,21,0,0,0,5,8.44l4.73,6.76,123.6,156v-128c0-18.92.34-32.42-17.57-42.56v-1h59.43v1c-17.55,10.14-17.55,23.64-17.55,42.56V597.11c-24-8.12-34.45-19.27-49.3-38.51L1898.21,411.71Zm261.64-39.49-17.56,47.61c-7.09,18.89-9.45,28.7,6.75,34.78v1h-62.13v-1c19.58-9.8,25.32-28.71,32.75-48l56.39-140.81c4.74-12.16,11.16-26.34-5.06-31.41v-1h53.36l70.23,173.22c7.77,19.25,13.86,38.16,33.09,48v1h-69.22v-1c16.54-7.44,13.84-11.15,4.74-34.78L2245,502.89Zm42.2-110.09-33.42,85.08h66.52ZM804.78,179.93v61.12c0,15.2-2,39.85,14.86,46.26v1H755.48v-1c16.89-6.41,14.86-31.06,14.86-46.26V113.4c0-15.18,2.36-39.84-14.86-46.25v-1h64.16v1c-16.88,6.41-14.86,31.07-14.86,46.6v41.86H926.7V113.75c0-15.53,2.36-40.19-14.87-46.6v-1h64.5v1c-17.22,6.41-15.2,31.07-15.2,46.25V241.05c0,15.2-2,39.85,15.2,46.26v1h-64.5v-1c17.23-6.41,14.87-31.06,14.87-46.26V179.93Zm442.49-5.06c0,68.88-57.07,118.87-124.27,118.87-66.86,0-123.25-48-123.25-117.19,0-64.15,55.71-117.85,126.63-116.16C1197.29,60.05,1247.27,114.08,1247.27,174.87Zm-209-1.36c0,47.28,33.43,95.91,86.45,95.91,51.33,0,84.08-37.48,84.08-87.81,0-49.29-31.4-96.9-84.75-96.9C1071.67,84.71,1038.24,122.53,1038.24,173.51Zm53.7-127.64c-11.15,0-20.27-10.47-20.27-21.61,0-12.16,9.8-20.93,22-20.93,11.14,0,19.59,10.8,19.59,21.6C1113.22,37.1,1104.1,45.87,1091.94,45.87Zm62.13,0c-11.49,0-20.26-10.8-20.26-21.61,0-12.16,9.79-20.93,21.61-20.93,11.48,0,19.93,10.46,19.93,21.27C1175.35,37.1,1166.22,45.87,1154.07,45.87Zm309.76,59.43h-1C1449,89.78,1423.31,85,1402.71,85c-52.68,0-92.87,34.45-92.87,88.81s43.23,95.57,96.58,95.57a171,171,0,0,0,46.94-6.42V214.38c0-15.53-.34-32.08-15.53-38.17v-1h51.66v1c-1.69,4.06-1.69,9.47-1.69,14.53v77.67c0,5.06-.34,10.47,1.69,15.19-27,5.06-53.35,10.14-80.7,10.14-86.45,0-137.44-47.28-137.44-115.16,0-72.6,57.74-117.85,139.46-117.85a255.19,255.19,0,0,1,53,5.73Zm199.78,1c-13.17-13.5-34.11-21.27-53-21.27-19.25,0-43.56,7.42-43.56,30.73,0,46.27,116.16,45.6,116.16,108.06,0,36.13-37.82,69.91-90.49,69.91-20.61,0-41.21-3.05-60.45-10.14l-9.8-42.21c19.92,17.22,47.62,28,74,28,19.24,0,48.29-11.49,48.29-35.12,0-52.69-116.17-43.22-116.17-114.81,0-42.55,43.56-58.76,84.76-58.76a169.94,169.94,0,0,1,50.32,7.43Zm63.92,7.09c0-15.18,2-39.84-15.19-46.25v-1h64.83v1C1760,73.23,1762,98.22,1762,113.4V240.71c0,15.54-2,40.19,15.2,46.6v1h-64.83v-1c17.22-6.41,15.19-31.4,15.19-46.6Zm83.06.68c11.15-15.86,31.41-36.81,8.77-46.93v-1h60.81v.33l-77.68,99.62,68.21,89.49c10.48,13.85,23.31,23.31,40.52,31.74v1h-31.73c-16.55,0-32.08-6.43-38.17-14.53l-75-101Zm344.83,60.79c0,68.88-57.08,118.87-124.27,118.87-66.86,0-123.25-48-123.25-117.19,0-64.15,55.71-117.85,126.63-116.16C2105.44,60.05,2155.42,114.08,2155.42,174.87Zm-209-1.36c0,47.28,33.43,95.91,86.45,95.91,51.33,0,84.08-37.48,84.08-87.81,0-49.29-31.41-96.9-84.76-96.9C1979.82,84.71,1946.39,122.53,1946.39,173.51Zm331,90.51c23,1.35,42.89-6.42,59.77-20.6h1l-17.56,44.92H2181.86v-1c17.22-6.07,15.19-31.06,15.19-46.26V113.75c0-15.53,2-40.19-15.19-46.6v-1h64.49v1c-17.23,6.41-14.86,31.41-14.86,46.6V261Zm145.75-59.1-17.57,47.62c-7.08,18.9-9.45,28.7,6.76,34.77v1h-62.13v-1c19.59-9.79,25.32-28.7,32.74-47.95l56.41-140.8c4.72-12.17,11.14-26.34-5.07-31.41v-1h53.35l70.24,173.23c7.76,19.25,13.84,38.16,33.1,47.95v1h-69.23v-1c16.55-7.42,13.84-11.14,4.73-34.77l-18.24-47.62Zm42.2-110.08-33.43,85.09h66.52ZM2647.5,244.43c0,18.91-.33,32.42,17.57,42.88v1h-59.78v-1c17.91-10.46,17.91-24,17.91-42.88V109.69c0-18.91,0-32.42-17.57-42.54v-1h49.31v.33a20.82,20.82,0,0,0,5,8.45l4.74,6.76,123.59,156v-128c0-18.91.34-32.42-17.57-42.54v-1h59.43v1c-17.55,10.12-17.55,23.63-17.55,42.54V299.14c-24-8.11-34.43-19.25-49.3-38.51L2647.5,113.75Z"/></svg>