<?xml version="1.0" encoding="utf-8"?>
<!-- Generator: Adobe Illustrator 24.3.0, SVG Export Plug-In . SVG Version: 6.00 Build 0)  -->
<svg version="1.1" id="l1" xmlns="http://www.w3.org/2000/svg" xmlns:xlink="http://www.w3.org/1999/xlink" x="0px" y="0px"
	 viewBox="0 0 1081 1080" style="enable-background:new 0 0 1081 1080;" xml:space="preserve">
<style type="text/css">
	.st0{fill:#4C4C4C;}
	.st1{fill:#1D1D1D;}
	.st2{fill:#8B8B8B;}
	.st3{fill:#5E5E5E;}
	.st4{fill:#333333;}
	.st5{fill:#4F4F4F;}
	.st6{fill:#616161;}
	.st7{fill:#828282;}
	.st8{fill:#C7C7C7;}
</style>
<path class="st0" d="M0.1,1041.9c13.3-3.7,25.8-9.6,39.1-13.4s26.8-3,40.1-2.3c10.4,0.6,20.5-0.5,30.6-1.9c12-1.6,23.7-5,35.4-8.1
	c9.6-2.5,19.1-1.1,28.6,0.1c6.4,0.9,13,0.6,19.2-1c4.9-1.3,7.6-4.4,8.8-9.1c2.3-8.7,5.6-10.7,13.8-7.2c7.8,3.3,16.2,5.1,23,10.6
	c2.1,1.7,3.8,3.7,5.1,6c1.7,3,3.5,3.8,6.2,1.2c0.9-0.5,1.8-0.8,2.8-0.9c5.8-1.2,7,0,6.3,6c-1.3,6.1-5,9.1-11.9,8.6
	c-9.8-0.6-19.5-1.8-29.3-2.6c-2-0.1-3.8-1.4-4.5-3.3c-2.1-4.1-5.5-5.2-9.6-3.6c-29.4,11.1-60.4,15.2-90.9,21.7
	c-11.5,2.5-23,5-34.2,9c-18.1,6.5-36.9,6.1-55.7,5.6c-7.6-0.2-15.3,0.1-22.8-1.6L0.1,1041.9z M774,584.9c-3.2,3.7-2.5,7.7-0.7,11.6
	c1.4,3.2,3.1,6.3,2.6,10c-0.5,3.6-2.8,6.6-6.1,8c-4,1.9-4.4,4.5-2.1,8c1.3,2,2.4,4,3.6,6c2.5,4.3,2.9,8.5-0.7,12.4
	c-1.4,1.5-1.3,2.8-0.6,4.4c0.6,1.5,1,3.1,0.1,4.8c-1.9,3.4-12.6,8.9-16.3,7.7c-14.4-4.5-25.9,0.3-35.8,10.7
	c-2.5,2.7-6.1,3.9-9.6,6.1c10.5,5.5,11.6,14.3,11,25c-1.3,23.2-5.9,45.7-10.9,68.2c-1.6,7.1-4.1,13.9-7.5,20.3
	c-3.3,6.3-6.8,12.6-8,19.8c-0.8,4.4-3.7,7.7-6.2,11.1c-2.1,2.8-3.4,6.1-5.1,9.1c-4,2.6-3.3,6.9-3.7,10.8
	c-14,21.3-26.1,43.8-43.5,62.8c-2.7,2.9-5.6,5.6-8.4,8.4c-1.7-0.7-2.8-2.3-3-4.1c8.1-12.3,17-24.2,23.5-37.5
	c2.7-5.2,4.9-10.6,6.6-16.1c6.5-23.6,20.2-42.8,36-60.8c11.2-12.6,15-27.4,11.5-43.6c-3-13.9-4.1-27.6-1.7-41.5
	c1.2-7.6,1.2-15.3,0-22.9c-0.9-5.9,0.6-10.8,5.3-14.7c1.2-0.9,2.3-2,3.1-3.3c2.3-4.5,5.1-6.5,10-3.5c1.8,1.1,2.6-0.2,3.1-1.8
	c1.2-3.6,0.2-6.9-1.3-10.1c-3-6.8-6.6-13.4-10.7-19.7c-9.6-14.8-10-29.8-2-45.4c2.2-4.3,4.2-8.7,6.4-13c2.4-4.8,4.4-5.6,9-2.6
	c9.5,6.2,18.7,12.7,28.1,19c2.9,2,5.7,4,8.7,5.8c4.4,2.6,5.9,2.1,8-2.6c1.2-2.5,2.2-5.2,3.2-7.7C771.5,583.3,773.1,582.3,774,584.9z
	 M891,969.9c20,1.3,40,3,60,3.9c21.3,1,42.6,3.7,63.5,8c7.1,1.4,14.2-0.8,21.2-2c8.7-1.4,17.6-1,26.1,1.2c6.2,1.5,12.1,0.7,18.1-1
	c0,6.5,0.1,13,0.1,19.5c0,4.6-4.5,7.5-8,4.8c-17.4-13.4-38.2-13.6-58.5-16.7s-40.9-3.7-61.4-3.2c-6.2,0.2-12.3,1.5-18.1,3.8
	c-2,0.8-4,1.4-5.8,0.5c-5.2-2.6-11.3-3.4-15.9-7c-7-5.3-14.9-4.5-22.8-3.9c-0.8,0.1-1.7,0-2.5,0c-0.6-1.9-2.3-2.7-3.7-3.9
	s-3.3-1.9-2.2-4.3C884.4,969.7,887.7,969.5,891,969.9z M386.9,750.9c-5.2-6.7-7.1-14.7-7.6-22.8c-1.1-18-7.4-34.3-14.9-50.3
	c-1.8-3.8-3.6-7.5-5-11.4c-1.6-3.8-2.2-8-1.7-12.1c1-7.4-1.6-14.1-6.6-19.7c-3.2-3.7-5-8.2-7.4-12.3c-0.6-1-0.6-1.9,0.6-2.5
	c8.1,2.7,9.6-5.1,14.2-9.5c1.8,16.8,9.8,30.9,15.4,45.8c-3.4,4-3.6,8.2-1.2,12.8c1.4,2.5,1.9,5.4,1.5,8.2c1,14.8,4.5,29.1,7.3,43.6
	C383.4,730.7,386.5,740.5,386.9,750.9z M407.1,813.9c1.1-3-2.4-6-0.1-9c4.8,7.3,11.6,12.9,19.7,16.2c7.1,3,10.7,9.2,13.2,16.1
	c2.3,6.2,4.5,12.5,6.7,18.7c1.1,3.3,2,6.5,5,8.9c2,1.6,2.2,4.4,1.4,7l0.1-0.1c-3.2,0.8-4.6-1.1-6.3-3.4c-9.3-12.5-18.2-25.3-28.4-37
	c-0.3-0.3-0.9-0.2-1.8-0.4c2.5,11.9,0.6,23.5-0.7,35.1c-0.8,1.9,0.3,4.1-0.8,6c0,4.3,0.1,8.6,0.1,12.8c0,1.3,0.7,3-0.5,3.7
	c-1.7,1-2.4-1-3.6-1.8c-1.4-6.3-0.5-12.6,0.5-18.9c2.3-12.4-0.7-24.4-3.2-36.4c-0.2-1.5-0.4-3-0.4-4.5
	C407.5,822.6,409,818.2,407.1,813.9z M250.1,1004c-3.5,1-6.2-1.3-9-2.6c-8.3-3.7-16.5-7.9-25-11.1c-7.6-2.8-15.5-3.3-23.4-4.3
	c-2.3-0.2-4.5-0.8-6.5-1.8c7.1-3,13.6-5.8,20.2-8.3c10.9-4.1,19.8-12.2,31-15.6c3.4-1,6.5-3.5,10.3-3.3c-4.2,6.9-8.4,13.9-12.7,20.7
	c-6,9.4-4.4,15.2,6,19.9C244.4,999.2,248.2,1000.2,250.1,1004z M413,867.9c-2.1,6.1,0.1,12.7-2,18.8c-4.1-3.2-3.9-7.8-3.6-12.3
	c0.2-3.5,0.6-6.9-0.8-10.6c-5.1,3.3-8.8,8.4-10.4,14.3c-1.9,7.1-8,10.5-12.1,15.6c-1.2,1.5-2.6,0.3-4-0.4c-6.5-3.5-10-3.5-13.9,2.1
	c-5.5,8-14.2,11.9-20.7,18.5c-2,2.3-5.3,2.6-7.7,0.8c-2-1.3-3.2-3-2.7-5.4c0.6-3.2,3.1-4,5.9-4.3c1.9,3.4,4.1,3.1,7.2,1.1
	c5.5-3.6,8.9-9.2,13.8-13.2c4.4-2.8,8.2-6.5,10.9-11c10.4-6,18.6-14.3,25.7-23.8c1.8-2.3,4.2-4.2,6.4-6.3c2.9-1.5,4.3,0.3,5.3,2.5
	c1.1,2.5,0.9,5.1,1.1,7.7C411.6,864.1,410.7,866.5,413,867.9z M696,816.9c2,1.1,3.3,2.6,3,5c-1.9,9.2-1.9,18.8,0,28
	c0,0.2,0,0.3,0,0.5c-1.6,7.9-2.1,8.4,6.9,10.5c1,8.4-0.4,16.6-3.2,25.4c-4.6-5-7-10.5-8.7-16.3c-2.8-9.4-2-19.1-1.8-28.8
	c0.1-5-1.3-9.2-5.2-12.4c-3.3-3.7,0.4-6.1,1.8-8.6S692.2,815,696,816.9z M706,855.9V833c1.9-0.5,2.3,1.1,2.4,2
	c1.2,6.6,5.9,11.5,8.4,17.5c4.7,11.5,13.5,18.1,25.2,21.4c4,1.1,8,2,12,3c1.7,2.4,1.8,4.7-0.1,7c-17.4-2.4-31.4-10.6-42.5-24.1
	C710,858.1,708.5,856.3,706,855.9z M842.9,918c2.3-0.7,3.4,1.3,4.9,2.3c4.8,3.4,9.6,7,15.2,9.2c2.6,1,4.2,3.1,5.8,5.2
	c5.5,6.8,11.9,13,18.8,18.3c1.5,1.1,3.7,1.3,5.5,1.9c1.1,0.2,2.2,0.6,3.3,1c1.7,0.9,2.6,2.7,2.3,4.6c-0.3,2.3-2.1,3.4-4,3.9
	c-3,0.9-0.9-3.3-3.1-3.3c-5.4-0.4-9.7-3.1-13.7-6.4c-8.5-7.1-16.2-15.1-24.8-22.2C848.7,928.5,845.2,923.6,842.9,918z M382.8,679.1
	c2.7,4.7,5.4,9.5,8,14.2c1.6,2.9,1.4,5.5-1.9,7.1c-3.8,1.8-3.9-1.7-5-3.7c-1.7-3.2-3.3-6.5-4.9-9.7
	C378.6,683.5,380.1,681,382.8,679.1z M462.8,889c-3.8-5.4-9.2-9.9-9.7-17.2l-0.1,0.1c4.9,1.7,7.6,5.4,10,9.8
	c1.3,2.5,2.9,4.7,4.4,7.1C465.9,890.3,464.4,889.9,462.8,889z"/>
<path id="BackBlack" class="st1" d="M768.9,436.8l-23.5-20.5l6.5-33.9v-70.3l-224.4-82l-51.7-104.4L449,103.6l-61,0.3l-65.2,66.6
	l29.7,89.5l-61.3,145.3l-36.1,81.8l17,73l21,12.6l7.6-11.5l-3.6-12.4l6-14.2l11.1-4.1l0.8-1.3c0.5,0.4,1.2,0.5,2.1-0.1
	c1.3-4.6,5.6-4.7,9.1-6l-2.7-3.8c3.9-1.8,6.4-4.1,5.9-8.8c-0.2-1.7-0.5-3.2-1-4.5l2.9-5l8.3-40l-14.7-29l-0.6-75.7l47.2-40.1
	l27.9-46l27.3,12.9l44.5,14.2l4.8-34l42.1,68.5l4.8,25l4.8,5.3l9.7-4.8l7.7,10.1l2.5,5c-0.4,0.2-0.8,0.4-1.4,0.5
	c-1.6,0.4-3.9,0.6-2.8,3.4c0.8,2.5,2.6,4.7,4.9,6c1.8,1,3.7,1.8,5.6,2.7l2.6,5.1l28,6.4l17.7,30.9l10.1-1.4l23-0.8l-1.2-9.9
	L621.3,399l2.5-42.9c0,0,6-4.4,11.1-8c1.1,1.7,2.2,3.6,2,5.9c4,0.4,3.9,5.9,7.9,6.3c2.3-2.1-0.1-3.6-0.8-5.1
	c-1.6-3.4-3.2-6.7-4.9-10c1.7-1.1,2.8-1.9,2.7-1.7c-0.2,0.5,47.4,20.1,47.4,20.1l5,48.5l7.6,10.2l-2.2,11.2l2.3,60.5l32.4,22.1
	l38.8-11l7.7-48.1L768.9,436.8z"/>
<path class="st2" d="M357.9,378.6C357.9,378.6,357.9,378.6,357.9,378.6c0,0-0.1,0.1-0.1,0.1C357.3,379.2,357.7,378.1,357.9,378.6z
	 M1080,969l-0.3,11c-4.2,3.6-9.2,4.1-14.1,3c-13.5-3.1-27.6-3.1-41.1,0c-4.1,0.8-8.3,0.7-12.4-0.2c-26-5.3-52.3-7.5-78.7-8.6
	c-13.7-0.6-27.6-0.6-41.2-3.2c-2.5-0.9-2.1-3.3-2.5-5.2c2.3-0.9,2.9-2.5,2-4.8c1-0.6,1.5,0.1,2.1,0.7c0.5,0.7,1.6,0.9,2.3,0.3
	c0.1-0.1,0.2-0.2,0.3-0.3c0.8-0.7,1-1.8,0.8-2.7c-0.3-1.3-1.4-2.4-2.8-2.6c-11.8-2.5-18.1-12.3-25.8-20.1c-2.6-2.6-5-5.1-8.4-6.7
	c-6.2-3.2-12-7-17.3-11.5c-14.1-11.8-29.7-21.2-46-29.6c-11.2-5.8-23-9.5-35.7-9.4c-2.6,0.8-4.8-1.1-7.4-0.8
	c-6.3-1.5-12.7-2.7-18.7-5.3c-8.2-3.6-14.9-9.1-18.3-17.5c-2.7-6.5-8.5-11.5-9.3-19c-0.3,4.7-0.3,9.3-0.3,13.9c0,2,0.3,4-1.3,5.7
	c-2,1.6,0.6,3.4-0.1,5.1c-6.4,1.1-9.5-1.6-8.8-7.8c0.1-1.3,0.3-2.6,0.5-3.9c0.1-8.6-0.1-17.2,0.1-25.8c0.2-2.3-0.8-4.6-2.5-6.2
	c-2.3-2.6-3.5-6.1-3.3-9.6c0.5-4.1,1.8-8.1,3.9-11.8c7.3-13.5,11.6-27.8,14.8-42.7c4.2-19.4,6.8-39,8-58.8
	c0.4-6.5-1.7-12.4-7.4-16.6c-4.3-3.1-4.1-3.8,0.5-6.5c2.6-1.8,5.1-3.7,7.3-5.9c9.2-7.9,19.5-13.2,32-9.7c6.9,2,11.5-1.5,16.4-4.8
	c0.8-0.6,1.7-1.6,1.5-2.5c-1.1-4.6,1-8.3,2.6-12.3c0.9-2.2,0-4.6-1.2-6.7c-1-1.9-2.2-3.7-3.2-5.7c-2.7-5.5-2.4-6.8,2.4-10.5
	c5.5-4.2,6.4-7.5,3.8-13.9c-1.1-2.6-2.4-5.1-2.3-8.1c0.1-2.5,0.1-5.1,2.6-6.6c1.3-0.3,2.6-0.1,3.7,0.5c4.5,2.3,7.1,5.6,6.8,10.8
	c0.6-1.4,1-3.2,1.9-4.8c0.9-1.5,1.7-3.2,3.9-2.4c-0.2-0.1-0.3-0.3-0.4-0.5c-1-2.8,0.1-4.9,2.4-6.4s3.2-3.3,2.2-5.9
	c-0.6-3.9-0.1-7.9-0.5-11.8c0-2.9-3.8-4.2-3-7.4c2.8-4.7,7.8-7.1,11.9-10.4c4.8-4,9.2-8.1,12.3-13.6c2.2-3.9,5.4-5.2,9.6-3.3
	c1,0.9,1.8,1.9,2.7,3c2.8,3,3.5,6.1,1.3,9.9s-1.3,6,3.1,7.5c6.7,2.3,10.9-0.3,12.3-7.3c1-4.9,1-9.9,2.7-14.7c3-3.5,7.2-5.2,11-7.4
	c6.4-3.6,9.1-8.8,8.3-16c-0.2-2.3-0.6-4.6-0.9-6.9c-0.7-5-0.7-5-5.3-3c-4.9,0-5.9-3.7-6.5-7.2c-1.1-5.4,0-11,3.2-15.4
	c0.2-0.1,0.4-0.3,0.5-0.4c-1.3-1.5-1.1-3.1,0.1-4.8c0.1,1.6,0.1,3.1,0.2,4.7c0.2-0.1,0.3-0.2,0.5-0.3c1.9-0.7,3.9,0.2,6.3,0.1
	c-0.8-1.6-2.9-1.4-3.1-3c1.8-4.7,3.3-5.3,10.5-4.4c3.8,2.8,9.4,0.5,12.8,4.6c0.7,0.9,1.5-0.2,1.7-1c0.3-1.3,0.1-2.7-0.5-3.9
	c-1.7-4.3-1.7-8.1,3-10.7c1.7-0.9,1.9-2.3,0.7-3.7c-1.4-1.7-3.1-2.7-5.2-1.4c-2.6,1.7-5.5,3.2-8.4,4.4c-1.8,0.6-3.7,1.7-5.7,0.9
	c-1.6-1.2-3-2.6-5.1-3c-7.9-1.5-11.6-6.4-11.7-14.3c0.1-3.1-1.5-5.9-4.2-7.4c-1.8-1.2-4.2-1.3-6.1-0.1c-2,1.2-2,3.3-1.8,5.3
	c0.3,1.6,0.8,3.2,1.5,4.7c0.5,1.4,1,2.9-0.2,4.2c-1.4,1.5-3,1.1-4.6,0.4c-4.9-2.5-10.3-3.9-15.8-4c-4.7-4.1-3.9-12.5,1.4-15.4
	c4.5-2.5,5.7-4.5,3.8-9.3c-2.3-5.8-3.1-11.9-3.5-18c0.1-7.1,0.5-7.7,7.5-8.4c2.6-0.3,4.5-1.9,6.8-2.8c1.7-0.5,3.4-1.2,5-2.1
	c2.1-1.1,4.2-1.4,5.8,0.7c1.5,1.9,1.6,4.5,0.2,6.5c-3.1,4.9-2.3,4.2,1.2,8.1c5.5,6,12.2,4.3,18.8,4.7c0.5,0.1,1,0.2,1.5,0.3
	c3.1,0.5,5.9,2.8,9.1,2c3.9-0.9,3-5.2,4.5-7.8c1.9-3.1,4.4-4.8,8.1-4.9c1.8,0.1,3.7,0.2,5.5,0.5c1.8,0.2,3.5,0,4-2
	c0.6-2.3-1.1-3.3-2.9-3.9c-5.4-1.7-11-2.6-16.5-3.9c-2.1-0.3-4.2-0.9-6.2-1.7c-2.4-2-2.5-6.5-7-6.2c-2.2,0.5-3,2.4-4,4
	c-0.9,1.5-1.3,3.5-3.5,3.7c-4.3-2.5-9-4.6-10.8-9.8c-3.9-6.6-9.5-11-17-12.7c-2-0.8-4.3-0.9-6.3-0.2c-0.4,0.2-0.8,0.3-1.3,0.5
	c-4.7,1.4-8.8,4-12.8,6.9c-6.8,3.2-9.4,2.2-11.9-4.5c-0.6-4-2.2-7.3-6.5-9.6c1.4,7-1.8,13.4-1.1,20.1c0,1.5,0,3,0.1,4.5
	c0.5,3.6,2.5,5.4,6.1,5.1c3.3-0.3,6.7-0.5,9-3.4c1.1-1.4,2.2-3.4,4.4-1.7c2.2,1.7,2,3.8,0.6,6.2c-2.5,4.1-6.4,6.1-10.5,8.1
	c-6.6,9.5-15.7,17.2-19.3,28.7c-2,2.7-0.4,7.2-4.5,8.8c-6.1-4.1-7.4-7.6-5.7-14.8c0.3-1.5,1.8-3.6-0.4-4.3c-2.2-0.7-3.5,1.4-4.3,3.2
	c-2.1,5,0.2,13.3,4.1,17c2.4,2.3,4.5,1.3,6.6-0.2c2.8-1,5.6,0.2,8.3,0.5c1.7,0.2,3.5,0.5,3.7,2.6c0.2,1.8-1,3.4-2.7,3.6
	c-3,0.7-4.3,2.9-5.5,5.3c-2.8,3.1-6.4,4.1-10.3,4.3c-0.5,0.1-1,0.1-1.5,0.1c-2.3-0.3-4.3-1.3-6.5-1.9c-1.1-0.4-2.2-0.6-3.4-0.8
	c-5.5-0.9-6.9,0.3-7.2,5.8s1.1,11-1.8,16.1c-3.1,2.2-5.3,0.4-7.2-1.9c-1.3-1.4-1.8-3.3-1.5-5.1c2.7-10.3-3.1-18.3-6.9-26.8
	c-3.6-8-8.1-15.6-10.9-24.1c-1.9-6-1.7-6.5,4.1-8.7c2.6-1,5-2.5,7.8-3.4c3.5-1.1,3.8-3.3,1.8-6.1c-1.4-2-3.4-3.6-4.5-5.9
	c-0.8-1.5-0.7-3.4,0.4-4.7c1.2-1.5,2.6-1.3,4-0.4c2.5,1.5,3.6-0.3,4.7-2c6.5-8.3,11.7-17.5,15.3-27.4c-9.5,2.7-17.6,0.4-25.6-2.5
	c-4.1-1.4-8.3-2.4-12.6-3c-6.7-1-8.7,1-7.7,7.5c0.4,2.6,0.9,5.3,0.2,7.9c-1,2.6-3.2,3-5.5,3.3c-1.7,0.2-3.7-0.5-4.9,1.4
	c0.5,4.6,4,6.4,7.5,8.3c2.6,1.4,5.7,1.4,8.5,2.5c4.5,4.2,4.6,7.1-0.5,10.1c-4.5,2.8-8.9,5.8-13,9.1c-2.4,1.8-4.9,3.5-8.1,3.4
	c-4.8-0.3-6.6-4-8.2-7.7s-2.5-7.9-4.3-11.7c-6.5-14-17-20-32.4-18.3c-2,0.3-4,0.4-5.9,0.2l-2.3-0.5c-4.6-10.2-8.7-20.8-17.5-28.5
	c-10.5,0.6-8.6,5.2-4.7,11.2c1.9,3,4.9,5,7.1,7.7s4.3,5.5,3.1,9.4c-1.7,1.1-4.2,1.4-4.3,4.2c-4.2-0.6-8.3-2.1-12.5-2.7
	c-1-0.1-2.2-0.1-2.6,1c-0.4,1.3,0.9,1.6,1.7,1.9c1.8,0.8,3.7,1.4,4.9,3.2c0.9,2.6,3,4.4,4.6,6.5c0.4,4.1,4,6,6.1,9
	c1.5,6,0.8,8.1-4.3,11.6c-2.7,1.8-5.2,4-7.4,6.4c-9.4,4.8-8.6,13.3-8,21.8c-0.5,1.5-1.6,2.6-3,3.3c-1.9,0.7-3,2.4-4.4,3.7
	c-1.3,1.3-3.2,1.7-4.9,1c-6.8-7.6-14.7-14.2-21.1-22.2c-2.8-6.7,0.7-12.9,1.5-19.3c0.1-2.3,0.6-4.6,1.3-6.8
	c1.5-4.9,0.5-7.6-3.9-10.5c-3-2-6.6-3.1-9.6-5.2c-0.8-0.7-1.3-1.7-1.5-2.7c-0.2-3.8,0-7.4,4.7-8.5c2-0.5,1.9-2,2-3.5
	c0.2-3.8-0.2-7.6,0.3-11.4c0.6-2.8,2.9-4.3,4.5-6.4c3.1-4.1,6.7-8,4.6-13.9c-2.7-4.5-7.5-8-7.3-14c0.5-6.4-4.1-9.9-7.9-13.7
	c-1.9-1.9-4-1-5.5,1.1c-1.9,2.7-3.4,5.8-4.4,8.9c-2.6,8-7.3,13.8-16,15.6c-0.7,0.1-1.3,0.1-2,0.1c-8.9,0.1-8.9-0.1-10.5-8.8
	c-1.2-6.8-4.8-12.7-8.4-18.5c-1.8-3-4.5-2.9-7.2-0.6c-3.4,3-6,6.7-9.9,9.1c-6.1-0.2-9.3-3.1-10.2-9.2c-0.4-2.8-0.1-5.6-0.3-8.5
	c-0.1-1.6-0.5-3.1-2.4-3.3c-2.3-0.3-4.7,0.3-6.6,1.6c-1.5,1.2-0.7,2.8,0.1,4c2.6,3.7,2.4,6.9-0.7,10.3c-2.3,2.5-2,5.5,0.2,8.1
	c6.4,7.5,9,8.4,15.5,4.6c1.3-0.7,2.8-1.1,4.3-1c7,1.8,7.6,7.4,7.9,13.2c-0.8,3.2-3.3,5-5.7,7c-1.2,0.8-2.6,1.3-4.1,1.4
	c-2.6-0.3-5.3-0.8-6.6,2.5c-1.4,2.2-2.1,4.9-4.8,6.1c-4.6-0.2-5.9-4.1-7.3-7.2c-2.1-4.5-4.4-8.9-6.7-13.3c-4.6-1.6-8.6-4.9-13.9-4.1
	c-0.1-3.6-3.4-6.4-2.4-10.3c0.7-1.9,2.5-2.5,4.2-3.1c1.7-0.6,3.2-1.8,4.2-3.3c3.1-4.5,2.6-5.5-2.8-6c-1.2,0-2.3-0.3-3.3-0.8
	c-2.7-2.3-1.5-4.8-0.3-7.2c5.7-11.8,5.1-14.3-6.5-19.7c-14.3-6.6-18.6-19.5-22-33.1c-2.3-8.5-1-17.5,3.7-24.9c2.3-3.6,2-3.9-3.6-6.2
	c-1.2-2.7,0.3-5,0.8-7.5c0.9-2.5,1.5-5.1,2.4-7.6c1.7-4.6,4.8-5.6,9.1-3.3c0.7,0.4,1.4,0.9,2.1,1.4c5.4,3.5,7.1,3,8.9-3
	s4.7-7.7,10.8-6.8c2.1,0.3,4.2,1,6.3,1.4c3.4,0.7,5-0.6,5.1-4.1c0.1-4.4-2.4-7.5-5.5-10.2c-2.6-2.3-5.7-4.1-7.8-6.9
	c-1.7-3.4-4.7-5.8-7.4-8.4c-3.5-3.1-5.6-7.3-6.1-11.9c0-2.7,0.2-5.4-3-6.6c-1.5-1.1-2.8-2.3-4.1-3.6c-3-2.8-6.3-4.3-10.4-2.8
	c-3.8,0.2-7.6,0.6-10.5-2.7c-0.6-0.9-0.7-2-0.4-3c3.5-4.2-0.7-4.1-2.9-5.2c-4.7-6.3-11.9-6.2-19-6.9c-0.4,2.3,0.7,4.6,0.9,7
	c0.1,2.1,0.3,4.2-0.7,6.2c-4,2.1-7.7-0.5-11.5-0.8c-2.4-0.2-3.9-0.6-3.8,2.5c0,4.1-2.2,4.9-5.5,3.2c-2.9-1.5-3.4-0.1-3.6,2.4
	c-0.1,1.8-0.8,3.6-2,5c-4.2,4.6-4.5,9.8-2.8,15.4c0.4,1.9,1.6,3.6,1.4,5.6c-1.4,3.4-0.8,5.6,3.3,6.3c2.8,0.5,5.1,2.2,7.4,3.9
	c2.3,1.9,5.3,2.9,8.3,2.6l1.4-0.1c4.6-1.9,9-4.4,14.1-4.6c2.5,0.5,5.7,0.2,6.5,3.5c0.8,3.3-1.7,5.1-3.9,7.1c-3.4,3.1-7.6,4-11.9,4.6
	c-2.8,0.4-5.6,1-8.3,1.9c-5.5,1.9-8.5,5.7-9.2,11.4c-0.7,5.7-1.7,11.6-1.8,17.4c-0.2,6.7,3.7,12,8.2,16.5c2.1,2.2,4.1,1.1,4.7-2.1
	c0.1-0.6,0.1-1.3,0.2-2c0.3-1.7,0.5-3.7,2.3-4.1c2.1-0.5,2.6,1.7,3.1,3.2c1.5,3.4,3.9,6.3,6.9,8.3c1.6,4.1-1.4,5.8-4,7.7
	c-1.2,0.9-2.8,0.7-4,1.5c-0.8,0.5-1.5,1.2-2.4,1.7c-2.5,1.1-4.8,0-7.2-0.7c-4.5-1.2-6.9,1-5.8,5.5c1.1,4.4,3.2,8.4,5.9,12
	c1.1,1.3,1.9,3,2.1,4.8c0.2,1.5-1.1,3.7,1.2,4.3c1.9,0.5,2.1-1.7,2.9-2.9c1-1.5,1.7-3.5,4-3.1c2.3,0.4,2.5,2.4,3.2,4.1
	c1.9,4.3,0.4,9.3,2.8,13.6c1,3.8-0.6,6.7-3,9.5c-7,8-7.5,14.8-2,23.8c0.6,1.7,0.5,3.5,0.8,5.3c0.1,0.5,0.1,1,0,1.5
	c-5,6.2-4.1,13.7-4.5,20.9c-0.7,1.4-2.9,2.2-1.9,4.2s3.2,2,4.8,1.6c16-4.3,25.8,7.7,37.5,14.5c1.3,0.9,2,2.5,1.7,4
	c-0.6,5.6,3.1,11,0.7,16.8c-0.5,1.1,0.1,2.6,0.2,3.9c-0.4,0.3-0.9,0.3-1.3,0c-0.9-3.1-2.4-3.9-5.3-1.9c-4.4,2.9-9.4,4.1-14.5,5
	c-6,1.1-12,2.7-17.8,4.7c-1.6,0.3-3,1.1-4.1,2.3c-3.6,2.4-7,5.1-10.1,8c-2.7,2.6-2.5,4.3,0.8,6.1c6.5,3.7,13.2,6.5,20.8,3
	c0.8-0.3,1.6-0.4,2.5-0.3c1.9,0.1,3.8,0.5,4.3,2.6c0.4,2-1.2,3.1-2.7,3.7c-5.1,2.4-10.4,4.5-15.7,6.3c-4.6,1.4-9.3,2.6-13.9,3.9
	c-5,1.5-9.3-0.2-10.3-5c-2.3-10.7-7.6-20.2-11.1-30.4c-0.3-0.9-0.3-1.9-0.7-2.8c0.2,1.5-0.1,4.2-0.9,5.9c-1.2-7.4-0.9-15.2-4.8-22.1
	c-0.4-0.7-0.8-1.4-1.2-2.2c-6.6-2.2-11.4-6.8-15.8-12c-6-2.9-12.4-3.1-17.7,0.7c-4.9,3.5-9.8,5.3-15.7,4.7c-1.2-0.1-3-0.6-3.6,0.8
	c-0.6,1.4,0.9,2.4,1.9,3.2c6.5,5.2,13.9,7.8,22.2,7.2c5-0.4,6.5-2.8,5.4-7.5c-0.6-2.3-0.7-4.4,2.4-4.9c1.5,0.1,3,0.5,4.4,1.1
	c4.6,1.7,5.4,3.3,3.8,8c-0.9,2.7-2,5.3-2.9,8l0.6,1.9c-0.6,3.6-0.4,7.2-0.4,10.9c0,2.5,1.2,3.6,3.7,3.6c3.6-0.1,7.2,0.1,10.8,0.5
	c1.3,0.7,2.8,1.7-0.2,1.8c-3.6,0.3-7.3,0.3-10.9,0.1c-4.3-0.4-5.8,1-4.1,5.2c0.7,5.1-0.2,9.6-3.9,13.6c-2.4,2.6-2,6.6-3.3,9.8
	c-2.6,1.8-3.5-0.8-5.1-1.8c-0.5-0.5-1-1.1-1.5-1.7c-1-1.3-1.7-2.9-2-4.5c-0.4-1.9,0.4-4.6-3-4.8c-3.4-0.2-6.7-1-8.7,2.9
	c-0.8,1.5-1.7,3.1-3.7,2.8c-2-0.3-2.5-2-2.7-3.7c-0.3-2.1-0.8-4-3.4-4.2c-2.8-0.3-5.3-0.1-7.1,2.5c-1.5,2.1-1.9,4.6-2.5,7
	c-1.6,4.1-2.9,8.3-6,11.6c-1.7,0.7-3.6,0.9-5.5,0.7c-5.1-0.9-8.1-5.1-12-8c-0.3-4.3,2-5.9,5.9-4.8c3.6,1,5.3-1.2,6.6-3.8
	c1.3-2.6,0.1-4.5-1.9-6c-3.7-2.7-6.6-6.7-11.2-8.1c-4-1.3-5.1-0.7-5.4,3.6c-0.1,2.2-0.4,4.3-0.8,6.4c-1.1,5.9-6,10.3-11.9,11
	c-3.3,0.4-3.9-1.8-4.4-4.2c-0.5-2,0.2-4.4-1.7-6c-1.7-2.6-3.9-3.8-6.6-1.8s-3,4.8-1.2,7.5c3.8,5.8,5.7,11.8,4,18.8
	c-0.9,3.7,3,5.7,3.7,8.9c1.9,3.5,5.7,5.1,8.4,7.8c2.1,2.3,3.9,4.9,5.3,7.7c0.8,1.6,1.3,3.4,1.5,5.2c0.9,8,5.5,14.4,9.6,21
	c0.2,3.3,1.1,6.8-3.3,8.3c-6.8-3.5-13-2.1-19.2,1.7c-1.6,1-2.4,2-0.6,3.3c3.6,2.6,4.8,5.8,2.4,9.9c-2.4,4.3-5.7,5.8-11.3,4.9
	c-0.9-0.5-1.5-1.4-1.5-2.4c4.5-4.2,4.6-4.3,1.1-10c-2.6-4.2-5-8.6-8.2-12.5c-4.8-5.7-11.2-8.5-17.9-11c-1.2-0.9-2-2.2-2.2-3.6
	c0.5-2.3,2.9-2.4,4.4-3.5c1.8-1.1,3.1-2.9,3.7-4.9c-0.3-3-2.1-3.4-4.6-2.8c-1.6,0.4-2.9,1.5-4.5,2c-4.8,1.6-9.8,1.7-14.6,2.7
	c-5.7,1.1-11,3.7-15.5,7.4c-3.7,3.2-5.4,2.6-7-2c-0.1-0.3-0.2-0.7-0.3-1c-0.1-6.2-3.4-9.7-9.3-10.9c-1-4.1,1.6-5.7,4.7-7
	c1.6-0.6,3.3-0.4,4.9-1c6.1-2.2,6.1-2.2,3.5-7.9c-1.4-3-2.4-6.2-3.1-9.5c-0.6-3-2.3-3.8-4.6-1.9c-7.2,5.7-16.4,7.3-24,12.1
	c-2.8,0.5-5.4,1.4-8.1,2c-2.4,0.5-4.9,0.9-6.9-1.1c-1.5-4.9-5-9.2-5-14.6c0.3-4.1,2.9-7.4,4.2-11.1c1.7-5.2,1.1-5.9-4.1-5.1
	c-2.7,0.2-5.3,0.9-7.7,1.8c-1.4,0.8-3.7,1-3.4,3.1c0.3,2.1,2.4,1,3.8,1.4c3.1,1,3.4,3.1,1.9,5.4c-2,3.2-4.3,6.3-7.6,8.4
	c-4.6,5.4-4.6,5.5,0.6,10c2.1,1.9,3.2,4.3,1.9,6.7c-7.4,13-14.4,26.5-29.1,33c-6.1,2.7-9,0.8-9.7-6c-0.3-3-0.3-6-1.4-8.8
	c-0.5-1.4-1-2.9,0.5-4c1.5-1.1,3.2-0.8,4.6,0.3s2.4,2.3,3.7,3.3c2.8,2.3,5.5,1.9,8.1-0.4c1.3-1.1,2.1-2.6,0.4-3.7
	c-3.3-2.2-2.8-5.4-2.8-8.5c0.2-9.2,2-18.2,5.4-26.7c1-2.7,3-5.6-0.1-8.2c-3.1-2.6-5.6-0.3-8.2,1c-4.3,2-7.4-0.1-10.3-3.1l-1.7-1.5
	c-2.5-2.8-7-1.6-9.4-4.8c-3.6-5.1-1.5-10.5-0.8-15.9c3.4-6.2,8-11.6,10.5-18.4c1.4-3.7,5.4-3.8,9.1-3.4c6.9,0.8,13.8,1.5,20.8,1.9
	c6,0.3,7.8-1.6,7.7-7.5c0-1.3-0.1-2.7-0.2-4c-0.2-7.2,1.2-8.3,8.2-6c7.6,2.5,13.1,8.4,19.5,12.9c1.5,1,2.5,3.8,4.9,1.7
	c2.4-2.1,1.9-4.7,0.2-6.7c-3.5-4.2-7.4-8.1-11.1-12.2c-4-4.3-3.7-5.9,1.8-8.2c8-3.2,15.8-7.1,23.1-11.7c9.3-5.8,19-7.4,29.5-3.2
	c5.8,2.3,7.2,1.1,6.8-5c-0.1-2.3,0.1-4.3,1.7-6c1.3-1.3,1.9-3.2,1.5-5.1c-1.9-1.8-4.2-2.1-6.7-2c-2.5,0.1-5,0-5.9-3
	c1.9-3,0.2-5.1-1.8-7.1c0-0.5,0.2-1,0.6-1.3s0.9-0.5,1.4-0.6c6.2-0.8,12.3,0.8,18.4,1.3c3.4,0.3,5.6,0,5.8-4
	c0.2-3.4,2.4-5.7,4.6-8.1c4.2-4.5,4.1-5.8-0.6-9.5s-5-6.2-0.7-11.1c1.4-7.7,7.8-10.6,13.5-14.2c4-2,8.4-3.1,12.5-4.9
	c5.4-2.4,9.5-5.9,11.5-11.7c0.9-2.7,0.5-3.6-2.7-4.7c-11.6-4-20.2,1.3-28.3,8.3c-1,0.8-2.3,1.1-3.6,0.8c-0.4-0.3-0.8-0.7-1-1.1
	c-0.8-2.8-3.4-5-2.2-8.3c1.4-1.6,4.9-0.2,5.3-2.9c0.4-3.2-3.4-2.4-4.9-3.8c-0.4-0.3-0.7-0.7-0.9-1.1c-6.3-6.2-13.1-11.8-20.3-16.9
	c-9.2-6.3-19-9.9-30.4-9c-8.2,0.6-12.2-4.5-10.7-12.7c0.3-1.4,0.6-2.7,2-3.2c1.7-0.6,2.9,0.2,3.9,1.4c0.5,0.6,1,1.3,1.6,1.9
	c3.9,3.9,6.7,3.4,7.4-1.9c0.6-4.3,3.9-6.9,5.3-10.6c0.4-1,1.2-1.1,2.1-0.9c1.4,0.2,2.5,1.3,2.6,2.8c-0.4,9.7,4.3,16.5,11.9,21.7
	c9.2,6.2,19.5,8.2,30.4,7.4c6.1-0.5,12.2-1.7,18.1-3.4c2.6-0.7,3.8-1.7,3.1-4.9c-1.7-7.3,1.9-12.4,7.6-16.6c4.1-3,9-5.1,11.1-10.3
	c2.5,2.6,5.3,2.8,8.5,1.3c1.4-0.6,3-1.3,4.7-0.4c0.9,3.2-1.4,4.4-3.5,5.7c-1.6,1-3.1,1.9-3.7,3.8c-0.4,1.3-0.7,2.8,0.8,3.5
	c1.3,0.7,2.1-0.5,2.8-1.4c1.3-1.9,2.5-3.9,4.8-4.9c0.9-0.4,2-0.4,2.9-0.1c2.7,1,3.1,3.1,2.5,5.6c-0.2,1-1,2.4,0.5,2.9s2.4-0.8,3-2
	c1.1-2.3,0.5-4.8,0.8-7.2c0.7-2.7,0.8-5.7,2.9-7.8c3.6-1,6.9,1.1,10.4,0.8c0.7,0,1.3-0.2,1.9-0.4c1.5-0.6,2.9-1.4,2.6-3.2
	c-0.4-2.2-2.3-1.3-3.7-1.1c-0.8,0.1-1.6,0.2-2.5,0.1c-2.6-0.6-5.1-1.5-7.5-2.7c-0.3-0.4-0.4-0.9-0.2-1.4c1.9-5.3,1.9-5.3-3.5-7
	c-0.6-0.1-1.2-0.5-1.6-1.1c1.8-1.2,1.9-3.1,2.1-4.9c2.9-4.3,3.7-4.6,8.4-2.3c6.7,3.3,8.8,2.5,10.9-4.4c0.1-0.3,0.3-0.6,0.5-0.8
	c3.5-3.7,3.5-3.7-1.2-5.4c-0.5-0.1-0.9-0.3-1.4-0.5c-3.2-3.7-3.1-5,0.4-8.6c1-1,2.6-1.9,2.1-3.6c-0.5-1.5-2.2-1.1-3.4-1.4
	c-1.9-0.3-3.5-1-4-3c-0.3-1.6,0.8-2.4,1.7-3.3c0.1-0.1,0.2-0.4,0.3-0.4c8.9-0.9,17.2-6.7,26.7-2.3c4.6,2.1,9.6,1.7,14.4-0.6
	c5.1-2.4,6.4-1.7,7.8,3.4c0.7,2.9-0.3,6.2,2.3,8.6c1.6-0.6,1.3-2.6,2.6-3.4c16.4-3.8,31.5-10.2,45.1-20.3c8-6,17.8-4.2,27.1-3.4
	c2.8,0.2,5.1,0.3,7.4-1.5c3.6-2.8,7.9-2.4,12-1.5c2.6,0.6,5.1,1.5,7.5,2.6c7.7,3.9,15.4,6.3,24.3,5.1c6.2-0.8,8.4,1.5,10.3,7.7
	c2.9,9.3,12.1,12.6,20.6,7.4c2.4-1.5,5.1-2.4,6.7-5c5-2.4,9.3-6.3,14.9-7.5c4,1,7.8,2.7,12.2,2.3c3.6-0.3,5.6-1.5,3.8-5.3
	c-1.5-3.3,0.1-3.8,2.8-3.8c1.5,0,3,0,4.5,0c6.9-0.3,13.9-0.3,17.9-7.7c0.7-1.4,2.4-2.3,3.8-3.2c6.5-4.7,7.8-4.3,12,2.3
	c2.9,4.4,6.1,8.7,9.5,12.8c1.6,1.9,4,3.8,6.5,2.1s0.9-4.3-0.1-6.2c-2.3-4.5-3-8.6,1.1-12.7c2.7-2.7,5-2.9,7.8-0.6
	c1.9,1.6,3.6,3.5,6.3,3.6c12.1,2.7,24.1,0.3,36.1-0.3c2.1-0.2,3.6-1.5,5.1-2.8c1.4-1.4,3-2.6,4.7-3.6c1.6-1,3.8-0.5,4.8,1.1
	c0.1,0.2,0.2,0.3,0.3,0.5c1.3,2.6-1.2,2.3-2.5,3c-0.7,0.3-1,1.2-1.5,1.8c-3.1,10.5,0.8,19.2,10,22.6c3.3,0.2,6.6,0.2,10.7,0.1
	c-2.3-1.6-4.3-1.9-6.2-2.7c-0.6-0.3-1.2-0.6-1.8-0.8c-8.3-3.9-8.3-3.9-2.8-11.2c2.1-2.6,4.4-3.3,7.8-2.2c10.1,3,20.6,4.4,31,5.4
	c3.1,2.6,4.8,6.2,6.8,9.6c0.9,1.5,1,4,3.6,2.8c2.6-1.2,2.8-3.5,1.9-5.9c-0.2-0.7-0.6-1.2-1.2-1.5c-6.5-2.4-5-8.3-6-13.2
	c0.6-1.3,1.5-2.7,2.8-2.6c8.1,0.7,16-5.3,24.4,0.6c5.2,3.7,6.8,6.2,2.4,10.8c-2.2,2.3-2.6,3.8-0.1,5.9c0.9,0.7,1.5,1.8,1.7,2.9
	c0.2,5,2.2,5,6.1,3c9.2-4.9,16.1-2.8,22,6.3c1.1,3.2-0.4,4.9-3.4,5.7c-8.6,0.3-17.2-1.5-25.8-1.2c-2.5,0.1-5-0.1-6.8,2.2
	c-1.5,1.6-3.5,1.5-5.4,1.7c-1,0.1-2.1,0.1-2.3,1.4s0.8,1.7,1.6,2.2c1.5,0.9,3.5,0.9,4.8,2.3c0.3,0.4,0.5,0.8,0.6,1.3
	c-0.1,1.9-2,2.9-2.6,4.9c3.2,0.8,6.5,0.8,9.6-0.2c9.6-1.3,18.2-5.3,26.1-10.7c5.5-0.9,7.5-5.7,10.7-9.2c4.1-0.9,6.7-0.1,6.2,4.9
	c0,1.2,0.7,2.3,1.7,2.8c1,1.2,0.5,2.4,0.2,3.7c-1.5,6.1-1.2,12.4,0.7,18.3c0.7,1.3,1.3,2.6,2,3.9c-4,4.8-9.3,3.6-14.3,3.1
	c-3.3-0.3-6.6-0.8-9.8,0.4c-1.7,0.6-3.8,1-3.8,3.3s1.3,3.7,3.1,4.8c2.3,1.4,5,1.6,7.5,2.6c2.5,0.9,4.8,2.2,6.8,4.1
	c1.4,1.3,3.3,2.4,4.8,0.6c1.7-2-0.4-3.2-1.7-4.4c-2.5-2.4-6.5-4.3-3.2-8.9c3.8-1.4,6.8,0.4,9.7,2.6c6.8,6,13.8,11.8,22.9,13.9
	c3.8,0.4,6.9,2.4,9.7,4.7c5,4.1,4.1,9.3,2.4,14.5l-1,4.9c0.3,4.9,4,6.2,7.7,7.7c4.5,1.8,9.5,0.2,14,2c1.2,2.2-0.8,2.9-1.8,3.9
	c-1.3,1.3-3,2.1-4.3,3.4c-2.8,2.9-2.4,5.1,1.2,7c7.6,4,19.7,2.2,25.1-4.4c5.2-6.2,11.1-11.9,17.4-16.9c1.5-1.3,2.8-2.9,3.6-4.7
	c6.9-0.8,13.8-0.5,20.6,1.1c5.8,1.4,12.1,2.7,18.4,2.9c5.4,0.1,8.1,2.8,8.4,8.3c0.1,1.3,0.4,2.6,0.6,3.9c0.2,1.5,0.6,3.2-1.4,3.6
	s-3.2-0.3-3.7-2.4c-0.4-1.9-0.5-4.2-3.7-3.1c-2.6,1-3.7,2.8-3.1,5.4c0.5,3.3,2.3,6.4,4.9,8.5c6.1,4.5,7.6,10.5,6.4,17.6
	c-0.3,2.3-0.4,4.7-0.4,7c-1.9,0.6-2.8-1-3.9-2c-3.8-7.3-10.3-13.1-12.6-21.3c-0.3-1.1-0.9-2.2-1.1-3.3c-1.2-6.1-2.5-6.8-8.4-4.6
	c-1.9,0.6-3.6,1.6-5,3c-2.2,2.2-4.7,1.1-7,0.6c-5.1-1.2-5.1-1.3-9.7-0.4c6.7,2.9,14.3,2.8,18.9,8.9c1.5,1,4.7,1.1,3.5,3.8
	c-0.9,2.1-3.4,2.4-5.7,1.8c-2.7-0.7-6.3-3.1-7.9-0.9c-1.8,2.4,1.6,5.2,2.8,7.8c4.3,9,7.9,17.9,5.4,28.3c-0.9,3.5,3.1,5.6,7.3,4
	c1.5-0.6,3-3,4.7-0.6c1.5,1.9,1.4,4.6-0.2,6.5c-4.2,5.8-3.8,7.2,2.1,11.3c4.1,2.9,9.4,3.5,13.1,7c2.5,7.1-0.6,12.9-4.5,18.4
	c-2.5,4.2-3.7,8.2-0.1,12.6c1.3,1.9,2.2,4.1,2.5,6.4c0.1,1-0.1,2.1-0.7,2.9c-2.7,0.9-5.5,0.9-8.2,0.3c-0.3-0.2-0.5-0.5-0.6-0.8
	c-1.2-3.6-0.9-9-6.2-9c-6.4-0.1-13.1,0-18,5.4c-1.6,1.7-2.7,3.8-4.4,5.4c-4,3.7-8.1,3.5-11.7-0.6c-2.1-2.4-3.6-5.2-5.7-7.6
	c-3.3-3.7-6.3-3.5-8.9,0.5c-1.9,3-4.7,2.8-6.6-0.5c-1.5-2.6-1.1-5.5-1.2-8.3c-0.1-1.8,0.1-3.9-2-4.8c-2.2-0.9-3.2,1.1-4.3,2.5
	c-2.5,2.9-5.2,5.6-8,8.3c-2,2-2.7,3.7,0,5.7c4.5,3.3,7.2,7.8,9.1,12.8c1.7,4.4,4.1,8.4,7.1,11.9c6,6.6,13.7,9.7,22.3,11.3
	c5.5,1,11.3,1.1,16.7,2.8c1.6,0.5,3.2,0.3,3.3-1.8c0.1-1.7-1.2-2.4-2.7-2.2c-3.3,0.3-5.6-1.6-7-4c-2.6-4.6-6.2-9-5-14.9
	c6.1-1,12.2-2.6,18-4.8c1.4-0.6,2.9-0.7,4.3-0.1c2.7,2.9-0.3,7,2.2,9.9c0.7,3.3,4,5.7,3.8,9.4c-0.2,1.3-0.3,2.4,1.6,2.2
	c3.4-0.4,6.5-1.1,7.7-5.1s4-7.3,5.5-11.2c4.3-3,2.8-7.4,2.8-11.5c1.5-2.7,0.3-5.6,0.6-8.4c0.4-2.1,1.8-3.8,3.8-4.5
	c2-1.1,4.6-0.4,5.7,1.6c0.2,0.4,0.3,0.7,0.4,1.1c1.7,4.7,3.4,9.4,6.4,13.5c3.7,5.1,8.7,7.7,15,7.1c2.4-0.2,4.5-1.5,5.9-3.4
	c0.8-1.1,1.8-2.7,3.6-1.6c1.8,1.1,0.7,2.6,0.5,4c-0.3,3.5-2.3,6.7-5.3,8.6c-2.8,1.9-3.8,4.4-3.7,7.6c0.2,8.4-1.6,16.9,1.7,25.1
	c0.9,2.5,2.1,4.9,3.4,7.2c1.3,2.1,1.7,4.4-0.5,6.4s-4.3,1.1-6.3-0.4c-0.8-0.6-1.6-1.3-2.3-1.9c-1.9-1.6-3.1-1-3.2,1.4
	c-0.1,3.6,0,7.3,0,11s-0.1,7.2-1.6,10.7s-0.6,7.6,2.4,10.1c8.1,6.3,8.6,14.4,5.9,22.9s-2.7,16.9-2,25.6c0.8,10.5-0.4,20.6-7.7,29
	c-2.2,2.5-2.9,5.9-4.1,9c-1.2,1.4-1.4,3.2-2.5,4.7c-3.6,4.6-3.5,4.7,2.5,5.5c0.5-0.1,1-0.2,1.5-0.3c3.2-0.7,6.9-2.6,9.2,0.8
	c2,3.1-0.8,5.9-2.4,8.6c-1.6,2.5-3.7,4.7-6.2,6.4c-6.2,4.4-7.5,4.3-13-1.2c-1.1-1-2.5-1.6-4-1.5c-2.2-0.8-4.4-2.7-6.5,0.1
	c-2.3,4-5.8,4.5-10.3,3c2.3,4.1,5.3,3.3,8.4,2.9c5.3-0.6,6.6,0.7,5.6,5.3c-2.4,3.6-4.9,6.1-9.7,3.1c-2.5-1.5-5.2,0.1-7.5,1.5
	c-4.9,3-7.7,7.8-9.8,12.8c-1.3,3.3,1.3,6.9,5.6,8.3c2,4.1,2.2,8.1-0.7,11.8c-0.9,1.4-1.2,3.1-0.7,4.7c0.2,2.7-1.4,4.1-3.5,5.3
	c-2.7,2.2-6.5,2.3-9.3,0.3c-3.4-2.1-7.1-0.8-10.7-1c-2-0.1-4-0.1-6-0.1c-0.2-5.4-1.5-6.8-7.1-7.7c-3.8-0.6-7.5,0.3-11.1,1.2
	c-4.6-0.7-9.1-2.4-13.9-1.3c-5.3-0.4-9.8-3.2-14.8-4.5c-0.8-0.6-1.5-1.4-1.8-2.4c-0.7-2.4,0.5-4.2,1.7-6c2.5-3.8,5-7.5,7.5-11.2
	c1.4-2.1,3.1-4.4-0.1-6.3c-2.7-1.6-5.5-3.6-8.4,0c-3.5,4.5-7.5,8.4-13.1,10.5c-2.5,0.9-2.1,2.3-0.5,4.1c2.7,3.1,5.7,6,7.2,10
	c0,0.8-0.3,1.5-0.8,2c-5.9,1.9-11.3,5.8-18,4.5c-3.7-1.5-6.8-4.6-11.2-3.6c2.4,1.7,4.2,4.2,7.1,5.3c3.4,2.5,5.4,6.1,7.7,9.5
	c2.1,3.2,4.9,5.7,7.6,8.4c2.8,2.9,4.1,6.7,6.4,9.9c1.9,2.4,6.6,3,4.9,7.6c-4.5,2.2-9.1,4.4-13.7,6.7c-4.2,2.1-7.9,1-11.4-1.5
	c-3.5-4-4.3-0.2-5.8,1.9c0.3,5.4-3.3,9.1-6.1,13.1c-2.9-0.5-2.1-2.9-2.2-4.7c-0.2-2.8-0.3-5.5-2-8c1,3.1,1.4,6-0.4,9.2
	c-2.7,4.5-1.8,5.7,3.6,6.3c4.2,2.8,3.8,5.9,0.4,9c-3.2,2.9-6.6,5.6-9.9,8.4c-6.3,5.3-11.3,11.3-11.6,20.1c-0.1,2.5-1.6,3.9-3.9,3.5
	s-4.7,2.8-6.5-1.6c-3.1-7.4-9.3-12.1-16.5-15.3c-5.1-2.3-7.3-1.1-8.7,4.4c-3.7,14.2-7.1,28.4-8.5,43c-1,11.9-3.6,23.7-7.8,34.9
	c-5.6,14.8-6.6,30.2-7.4,46c-1.1,20.5,9.1,34,22.9,46.3c9.9,8.8,21.7,14.3,34.5,17.4c23.6,5.6,44.3,17,63.8,31
	c30.6,22.1,63.7,39.2,100.3,49.1c13.1,3.5,26.5,4.5,39.9,5.7c15.5,1.4,30.7,4.3,45,10.4c11.9,5.1,23.9,5.2,36.2,3.3
	c2-0.3,3.9-0.6,5.9-0.7c6.4-0.3,12.4-0.8,16-7.6c1.4-3.3,5.4-4.5,8.4-6.5C1081.2,958.7,1079.1,964,1080,969z M357.9,378.6
	C357.9,378.6,357.9,378.6,357.9,378.6c-0.2-0.5-0.6,0.6-0.1,0.1C357.8,378.7,357.9,378.6,357.9,378.6z M120.8,236.6
	c5.2,0.5,9.8,3.3,15,3.3c4.1,0,5.6,2.4,6.2,5.8c2.1,11.9-5.6,17.7-15.8,16.4c-3,0.7-3.7,2.9-2.5,5.3c2.6,4.7,1.4,7.9-3.3,10.1
	c-0.7,1.5-0.4,3.3,0.6,4.6c3.7,8.1,6.1,16.2,2.2,24.9c-0.7,1.4-0.4,3.1,0.8,4.1c3,1.5,4-0.7,5.4-2.6c1-1.4,2.1-4,4.4-1.2
	c0.1,1.2,0.1,2.4,0.2,3.5c0.4,2.9-0.1,6.2,3.6,7.4s5.8-1.5,7.7-4c3.4-4.5,7.2-8.5,11.5-12.1c2.6-0.8,5-2.3,7.6-3.1
	c1.5-0.7,3.3-0.5,4.7-1.5c1.4-2.7,4-3.9,6.4-5.3c3.1-5.7,7.7-8.1,14.2-7.9c4.9,0.1,5.9-1.4,4.5-6.2c-0.9-2.6-0.4-5.4,1.4-7.4
	c1-0.9,1.6-2.2,1.6-3.5c-1.8-2.4-4.6-3.6-6.8-5.6c-1.6-1.6-4.2-2.6-3.6-5.4c0.6-2.8,3.5-2.5,5.7-2.9c0.8-0.1,1.6-0.2,2.4-0.4
	c4.2-1.5,8.6-2.7,10-7.8c0.6-4.9-4-5.5-6.6-7.6c-4.9-4-4.9-5.2,0.5-8c0.6-0.4,1.1-0.8,1.4-1.4c0.4-2.6-1.9-2.3-3.3-3
	c-2.7-0.2-5.3,0-7.9,0.6c-7.2,1.9-14.4,3.7-21.6,5.6c-4.3,1.1-8.5,1.4-12.4-1.3c-1.5-1.6-3.3-1-5.1-0.5c-2.6,0.8-5.1,1.7-7.5,2.8
	c-1.6,0.6-3.3,1.5-5.1-0.8c3.7-2,7.2-3.3,11.1-3.3c2.2,0,4.7,0.6,6.6-1.3c1.1-1.1,2.6-1.4,4-1.9c2.3-0.9,2.4-2.5,1.7-4.5
	s-1.9-3.4-4.1-2.6c-7.9,2.8-16.3,2.8-24.4,4.4c-4.9,1-9.5,2.9-12.9,6.9C116.6,232.4,117.3,236.3,120.8,236.6z M700.5,517.7
	c0.3-1,0.4-2,0.5-3c-0.6-3.8-0.8-7.8-3.6-10.9c-1.3-1.6-3.5-2.2-5.4-1.5c-2,0.6-2.1,2.4-2,4.1c0.1,2.7-0.7,5.2-1.5,7.7
	c-1.1,4,1.7,10.4,4.8,10.8C698.5,525.6,699.1,521.1,700.5,517.7z M250.1,1004c3.1,2.8,3.5,8.3,8.8,9c-2.8,2-6.2,3.1-8.9,5.4
	c-2.8,2.1-5.1,1.1-6.8-1.5c-7.3-11.1-19.6-13-30.7-17.1c-3.8-1.4-7.2,0.5-8.2,4.5c-2.8,11.8-11.5,13.8-21.7,14.1
	c-5.3,0-10.7-0.5-15.9-1.4c-8.1-1.1-16.3-0.6-24.2,1.5c-12.3,3.1-24.5,6.6-37.1,7.9c-9.2,1-18.4,2-27.8,1.1
	c-19.3-1.8-38.2,0.7-56.2,8.4c-5,2.2-10.2,4-15.5,5.7c-1.8,0.6-3.7,1.7-5.7,0.3v-37c13.1-5.9,27.7-7.8,41.9-5.5
	c10.9,1.7,21.4,1.2,32.2-0.4c14.1-2,28.3-3.3,42.5-5.1c24.5-3.1,48.2-9.4,70.8-19.7c10-4.6,20.6-7.4,31.3-10c4.2-0.9,8.1-3,11.2-6
	c18.6-19.1,41.4-31.5,65.5-42c11.3-4.8,22.4-10.2,33.1-16.2c2.6-1.5,5.3-3,8.5-1.6v-0.1c-10.8,10.6-23.4,19.2-37.2,25.4
	c-15.3,6.9-30.6,13.8-43.5,25c-3,2.6-5.8,5.5-8.7,8.2c-3.2,1.9-6.5,3.4-10,4.6c-14.4,5.7-27,15.2-41.8,20c-2.5,0.8-4.8,2-7.3,2.8
	c16.9,0,32.3,5.4,47.1,12.9C240.3,999.7,245.2,1001.8,250.1,1004z M373.8,726.2c-0.2-5-20.4-38.4-22.5-43.5c-2-5.2-0.9-7.6-0.9-7.6
	c5.5-2.4-0.6-35.4-2.5-40.9c-0.5-1.1-1.4-1.9-2.5-2.3c-5.1-2.3-10.2-4.2-15.9-2.2c-3.2,1.2-3.7-0.6-3.8-3.2
	c-0.2-3.6-0.5-7.3-0.7-10.9c-0.3-4.4-2.6-6.4-6.9-5.7c-15.3,2.7-30.6,5.4-40.4,19.7c-3.9,5.7-9.6,4.7-15.4,4s-8-3.3-8.7-9.4
	c-1.3-11.6-6.7-21.8-14.6-30.6c-5.3-0.8-2.4,2.3-2.1,4.3c1.2,3.9-3.8,11.5-7.7,11.8c-0.7,0-1.3-0.3-1.7-0.8
	c-3.9-4.9-9.3-7.2-15.2-8.3c-1.8-0.3-3.4-1.3-3.1-3.3c0.4-3.4,0.7-6.9,4.2-9.1c7.1-4.3,14.1-8.8,21.2-13.2c0.4-0.3,0.9-0.5,1.3-0.8
	c8.4-4.8,9.8-4,10,5.5c0,2,0.1,4,0,6c-0.3,3.5,0.4,6.3,4.6,6.9c3.9,0.5,7.1,0.4,9-4c4.2-9.6,6.2-19.7,7.2-29.9
	c0.9-8.8-2.9-13.8-11.9-17.3c-5.9-2.3-11.8-4.7-15.3-10.6c-0.3-0.6-0.5-1.2-0.7-1.8c-0.4-0.4-0.3-1,0.1-1.4l0,0
	c0.9-0.5,2-0.6,2.9-0.1c4.3,1.8,8.1,0.5,11.9-1.5c3.5-1.8,6.9-4.2,11.3-3.1c6.9,3.6,9.4,9.8,10.2,17.1c0.8,6.9,1.3,13.9,6.4,19.4
	c2.6,3.9,6,7.1,8.6,11c1.8,2.8,3.6,5.7,4.3,9s2.3,3.5,5,2c2.8-1.7,5.8-3.2,9-4.4c7.8-2.9,13.9-1,19,5.5c2.7,3.5,4.1,7.6,5.5,11.7
	c1.9,5.6,4.7,10.9,5.4,16.4c0.3,1.2,1.1,0.2,0.6,0.6c-1.4,1.1-1.2-8.3,0.2-11.2c1.7,3.5,1.2,7.2,0.8,10.7c-0.4,4.2,0.9,7,4.3,9.2
	c2.1,5.2,5,10.2,8.4,14.7c5.1,6.5,7.4,13.6,6.2,21.9c-0.6,4.1,1,7.9,2.5,11.6c3.5,8.3,7.4,16.4,10.8,24.7
	c4.4,10.8,7.2,22.2,8.1,33.8c0.6,8.6,3.7,16.5,6.5,24.5l1.1,4.1c-0.4,4.6,2.1,8.5,3.2,12.7c0.7,2.8,2.2,5.6-0.2,8.3
	c-4.5-5-6.3-11.3-8.4-17.3C382.5,758.8,374,731.2,373.8,726.2z M143.1,525.8l-12-4.9c-2.2-1.7-5.8-1.8-5.9-5.7
	c1.8-1.8,5.8-2.2,5.7-4.9c-0.1-3.3-4-3.3-6.5-4.5c-3.3-1.6-6.1-4-8.2-7c-1.6-2.3-3.1-4.7-4.5-7.1c-5.7-9.3-5.6-9.3,3.3-15.7
	c7.7-5.5,10.9-13.1,9.3-22.5c-0.4-2.4-0.8-4.9-1.2-7.3c3.1-3.7,6.3-1.1,9.5,0c3,0.9,5,3.7,4.8,6.8c0.1,7-0.1,14,0.1,20.9
	c0.1,3.8,0.9,7.3,6.2,8.2c-1.7-2.1-3.1-3.9-1.4-6c2.3-2.1,5-3.8,8-4.9c1.9-0.5,3.9,0.2,5.1,1.7c0.5,1,0.9,2.1,1.2,3.2
	c2.2,7,4,8.4,11.1,7.2c4.4-0.7,7.3,1.1,9.9,4.2c2.4,3.4-0.2,5-3.1,7.1c2.2,0.3,3.6-0.4,5.2-0.5c3.5-0.3,6.3,0.7,7.2,4.5
	c0.8,3.4-1.3,5.9-5.5,6.8c-0.8,0.2-1.6,0.3-2.5,0.3c-0.5,0-1-0.1-1.4-0.3c-4.7-2.6-10.5-2.8-14.6-7.1c-1.9-2-4.4-0.1-6.2,1.5
	c-6.7,5.8-10.8,12.9-11.5,21.9c0,1-0.2,2-0.5,2.9C144.5,525.2,143.9,525.7,143.1,525.8z M143.1,525.8l1-0.8c2.5-1.5,4.9-0.2,7.2,0.3
	c4.9,1,9.7,2.3,14.6,3.1c3.8,0.6,4.6-0.6,3.1-4.1c-3.1-7.1-2.8-9,3.5-13.2c2.6-1.7,2.6-5,5.3-6.2l0.4,0.3c0.8,0.7,0.9,1.7,1.3,2.6
	c2,4.8,5,5.7,9.4,2.8c1.9-1.3,3.7-2.8,5.9-3.5c1.8-0.6,3.7-1.6,5.6,0c-0.4,7.8-3.5,15-5.4,22.4c-2.3,3.2-4.8,6.3-7.5,9.1
	c-5.8,4.4-7,7-5.1,11c2.6,5.3,7.4,6.7,13,3.3c7.4-4.5,14-10.2,20.9-15.3c3.2-2.3,6.8-4.3,8.9-7.8c0.5-0.1,1,0.1,1.4,0.5
	c1.1,1.8,1.3,4,0.6,6c0,0.3,0,0.5-0.1,0.8c-1.4,2.8-4,4.3-6.4,6.1c-3.5,2.6-5.8,5.8-6,10.3c-0.3,5-4.5,6-8.1,7.5
	c-3.2,0.1-6.3-0.9-8.8-2.8c-7.7-0.6-13.2,3.3-17.9,8.8c-2.6,3-5.2,6-7.9,8.9c-1.1,1.2-2.2,2.9-4.1,2c-1.4-0.7-1.6-2.4-1.6-3.9
	c-0.1-2.6-0.6-4.9-3.2-6.2c-1.9-0.3-3.8-0.2-5.7,0.1c-2.8,0.3-5.5-0.2-7.2-2.8c-0.9-1.9-2-3.8-2.8-5.8c-2.5-6.2-2.1-7,3.9-10.2
	c5.1-2.7,5.9-5.4,2.9-10.4S146.5,530.3,143.1,525.8z M368.8,881.9l4.1,0.1c-0.9,6.3-5.9,8.9-10.6,11.8c-2.1,0.5-4.4,1-5.6,2.9
	c-2.8,4.5-6.9,5.1-11.5,4.3c-1.2-5.8-5.4-1.8-8.2-2.5v0.1c3.4-4.3,8.5-5.6,13.2-7.3C356.8,888.7,363.2,886.2,368.8,881.9z
	 M926.9,337.1c0.6,4.4,3.5,9.4-3,12c-4.3,2.9-7.2,7.3-10.8,10.9c-1.4,1.4-2.6,3.6-5.2,3.1c-0.1-3.6-4-5.5-3.9-9.2
	c5.8-2,6.3-7.8,8.8-12.2c2.7-1.4,6.5-0.5,8.5-3.6C923,336.5,924.7,335.2,926.9,337.1z M289,169.1c-0.9-2.3-1.9-4.5-2-6.9
	c0.3,0,0.7-0.1,1-0.1c2.3-0.1,5.6-2.9,6.5,1.4C295.2,167.1,292.2,168.4,289,169.1z M290,112.9l-1.1,3.6c-4.6,3.4-6.7,7.9-7.7,13.7
	c-0.8,4.9-4.3,8.9-8.4,11.8c-3.3,1.8-7.1,2.5-10.8,2.1c0-4.3-1.8-6.3-6.3-5.1c-1.2,0.3-2.6-0.3-3.9-0.5c-6.9-1.3-13.3-1.1-16.5,6.7
	c-0.2,0.4-0.8,0.6-1.2,0.8c-2.4-0.9-4.7-2.2-8.2-2.2c6.2-7.5,13.8-13.7,22.4-18.4c11-6.3,23.2-10.2,35.9-11.5
	C286.1,113.7,288,113.2,290,112.9z M783.9,145.1c-5.2-7.1-3.2-14.6-0.9-22.1c2.6-6.3,7.9-9.7,14-11.8c3.3-1.2,5.9-2.9,6.7-6.6
	c0.6-3,2.3-5.3,5.7-5.3s6.8,0.6,7.8,4.7c0.6,4.8,1,9.6,2.8,14.2c0.9,1,1.7,2,2.4,3.2c1.2,2.3,0.7,4.4-2.1,3.8
	c-8.8-1.8-16.5,1.7-24.6,4c-1.7,0.5-3.5,0.8-5.3,0.9c-6.6,0.4-6.5,0.4-6.4,7.1C783.9,139.8,783.9,142.4,783.9,145.1z M871,602
	c-0.5,1.4-1.1,2.7-1.6,4.1c-2.1,5.4-5.4,7.3-11.2,6.5c-3.4-0.5-6.8-1.1-10.3-1.6c-7.8-1.1-13.6,1.8-17,9c-3.8,1.5-7.1-0.3-10.6-1.2
	c-2.1-2-5.1-3.1-6.9-5.5c0.8-6.1,4.8-9.5,9.9-12.2c3.4-0.7,3.9-4.1,5.7-6.3c2.8,0.4,3.3,3.5,5.5,4.7c7.3,2.8,14.9,2.5,22.5,1.8
	c3.6-0.4,7.2-0.6,10.8-0.6C869,600.6,870.2,601.1,871,602z M857,190c-2.7,1.2-3.7,4.8-7.1,5.1c-5-2.6-5-2.6-7.2,2.2
	c-1.5,1.4-4.2,0.8-5.7,3.1c3.5,0.5,4.3-2.4,6.2-3.6c2-1.2,4.3-1.4,6.5-0.8c0.1,6-4.9,7-8.8,9.1c-6.5,0-13.3,0.7-19-3.1
	c-2.2-1.5-6.3-2.9-2.9-6.9c5.2-0.3,8-3.5,9.8-7.9c2.8-6.8,2.8-6.8,10.2-5.1C845.5,183.5,851.7,185.7,857,190z M644.2,85
	c-12,3.6-24,4.6-36.1,0.3c4.8-0.1,9.6-0.1,14.5-0.3s6.1-1.9,5.2-6.7c-0.5-2.8-1.4-5.5-1.7-8.3c-0.8-6.6,4.4-10.5,10.7-8.5
	c0.9,0.3,1.8,0.8,2.7,1.3c9,4.8,9,4.8,2.1,12.1C637.4,79.3,638.3,82.4,644.2,85z M368.8,881.9c4-5.2,9.4-8.8,14.3-13
	c8.1-6.7,15.1-13.9,16.7-25.4c1.4-9.9,6.4-19.2,5.3-29.6c0.7-0.6,1.7-0.7,2.5-0.3c3.1,4,1.5,8.4,1.4,12.7c-1.5,4.3,0.3,8.5,0.7,12.7
	c0.5,4.9-0.5,9.1-3.5,13c-4.7,4.2-8.5,9.3-12.6,14.1c-6,7-12.6,13.2-21.3,16.8C371,883,369.8,883.1,368.8,881.9z M57.1,392.9
	c0.5,5.5-1.3,11.2,2.1,16.3c0.7,0.8,1.1,1.8,1.1,2.8c-0.3,4.6,1.9,7.2,6,9c3.5,1.6,3.6,4.8,1.9,8.1c-1.4,2.8-2.2,5.9-2.2,9.1
	c0.2,3-1.3,5.8-3.8,7.5C57.8,428.1,49.7,411.4,57.1,392.9z M121.1,277v5c-9.7-6.5-12.9-15.9-12-27c0.4-5.8,3.3-7.6,9-6
	c1,1.5,1.5,3.4,1.5,5.2C119.3,261.8,119.8,269.5,121.1,277z M505.2,102.9c3.4,0.9,6.5-0.8,9.8-0.9c1.8,0,2-1.3,2-2.8s-0.4-3,0.9-4.2
	c0.3,2.4-0.8,5.2,2.2,6.8c-4.8,2.9-9,6.9-14.9,7.5C506.1,107.3,506.1,104.9,505.2,102.9z M454.1,313.2c-10.1,4-20.5,3.3-30.9,1.4
	c-1.9-0.3-3.5-0.7-5.2,0.5c-4.3-2-4.1-7.2-7.2-10.1c-6.9-11.7-4.4-22.8,2.1-33.6c1.5-2.4,4.1-2.5,6.4-3.4c3.3-1.4,4.5-4.2,5.3-7.4
	c0.5-1.9,0.7-3.9,1.4-5.8c0.9-2.8,2.4-2.4,3.8-0.5c1.4,2.1,2.3,4.5,2.4,7c0.9,10.5,6.5,17.7,15.5,22.8c4.3,2.4,9,4.3,12,8.6
	c0.9,3.3-1.8,5.2-3,7.6C453.8,304.3,454.6,308.9,454.1,313.2z M760.8,499.9c-11.8,11.6-19.3,25.1-18.1,42.3c-1-1.1-0.8-2.5-0.8-3.8
	c-0.2-6.5-4.8-10.1-11.9-9.3c-1.4-3.8-5.5-3.8-8.2-5.7c-1.5-0.9-3.2-1.8-4.8-2.5c-2.3-1.6-6.7-1.1-6-5.8c4.9-4.4,5.3-9.4,1.2-16.3
	c-3.6-6-2.8-8.5,3.3-11.9c1.6-0.9,3.1-1.4,4.5,0s1,3,0,4.5c-2.8,4-3.5,9.1-1.9,13.6c0.6,1.8,1.2,3.9,3.7,4.1
	c1.1,0.8,1.2,2.3,2.4,3.4c3.5-2.9,1.4-7.1,2.7-10.5c1.8-2,2.1-4.4,2.1-6.9c4.7,1.8,3,5.6,2.9,9c-1.6,3-0.9,6.2-0.7,9.3
	c0.2,2.9,1.7,2.3,3.2,0.9c3-3,4.7-6.8,6.7-10.4c3.5-7.8,9.8-13.3,15.8-18.8c4.3-3.9,8.7-7.6,12.4-12.1c0.6-0.8,1.5-1.3,2.5-1.4
	c2.8,0.5,4.9,2.3,6.8,4.3c1.7,2.7,1,5.2-1.4,6.9s-2.5,3,0.2,4.1c3.7,1.5,4.4,3.4,1.8,6.6s-1,7.4-3.2,10.6l-3,1
	c-4.7,0-7.1-1.8-8.1-5.9c-0.3-1.3,0-2.6-0.8-3.8c-1.1-1-1.6-0.3-1.8,0.8C761.9,497.4,762.2,499,760.8,499.9z M500.9,327.1l4.1-1
	c1,0.7,0.9,2.1,2.2,3.1c2.4-2.7,3.1-6.3,5.3-9c2.6-2.5,5.6-4.6,8.9-6c4.4-2,6.2-0.5,6,4.5c-0.1,0.5-0.2,1-0.4,1.5
	c-1.9,4.8-2.5,10-1.7,15.1c0.4,3.5,0.4,7,0.1,10.5c-0.1,1.6-0.1,3.2,0,4.8c0,3.7-1.5,5.9-5.6,5.4c-1.3-0.2-2.6-0.8-3.5-1.9
	c-0.4-1-0.8-2-1.2-3c-4.4-5.9-9.5-11.2-13.3-17.5C500.5,331.6,499.4,329.4,500.9,327.1z M362.1,893c-3.5,6.7-9.1,11.5-15.3,15.5
	c-3.6,2.4-5.2,1.3-5.7-3.4c1.8-0.9,3.2-2.3,4.2-4.1c0.4-0.5,1.1-1.5,1.3-1.4c5.5,2.4,7.6-2.1,10.6-4.9
	C358.4,893.4,360.2,892.8,362.1,893z M265,518c-3.5,0.6-5.9-1.3-7-4.2c-1.6-4.5-1.3-9.4-2.8-13.9c-0.5-1.4,0.9-2.3,2.3-2.7
	c7.5-2.1,7.5-2.2,4-9.2c-0.1-0.3-0.3-0.6-0.4-0.9c5-1.2,2.2-5.3,3-8c2.6,1.6,3,4.2,3,7c0,4.7,0,9.3,0,14c-0.1,5.9,2.4,10.1,7.6,13
	c2.9,1.6,6.3,3.3,2.9,7.5c-0.7,0.9-1,2.3-2.4,2.2c-1.8-0.1-1.7-1.7-2-3c-0.4-2.4-2.3-4.2-4.7-4.6C266.4,514.8,265.3,516,265,518z
	 M259,428c2.3,1.4,1.3,4.4,3,6.1c3.7,1,7.5,1.9,7,7c0,1.5,0,3,0,4.5c-0.2,5.3-2.6,7.4-7.7,6c-3.1-0.8-5.8-0.7-8.3,1.5l-5-7l0.6-0.6
	c7-2.2,7-2.2,7-9.6c-0.1-1.8,0-3.6,0.3-5.4C256.3,428.9,256.5,426.9,259,428z M926,470c-2.3,1.8-5.1,1.9-7.8,2.1
	c-4.5,0.3-8.3,1.9-9.3,7c-5.4-4.5-4.4-13.9,1.9-17.4c2.3-1.3,4.7-2.4,7.1-3.6c1.6,2.7,3.7,5,6.1,7C925.4,466.2,927.3,467.6,926,470z
	 M907.9,363c3.2-2.4,5.9-5.2,8.3-8.4c1.9-2.7,4.2-5.2,7.8-5.6c-0.7,5.6-4.5,9.9-6.6,14.9c-1.3,2.9-6.6,2.7-10,2.7
	C905.2,366.5,906.9,364.2,907.9,363z M849.1,497.1c-1.4,4.6-2.8,9.2-4.3,13.9c-2.4,0.4-3.7-1.1-4.7-2.9c-0.9-1.2-2.1-2.2-2.1-3.8
	c0-2.4-0.8-4.1-3.7-4.3c-2.4-0.3-4.7,1.3-5.2,3.7c-2.4,7.8-7,14.2-12.3,20.2c-0.2,0-0.3,0.1-0.5,0.1c-11.6,4.9-13.7,4.2-19.3-7.1
	c-3.6-4.8-3.7-10.7-5.2-16.2c0.5-4.6,3.2-4.8,6.7-3.4c1.3,0.5,3,1.5,4-0.3c0.8-1.5-0.9-2.3-1.7-3.2c-2.2-2.5-4.3-5-6.6-7.4
	c-1.5-1.5-3-3.3-1.3-5.7c0.7-0.3,1.4-0.2,2,0.3c5.9,3.5,10.7,1.3,15.3-2.8c2.4-2.2,4.2-5.2,7.6-6.3c4.1-3.9,6.5-0.3,9.1,2.2
	C835.9,480.1,842.5,488.6,849.1,497.1z"/>
<path class="st2" d="M391,776c0.7-5-1.8-9.3-3.1-14c-0.6-2.4-1.8-4.7,0-7c5.3,14.1,10.6,28.1,15.9,42.2c1,2.6,2.1,5.2,3.2,7.8
	c-0.4,3,2.8,5.9,0.1,8.9h-1.9C399.1,801.8,394.3,789.1,391,776z M681,828c0.1,1.6,0.9,3.1,2.1,4.1c0.9-1.5,1.1-4,3.9-3.2
	c-0.3-5.6,3.5-10.7,9-12c-2.1-2.5-3.1-5.7-3-8.9C689.1,814.7,683.1,820.2,681,828z M889.6,965.8c-3.6-0.3-5.6,4.5-9.6,2.9l0.9,1.2
	c3.4,1.1,6.7,2,10,0C890.7,968.5,893,966.2,889.6,965.8z M250,1016.9c3.5,0.9,9.7-3,9.1,5.1c1.4-3,0.6-6-0.3-9.1
	C255.1,1012.5,252.7,1015.1,250,1016.9z M699,850v-28c-0.9,3.3-2.3,6.5-2.7,9.8C695.5,838,696.4,844.3,699,850z M407.5,832
	c0.9,6.8,2.9,13.8-2.5,19.8c2.6-0.2,3.7,1.2,4.4,3.6c1,3.3,0.3,6.6,0.6,9.8c0.2,1.8,0,4.1,3,2.7c2.2-14.1-0.9-27.6-5-41
	C406.4,828.5,407.3,830.2,407.5,832z"/>
<path class="st3" d="M280.9,560.2c-5.7-5.1-6.2-12.2-6.8-19c-0.6-7.2-3.3-13-9.1-17.3c-2.9-1.6-1.9-4-1.3-6.4c3.2-4.6,6-4.6,9.6,0
	c0.7,0.9,0.9,3.2,2.6,1.9s0.8-3-0.5-4.3c-0.7-0.7-1.6-1.2-2.4-1.7c-5.1-3.2-7.4-7.8-7.3-13.8c0.1-4.1,0.1-8.3,0-12.5
	c0-2.8-0.1-5.7-1.7-8.2c-7.4-7.1-9.1-16.5-11-26c0.9-3.1,3.4-3.2,6-3.1c7.8,0.3,7.8,0.3,8.9-7.6c0.1-0.3,0.2-0.7,0.3-1
	c1.8-2.4,3-5.3,5.2-7.5c3.8,5.4,4.6,11.6,3.6,17.9c-0.8,4.9,0,9.6,0.7,14.3c0.8,6,5.5,7.8,10.6,8.9c2.6,1.2,5,0.6,7.2-1
	c1.3-1.2,3-2,4.7-2.3c3,0.5,4.6,3.1,6.9,4.7c6.4,4.3,10.9,4.5,16.9,0.5c5.9-3.9,8-9.3,6.6-16.3c-0.6-2.2-1.3-4.4-2.4-6.5
	c-1-2.3-2.1-4.6-0.6-7.1c3.8-1.6,4.3-4.1,2-7.4c-1.9-2.5-3-5.5-3.1-8.7c0.4-4.3-1.2-8.8,1.4-12.8c0.2-5.3,1.1-10.3,5.2-14
	c3.1-2.8,0.6-6.8,2.6-9.8c6.3,17.4,4.7,35,1,52.6c-1.3,6.3-0.7,6.9,5.6,5c2.6-0.8,5.3-1.7,7.5,0.5c2.3,2.4,0.9,4.9-0.3,7.4
	c-9.5,19.3-8.9,39.5-5.1,60c2.1,11.4,5.7,22.6,6.4,34.3c0.1,2,2,3.1,2.2,4.9s0.3,4-1.5,4.9c-2.2,1.1-3.2-1-4.1-2.5
	c-4.8-8.8-7.6-18.4-11.3-27.7c-2-5-4.5-9.3-10.2-10.7c-4.1-2.9-4.1-3-0.7-6.5c4-4.1,2.8-9.5-1.6-12.9c-6.9-5.3-13.5-5.9-21-1.4
	c-3.4,2-7.5,2.7-11.5,3.1c-2.3,0.2-4.2,0.9-5.2,3.2c-1.1,2.7-0.8,5.5-0.3,8.3c0.1,0.7,0.1,1.4,0,2.1c-0.4,1.8-1.2,3.5-2.3,4.9
	c-2.2,2.7-2.4,5.3-0.3,8.2c1.5,2.6,1,4.9-1.3,6.8c-3.3,2.6-3.9,5.8-2.5,9.7c1.4,3.3,2.2,6.9,2.4,10.5
	C281.6,559.5,281.3,559.9,280.9,560.2z"/>
<path class="st4" d="M703.9,428.1H697c1.6-6.2,1.6-6.2-5.2-7.2c-5.5-0.9-7.5-3.8-6-9c2.6-8.7,0.2-16.7-3.3-24.5
	c-1.7-3.9-4.5-7.5-3.6-12.2c2.7-0.4,3.4,1.9,4.1,3.6c3.1,7.4,8.5,13.8,9.6,22.1c0.3,2.6,2.6,3.6,4.5,4.9c2.4,3.3,4.9,6.6,7.2,10
	C707.6,420.5,707.4,423.6,703.9,428.1z M625,374c-3.6-0.2-4.4-2.9-5.1-5.7c0.3-4.8,3.2-5.9,9.1-3.2c4.5,3.7,4.4,4.2-0.5,7.1
	C627.3,372.8,626.1,373.4,625,374z M635,414.9l-3,3.1c-0.4-2.5-2-1.1-3-0.8c-1.8,0.5-3.5,1.2-5.3,0.6c-1.1-0.4-2.3-0.8-2.5-2.1
	s0.7-2.1,1.8-2.7c2.6-1.4,5.3-2.7,8-4L635,414.9z M852,358c-4.4-3.5-6.1-8.6-8.2-13.4s-4.7-9.2-9.4-11.9c-3-1.7-2.3-3.3-0.3-5.4
	c3.7-3.8,8.1-6.9,10.8-11.7c0.9-1.5,2.8-2.1,4.4-1.3c1.6,0.6,2.7,2.1,2.7,3.8c0.1,3-0.1,6,0.3,9c0.2,1.8,1,3.8,3.3,3.8
	c2.6,0,2.1-1.8,1.8-3.6s1.1-2.2,2.5-2.3c3.5-0.7,7.1,0.9,9.1,3.9c1.6,2.3,3.2,4.7,4.9,6.9c3.4,4.3,6.6,4.5,10.3,0.5
	c2-2.2,3.4-5.2,5.7-6.9c5.5-3.8,12.4-5.2,19-3.9c4.9,0.9,5.4,6.1,5.2,10.6c0.3,1.7-0.9,2.6-2.1,3.5c-3.4,0.7-5.7,3.6-9,4.4
	c-3.1,0-5.8,1.3-8.5,2.3c-4.7,1.7-9.4,3-14.5,2.7c-2.4,1-5.1-0.3-7.5,0.8c-1.5,0.4-2.9,1.3-4,2.4c-0.8,1.2-1.5,2.6-2.4,3.7
	C861.7,361.3,858.1,363.4,852,358z M618.9,120.3c-3.3-1.8-7-2.6-10.7-2.1c-3,1.1-4.6-0.1-5.2-3.1c0-0.5,0-1-0.1-1.5
	c-2.2-9.9-1.3-10.9,8.6-9.3c5.4,0.8,10.7,2,15.9,3.7c9.8,3.5,16.2,10.8,21,19.4c1.4,2.5,2.1,6.3-2.8,7.2c-0.9,0.2-1.7,1.1-2.5,1.6
	c-2.8,3.6-7.4,4.5-11,6.8c-1.4,0.7-2.8,1.2-4.3,1.4c-2.7,0.2-5,1.8-7.7,1.8s-5.8-1.3-4.3-4.3c2.2-4.3,1.8-8.5,2.1-12.9l1.2-1.8
	c2-2.3,5.2-0.8,7.8-2.6C624.3,122.8,620.7,123,618.9,120.3z M867.9,454c-6,2.7-12,5.7-18.1,8.1c-11,4.4-16,1-21.6-9.9
	c-0.5-1.1-0.9-2.1-1.3-3.2c-3.3-2-7.2-1.3-10.8-2.4c-0.9-0.5-1.6-1.4-1.8-2.4c0.4-4.8,4.2-5.2,7.6-6.1c5.6-1.1,10.4,1.3,15.2,3.6
	c1.1,0.5,2.3,1.8,3.6,0.7c1.6-1.3,0.3-2.7-0.3-4c-0.2-0.5-0.5-0.9-0.7-1.3c-1.3-3-2.1-6.2-0.1-9c1.7-2.4,4.6-2.6,7.3-1.8
	c3.4,1,6.1,3.8,6.8,7.3c0.1,0.8,0.2,1.7,0.1,2.5c0.2,8.3,2.8,11.5,10.8,12.8c2.8,0.4,4.2,1.5,4.9,4
	C869.4,453.6,868.7,454.1,867.9,454z M815,405c-0.5,3.3-2.8,3.9-5.6,4c-3.2,0.2-6.5-1-9.5,0.8c-1.9,4.8-1.7,9.6-0.6,14.5
	c0.4,1.8,1.3,3.9-0.5,5.5c-5.2-3.1-10.3-6.5-15.9-8.9c1.3-6.2,5.1-11.1,8.9-16c3.3-4.3,6.8-8.6,10.2-12.8
	C802.7,400.1,807.3,404.2,815,405z M526.3,318.1c4.9-0.6,9.9,1,14.7-0.9c8.2-1.8,12.5-7.6,15-15.1c4.5-2.4,9.2-1.8,13.9-1.1
	c1.5,0.2,3.3,0.8,3,3.1c-2.8,0-5.8-0.6-7.9,2c-2.4,1.8-5.7,2.5-6.8,5.9c-6.7,0.8-10.6,4.7-12.1,11.1c-2.3,1.9-5.1,1.1-7.7,1.5
	c-3.8-2.4-7.9-4.2-12.3-5.5C526,318.7,526.1,318.4,526.3,318.1z M611,423c-2.1-4.5-0.6-9.1-0.7-13.7c0-5.4,5.7-6.2,8.6-9.4
	c5.3-1,9.8,0.8,13.8,4.1c-0.6,1.6-1.2,3.3-1.8,4.9c-0.8,2.1-2.8,2.6-4.5,3.6c-1.2,0.7-3.5,1-2.9,2.8c0.7,2,2.8,1,4.3,0.8
	c0.8-0.1,1.6-0.4,2.4-0.4c2.1-0.1,2.5,1.2,2.3,2.9c-3.3,6.3-6.7,8-13.6,7.1C616.6,424.2,613.3,425,611,423z M633.1,359.9
	c-0.8-4.9-3.5-8.5-7.3-11.5c-3.1-2.5-5.5-5.8-6.9-9.6c-2-4.8-1-6.7,4-7.8c1.6-0.3,3.3-0.5,4.9-0.8c2.7,6.5,5.4,13.1,9.2,19.1
	c0.9,1.4,1.4,3.1,0,4.6C635.3,355.7,635.8,358.9,633.1,359.9z M482.9,344c3,0.2,5.3-0.4,5.1-4.1c-0.1-1.7,1.5-2.5,2-3.9l3.9-6.2
	c6.6,3,7.4,6.6,2.2,11.3c-2.4,2.2-3,5.4-5.2,7.6C484.2,350,483.6,349.6,482.9,344z M462.8,889l4.6-0.3c4.8,3.3,9,7.1,10.8,13.9
	C470.9,899.8,466.4,895,462.8,889z M628.9,365.1c-3.1,0.9-7.7-2.4-9.1,3.2c-1.6-2.1-4.2-2.4-6.5-3.3c-1.3-0.5-2.5-1.2-2.3-2.8
	c0.3-1.2,1.4-2,2.6-1.9c5.3-0.2,10.5,1.1,15.1,3.8C628.9,364.4,628.9,364.7,628.9,365.1z M380.1,670.8c-0.3,1.9,0.3,4.5-3.1,4.2
	c-0.1-4.4-1.9-8.8,0.1-13.3C378.7,664.6,379.7,667.6,380.1,670.8z M556,195c-5.5-2.2-6-3.5-3-8.3c1.7-2.9,2.9-6,3.7-9.2
	c1.2-4.5,0.4-8.5-3.3-11.7c-1.2-0.9-1.7-2.5-1.2-4c0.5-1.3,1.9-2,3.3-1.6c11,2.4,19.5-3,27.9-8.9c3.5-2.5,7.1-4.8,10.7-7.3
	c5.6-2.1,8.3,1.8,11.1,5.4c1.4,1.7,1.7,3.9,2.9,5.6c1.8,2.4,3.8,4.6,5.4,7.1c2.9,4.4,2.1,6.7-3,7.8c-10,2.2-20,4.3-30.1,6
	c-4.4,0.8-6.6,2.6-6.4,7.1C571,191.6,563.6,193.4,556,195z M837.9,386c-3.2,2-5.9,4.1-10.4,3.3c-4.2-0.7-2.5,4.3-3.7,6.7
	c-2.2,4.1-5.4,7.5-9.5,9.8c-5.9-0.2-10.1-2.9-12.4-8.5c-0.7-1.7-1.2-3.5,0-5.2c3.2-2.7,7.8-3.5,10.1-7.5c0.8-1.5,2.1-2.5,1-4.4
	c-0.9-1.6-1.8-2.4-3.2-0.3c-2.8,3.9-10,6.6-14,4.9c-4.9-2.1-4-6.7-3.9-10.8c0.7-3.2,1.1-6.5,3.2-9.2c1.7-2.1,3.6-4,6.6-1.8
	c2.6,6.3,3.3,6.5,11.1,4c1.1,0,2.3,0.1,3.4,0.4c3.9,0.8,6.8-0.4,8-4.4c0.2-1.1,0.8-2.2,1.6-3l0,0c2.3-0.9,4.7-0.6,7.1-0.2
	c8.3,1.3,13.9,6,18,13c0.9,2.8-1,4.5-2.9,5.5C844.3,380.5,841.2,383.3,837.9,386z M347.3,321.2c-2.4,0.3-3.7-0.8-3.3-3.7
	c0.5-3.6-1.3-5.4-4.5-6.7c-3.9-1.4-7.7-3.2-11.2-5.4c-8.5-5.4-8.2-13.4,1.1-17.3c6.4-2.7,12-7.9,19.8-7.2c2.4,0.2,1.9-2.3,1.8-3.9
	c-0.1-2.8,0.2-5.6,3-6.8s5.5,0.2,7.8,2.1c3.8,3.2,5.1,7.7,6.1,12.2c0.5,2.4-0.7,4.2-2.6,5.5c-2.3,1.7-4.5,3.4-6.8,5.1
	c-7.7,6-8.8,9-6.2,18.4C353.8,318.7,352.2,321.2,347.3,321.2z M727.2,183.4c-1.8,0.1-3.6-0.8-4.7-2.2c-5.2-6-12-7.7-19.6-8.2
	c-3-0.2-8.4,2.9-8.7-3.1c-0.3-6.4,5.5-12.3,11-11.7c4.4,0.5,8.8,1.4,13.2,2.6c9.1,2.5,17.9,6.3,27.6,6.3c1.9-0.1,3.7,1.2,3.9,3.2
	c0.5,2.9-0.3,5.8-2.8,6.9C741,179.9,735.2,183.4,727.2,183.4z M264.1,305.6c-0.1,0.6,0,2.3-0.6,2.7c-5.3,3.4-4.1,8.6-4.3,13.5
	c-0.1,3.5-0.3,7-0.1,10.5c0.1,2.8-1.6,4-3.7,4.5c-6.6,1.7-16.9-3.5-19.4-10c-1.4-3.6-2.1-6.9,2.1-9.5c2.4-1.5,3-4.2,3.1-7
	c0.2-6.2,2.9-8.9,9.1-9.3c3.5-0.2,6.9,0,10.4-0.6C264.4,299.7,264,302.7,264.1,305.6z M526.3,318.1c1-3.6-0.2-5.1-3.7-3.2
	s-6.5,4-9.7,6.1c-1.5,1.2-2.2,0.3-2.9-1c-0.8-5.2-1-10.7-7.1-13c-3.6-3.3-3.6-4.5,0-8c3.3-3.5,6.6-7.1,10-10.4
	c2.4-2.4,5.3-2.5,7.3,0.4c4.3,6.5,8.5,13.2,9.7,21.1c1,7.3,0.9,7.3,8,7.1c1,0,2,0,3,0c-0.1,1.8-1.6,2.1-2.8,2.1
	C534.2,319.3,530,320.5,526.3,318.1z M405,259c0.6,8.8,3.8,10.9,10.6,10c1.5-0.1,3-0.1,4.5,0c-7.8,2.5-13.8,15.6-11.7,25.8
	c0.6,3.6,1.9,7.1,3.8,10.2c-0.8,2.6,1.6,6.4-2.4,7.9s-6-1.6-8.4-4c-0.7-0.7-1.5-1.3-2.3-1.8l0,0c-1.2-1.5,0.1-3.5-1-5.1
	c-6.3-7-6.2-16.9,0.5-23.9c2.7-2.9,5.3-5.6,4.4-10C402.2,264.7,400.5,261.2,405,259z M216,246.2c1.5,2.3,3.6,4.2,4.2,7
	c-2.4,1.9-4.4,4.3-7.6,5c-2.8,0.6-3.1,3-3.4,5.3c-0.2,1.5,0.4,3.5-2.1,3.6H197c-4.3-1-7-4.3-10.2-6.9c-3.4-2.8-2.2-6.6,2.2-7.6
	c3.4-0.7,6.9-0.5,10-2.4c2.2-1.3,4.2-2.6,5.1-5.2s-0.3-6.9,4.9-5.9c0.1,0.3,0.1,0.6,0.2,0.8C211.4,242.1,214.1,243.6,216,246.2z
	 M675.9,181.9c-8.4,4.9-16.7,10.2-26.6,11.6c-2.3,0.3-4.6,0.5-6.9,0.5c-1.2,0-2.9,0.6-3.3-1.3c-0.3-1.5,1-2.4,2.1-3.1
	c2.4-1.7,5.5-2.4,7.6-4.6c1.7-1.4,1-3.4,1.3-5.1c0.9-5.3,3.7-7.6,9-7c3.6,0.4,7.3,0.5,10.9,1C675,174.6,676.9,177.4,675.9,181.9z
	 M217.1,500c3.9,5.6,9.5,7.3,15.9,7.1c6.7,7.9,5.4,12.5-4.5,15.9c-4.5,1.5-9.7,2.3-9.4,8.9c-0.5,2.4-2.6,3.3-4.4,4.5
	c-4.9,3.4-10,6.5-14.4,10.6c-2.4,2.3-4.6,5-8.6,3c-3.5-1.8-6.1-6.8-5.5-10.8c0.1-0.5,0.4-0.9,0.7-1.3c2-3,4.4-5.7,7.1-8
	c1.1-1.5,2.5-2.7,4.2-3.5c7.8-4.4,10.4-11.1,9.2-19.8c-0.7-4.5-1.9-9.2,1-13.5C213.7,492.4,215.5,496,217.1,500z M323,439.1
	c1.3,2.9,3,5.6,5,8c-0.3,5.5,4.1,9.6,4.4,15c0.4,6.5-1.5,11.4-6.8,15.3c-5.6,4.1-11.2,4.9-17,1.2c-3.1-1.9-5.7-4.5-8.5-6.7
	c-4-1.5-3.2-4.4-2-7.4c0.5-1.1,1.9-2.4-0.1-3.3s-4-2.2-6.1-0.8c-1.6,1.1-0.9,2.7-0.2,4c1.2,2.2,2,4.5,2.4,7c0.5,4.1-0.5,5-5,4.5
	c-9.4-1-12.2-4.1-13.2-13c-0.6-4.4-0.6-8.9,0-13.3c0.9-5.5-1.3-10.7-2.8-15.9c-1.3-1.2-0.9-2.5-0.2-3.8c0.4-3.1,2.1-4.5,5.2-4.2l6,8
	c4.3,7.7,12,10.9,19.4,14.3c2.3,1.1,4,0.1,5.1-1.8c1.1-1.8,0.6-4.1-1.1-5.4c-2.2-1.9-5.9-3.4-3.3-6.9s6.5-2.5,9.9-0.6
	C317.1,435.3,320,437.2,323,439.1z M293.1,544.1c-3.8,6.6-3.5,7.5,3.8,12.1c0.2,0.6,0.4,1.2,0.8,1.8c1.3,1.7,2.2,3.6,0.8,5.4
	c-1.6,2.1-4,2-6.3,1.1c-3.8-1.6-7.8-2.8-11.1-5.4c-1.2-4.1-2.4-8.2-3.6-12.3c-1.1-3.9,0.4-6.8,3.6-8.9c6.7,0.4,4.3-4.7,4.9-8
	c0.1-0.7,0.5-1.4,1.1-1.8c4.5,2.6,3.1,6.6,2.3,10.4C288.8,541.6,288.4,544.5,293.1,544.1z M721.9,432c3.4,2,3.4,6,5.1,9
	c-2.2,3.9-0.9,7.3,1.8,10.4c1.1,1.2,2.1,2.6,2.8,4.1c1.4,5.6,0.9,11.5,2.2,17.1c1,3.9-3.6,7.8-8.8,6.4c-1.6,0.4-3.2,0.9-4.7,1.5
	c-4.2,2.2-7.9,2-11-1.8c-3.7-4.4-4.4-9.4-1.7-13.7c1.6-2.5,3.6-4.7,5.4-7.1c2.1-6.1,1.9-12.7-0.7-18.6c-0.6-1.4-0.5-3,0.2-4.3
	C715.2,432.8,719.2,434.4,721.9,432z"/>
<path class="st5" d="M553.8,354.9c-1.6,4-2.5,8.2-2.7,12.5c-0.1,4.1-1.2,6.9-5.9,6.6c-1.1-0.2-2.1,0.6-2.3,1.7c0,0.1,0,0.2,0,0.3
	c-1.5-1.9-1.5-4.3-2.2-6.5c-1.6-4.6-4.4-7.4-9.7-6.4c-2.4-0.9-4-2.3-3.4-5.2c3.7-1.4,5.5-5.4,9.4-6.5c3.9,1.9,4.1,6.6,7.3,9.5
	c1.3-2.4,1.4-5.6,4.4-6.7C550.5,353.7,552.3,353.5,553.8,354.9z M881.9,193.1c1.2,1.7,0.8,3-0.8,4.2c-7.3,5.5-13.9,11.8-19.8,18.8
	c-5.8,6.9-19.9,8.3-27.5,3.5c-3.6-2.3-3.7-5.5-0.2-8.5c2.3-2,5.3-3.4,7.2-5.9c0.4-1.3,1.5-2.2,2.8-2.6c3.1-1.2,4.5-3.6,5.3-6.6
	c0.2-0.4,0.4-0.8,0.7-1.2c2.6-1.4,3.8-4.9,7.4-4.8C865.3,190.8,873.7,191.4,881.9,193.1z M264,169c-2.2,0.7-4.4,1.3-6.5,2.1
	c-3.5,1.4-5.7,0.6-6.5-3.2c0.9-8.6,5-13.4,13.6-15.5c3-0.8,6.2-1,9.3-1.4c0.6,0,1.3,0.1,2,0.1c2.4-0.1,4.8,0.1,5.8,2.7
	c1.1,2.8-0.6,4.7-2.7,6.2c-1.3,1.8-3.9,1.1-5.2,2.8C270.7,165.2,268,168.1,264,169z M718,544l16.3,11.8c-2.3,3.5-5.9,2.9-9.3,3
	c-5.2-2.8-10.2-1.8-15.2,0.9c-5.4,2.9-10.5,6.4-16.7,7.7c-1.5,0.3-2.9,0.5-4.4,0.7c-4,0.4-5.5-0.8-3.5-4.9c5.1-10.8,3-20-6.3-27.5
	c-1.4-1.4-3-2.7-4.5-3.9c-13-8.3-10.6-32.4,4.9-38.2c5.8-2.2,11.2-5.3,13.6-11.6c1.7-4.3,0.7-6.1-3.8-7.1c-1-0.2-2-0.3-3-0.5
	c-5.2-0.9-6.5-3-4.7-8c2.7-7.3,5.6-14.4,8.6-21.4c2.3-5.7,4.7-11.3,7.1-17c2-1.6,4.3-1.5,6.5-0.7c1,0.5,1.7,1.5,1.7,2.6
	c-5.7,6.3-8.2,13.7-8.2,22.1c0,2.8,0.2,3.8,3.4,3.2c4.4-0.9,8.9-1.2,12.5,2.4c0.6,3.1-2.2,4.6-3.6,6.7c-2.3,3.5-3,6.9-1.1,10.8
	c2.4,4.9,5.8,6.2,10.9,4.4c1.7-0.6,3.4-1.4,5.3-1.1c3.9,1.6,6.6,4.9,10.3,6.7c3.8,2.4,3.2,5.2,0.7,8.1c-4-2.5-4-2.5-5.3,2.6
	c0,2.6-0.9,5.1-2.3,7.2c-1.3,2.9-0.1,7.6-5.5,7.2c-4.7-1.7-7.1-6.1-6.3-11.9c0.4-2.5,1.2-4.8,2.3-7.1c0.4-0.9,0.9-2,0-2.8
	c-1.1-1-2.2-0.2-3.2,0.3c-3.6,1.9-4.5,4.6-2.6,8.3c1.6,3.1,3.2,6.2,3.5,9.8c0.3,4-0.8,7.2-4.7,9c-0.6,0.2-1.3,0.3-1.9,0.4
	c-2,0.3-3.7,1.1-3.4,3.3c0.4,2.7,2.6,1.8,4.3,1.6c2.3-0.3,4.5-1.1,6.8-1c4,1.1,7.4,3.2,11,5.2c1.4,0.7,3,1.6,1.8,3.8
	s-0.5,4.8-2.2,6.8c-2,0.2-1.9-1.5-2.3-2.6c-1.3-4.1-4.2-5.1-8.2-4.4c-3.6,0.7-7.2,1.2-10.8,1.8c-1.5,0.2-2.9,0.6-4.8-0.9
	C708.5,533.8,708.8,543.9,718,544z M794.9,563.2L795,577c-1.4,3.1-4.2,3.1-7,3.3c-1.6,0.1-3.2-0.1-4.8-0.6c-0.9-0.4-1.6-1.4-1.6-2.4
	c0.3-0.8,1.1-1.1,1.8-1.5c4.1-2.6,4.2-4.3,0.4-7.6c-8.6-9.8-20.8-12.7-32.4-16.9c-4.5-1.6-8-3.9-8.8-9c-3.1-16.1,4.2-28.6,14-40.2
	c0.9-1.2,2.2-2.1,3.6-2.5c2-0.2,3.4,0.9,4.8,2.1c1.2,1.7,0.8,3.5,0.2,5.2c-0.7,1.6-0.9,3.4-0.3,5c1.6-3.2,5.1-4.7,7.6-7.3
	c1-0.6,2.1-1.1,3.2-1.5c1.5-0.6,1.6-1.9,2-3.2c1.4-4.6,4.1-5.3,8.5-2.3c-1.2,1.1-1.5,2.9-0.8,4.4c1.5,3.9,0.6,7.1-3.2,9.3
	c-2.6,1.5-1.8,2.7,0.4,3.8c2.8,1.3,5.9,2.2,8.7,3.8s4.3,0.8,5.5-1.7c2.6-0.5,2.8,2,3.7,3.3c4.7,6.4,5.4,6.7,12.7,3.8
	c1.3-0.5,2.5-1,3.9-0.6c2.2,2.3,6.2,2.8,6.8,6.7c-4.3-0.9-7,0.7-9,4.8c-3,6.3-8.8,10.2-14,14.4c-3.2,2.6-6.5,5.1-9.7,7.6
	c-1.3,2.6-4.4,1.8-6.8,3.4C787.6,563,791.9,560.4,794.9,563.2z M280.9,560.2c0-0.4,0.1-0.8,0.1-1.2c3.7-0.4,6.2,2.7,9.5,3.4
	c2,0.5,4.1,1.9,6.1,0.3s0-3.6-0.3-5.4c-0.1-0.7-0.2-1.3-0.2-2c1-2.8-0.7-6.5,2.9-8.4c-0.3,9.8,3.3,13.6,13.5,14.2
	c11.7,0.7,18,5.4,21.8,16.4c2.3,7.3,4,14.7,5.1,22.3v12l-0.8,0.2c-2.1-5.6-4.2-11.2-6.3-16.8c-0.8-2.2-1.4-4.4-2.3-6.6
	c-4.9-11.5-12.9-14.4-24.1-8.9c-3.3,1.6-6.4,5.2-9.7,4.5c-3.5-0.7-2.2-5.8-3.8-8.7C288.9,570,284.1,565.7,280.9,560.2z M579,409.1
	c7.3,6.4,14.4,12.9,20,20.9c1.5,2.5,4.2,3.4,6.3,5c1.3,2.9-1.4,6.1,0.8,9c1.5,1.8,5.3,2.1,4.7,5.1c-0.5,2.5-3.8,2.1-5.9,2.8
	c-5.9,2-10.9,6.4-17.5,6.8c-1.3,0.1-2.7,0.9-3.6-0.5c-0.8-1.2,0.4-2.1,1-3.1c1.8-3.4,3.7-6.6,5.5-10c2.1-4,1.5-7.8-2.3-10
	c-6.4-3.6-8.7-9.1-9.3-15.9c-0.2-1.8-1-3.4-1.6-5.2C577.6,412.4,577.3,410.3,579,409.1z M579,409.1c0.2,1.9-0.6,3.7-2,4.9
	c-1.8-2.6-2.9-5.6-3-8.8c-0.2-1.8-1-3.5-2.3-4.8c-4.3-4.8-6.2-4.6-8.9,1.1c-1.2,2.4-2.5,4.5-5.4,4.3c-2.7-0.2-3.6-2.4-4.6-4.6
	c-2.6-6.1-4.3-12.5-5-19.1c8.3,1.2,15.5,5.6,23.7,7.3c2.9,0.6,5.8,1.5,8.6-0.3c0.2-0.5,0.5-0.5,0.8-0.1
	C579.9,395.7,577,402.1,579,409.1z M300.1,536c-1.4-2.6-3.6-5.5-1-8.2c3-3.2,7.3-4.9,11.6-4.7c3.5,0.2,3,5.1,6.2,5.8
	c0.2,1.8,1.8,2.7,2.7,4c1.9,2.7,2.2,5.7-0.5,7.5c-4.7,3.1-4.6,7.4-4.4,12c0,1,0.8,2.3-0.6,3c-0.1,0-0.3,0-0.4-0.1s-0.2-0.2-0.3-0.4
	c0.1-1.7-0.6-3.2-0.5-4.9c0.4-4.3-1.7-4.4-4.8-2.9l-3-2.8C302.3,542.2,300.4,539.6,300.1,536z M399.2,381.8
	c4.5-4.3,10.6-4.3,16.1-5.6s11-2.2,16-5.2c5.5-3.4,5.5-3.3,5.7,3.2c0.1,1.9-0.6,3.7-1.9,5.1C423.4,384,411.7,388.3,399.2,381.8z
	 M412.2,305c3.1,2.7,3.2,7.2,5.9,10.2c-3.6,4.1-8.6,5.8-13.2,8.3c-3.3,1.8-6.5,3.7-9.8,5.6c-1.1-6.4-3.3-12.9,2.3-18.5
	c0.9-0.9,1.1-2.4,1.7-3.6c2.1-0.5,3.2,1.2,4.5,2.3c4.5,3.6,6,3.2,7.4-2.3C411.1,306.2,411.5,305.5,412.2,305z M500.9,327.1
	c0.5,6,4.5,10.2,8.2,14.4c2.6,2.8,4.6,6,5.9,9.6c-4.4,0.8-8.9,0.3-13-1.3c-3.6-1.3-7.2-2.1-11-1c-0.1-2.6,1.3-4.7,2.8-6.6
	c5.1-6.3,5.1-6.3,0.1-12.3C495,325.8,497.7,325.8,500.9,327.1z M336.3,370.3c-2-2.4,0.1-4.3,0.9-6.3c3.1-8.1,2.1-7.5-4.3-9.1
	c-0.6-0.2-1.2-0.5-1.8-0.9c-1.5-0.9-3.7-1.6-3-3.9s3-2.3,4.9-2.3c1.5-0.1,3,0.3,4.1,1.3c4.7,4.3,9.7,8.3,14.9,12
	c-3.7,0.3-5.6,3-7.8,5.4S339.7,370.7,336.3,370.3z M771.8,471.8c2.1-8.2,4-16.5,0.1-24.7v-0.4c5.5-2.1,4.9,4,7.7,6.2
	c1.7-3.5,0-7.2,2.2-10c1.3-3.2,2-7.1,7-6.2c0.9,0.2,1.8-0.9,1.8-2c0-1.7-1.3-1.6-2.4-1.7l-9.2-1c-0.5-0.4-0.6-1.1-0.2-1.6
	c0.1-0.1,0.2-0.2,0.3-0.3c2.8-2.4,0.7-6.8,3.8-9.1c0.3-0.2,0.6-0.5,0.8-0.4c6.1,2.3,12.1,4.8,16.2,10.2c1.1,9.9,0.2,19.9,0.5,29.8
	c0.1,2.1-0.5,4.3,1.4,7.4c0.8-3.7,0.8-7.5,0.1-11.2c-0.5-3.3-0.4-6.4,3-8.2c2.3-0.9,4.2,0.5,6,1.5c1.7,1,3.7,1.6,5.7,1.7
	c3.9,0.7,6.8-2.5,10.4-2.9c2.6,1.6,2.9,4.7,4.5,7c4.6,6.4,8.2,7.8,15.8,5.9c4.1-1.1,7.6-3.2,11.5-4.9c3-1.3,5.8-3.4,9.3-2.7
	c0.8,1,1,2.4,0.6,3.6c-0.7,2.5-2.6,3.7-4.8,4.5c-2.5,0.8-4.7,2.5-6,4.8c-0.9,1.4-0.8,2.9-0.9,4.4c0,0.2-0.1,0.4-0.1,0.6
	c-2,4.6-3.8,9.3-3,14.3c0.6,3.4,0.8,7.5,5.9,7.6c0.4,2-1,2.9-2.3,3.8c-2.5,0.8-5.3,0.9-7.8,0.3c-3-1.1-4.5-3.8-6.2-6.1
	c-4.9-6.7-11.4-11.8-17.4-17.5c-0.4-0.7-0.7-1.5-1-2.2c-0.8-2-1.6-4.3-4.1-4.3c-2.8,0-1.5,3.2-2.9,4.5c-3.5,3-6.5,6.7-10.4,9.2
	c-4.3,2.8-8.6,3.5-13,0.3c-1.4-1.2-2.1-2.9-3-4.4c-2.9-5.2-3.5-5.4-8.6-2.4c-1.7,0.7-3.3,2.3-5.4,0.9L771.8,471.8z M813,260
	c1.2,2.9,2.3,5.8,1.9,9c0.3,0.3,0.5,0.8,0.3,1.2c-1.3,1.9-2.5,3.9-5.2,4c-4.6-0.8-7.6-3.4-9.5-7.8c-2.5-5.6-4.1-6.1-9.7-3.8
	c-8.1,3.3-11.6,4.5-9.3,16c0.5,3.2-0.9,6.5-3.6,8.3c-1.5,1.1-3,2-4.6,2.9c-2.3,1.3-4.6,3.6-7,3.6c-3,0.1-2.5-4.2-4.5-5.9
	c-1.8-1.5-3.6-2.9-5.5-4.3c-1.8-1.1-3.5-2.6-4.8-4.3c-3.5-4.7-1.4-9.3,4.5-10c1.5-0.3,3-0.3,4.5,0c4.5,1,4.9-1.3,4-4.6
	c-1-3.7-2.4-7.3-4.2-10.6c-0.7-1.2-1.9-2.6-0.4-4.1c1.1-1.1,2.8-1.3,4.2-0.5c9.3,5.9,15,1.1,20.5-6.2c4.1-5.5,6.6-5,10.4,0.9
	c3.3,5,8.8,8.1,11.7,13.6c0.2,0.4,1.5,0.3,2.3,0.4C810.9,257.5,812.2,258.3,813,260z M269,276.1c-2.2-2.2-5.1-2.4-7.9-2
	c-3.5,0.5-6.1-0.9-8.3-3.5c-2.9-3.4-5.9-6.7-8.9-10.1c-1.7-1.9-3.8-3.7-1.9-6.4s4.1-5.9,8.2-5.1c2.1,0.5,4.2,1.1,6.3,1.8
	c0.8-3.2-0.8-5.9-0.9-8.9c-0.1-1.7-1-3.2,1.1-4.2c2.1-1.1,4.4-1,5.5,0.7c6,9.7,15.9,14.8,24.3,21.7c3.5,2.9,5.9,6.6,3.8,11.3
	c-2.4,5.5-5.2,10.9-12.3,11.5c-2-4.3-0.1-8.4,0.4-12.5c-1.7,0.8-3,2.7-4.8,4.1C272.4,275.7,271.2,277.4,269,276.1z M265,518
	c-1.2,1.8-1.2,4.2,0,6c-3.9-0.5-7.1,1.4-10.1,3.3c-5.2,3.2-10.4,3.9-15.8,0.7c-4.4-3.2-7.9-2.6-13.1,2.1c-0.3,0-0.6,0.1-0.9,0.1
	c-1.7,1.6-3.4,3.3-6.1,2.2c-2.3-4,0.5-6.1,3.3-8c2.3-1.6,5.2-2.1,7.8-3.2c6-2.7,6.9-5.4,3.6-11.2c-0.5-0.7-0.7-1.5-0.9-2.3l0.4-0.6
	c2.3,0.4,4.7,0,6.8-1c5.4-2.4,6.1-8.6,1.4-12c-1.1-0.8-3.1-1.1-2.9-3s2.3-1.6,3.5-2.2c1.8-0.9,3.6-1.7,5.3-2.7
	c4.8-2.5,9.5-2.7,13.8,1.1c5.6,5,5.1,8.4-1.9,11.4c-1.9,0.8-2.7,1.9-2.1,3.8c0.8,2.9,1.3,5.8,1.5,8.8C259,514.9,262.4,516.1,265,518
	z M266.1,416c4.6,0.9,6.1,6.5,10.9,7c0.9,0.9,1.7,1.8,1.1,3.1c-2.1,1-3.8,2.6-4.9,4.6c-3.3,2.4-6.6,4.8-11,4.2c-2.7-1-2.3-4-3.8-5.8
	c-2.1-1.7-3.6-4.1-6-5.5c-3.4,1.7-3.4,4.8-3.3,8c0.3,7.3-2.9,9.6-10.1,7.4c-4-5.6-3.7-11.9-3.3-18.4c0.2-3.5-2.1-6.8-4.4-9.8
	c-2.3-2.8-1.9-6.9,0.9-9.1c0.5-0.5,1.2-0.8,1.8-1.1c3.3-1.2,6.3-1.2,7,3.4c2,2.9,0.5,6.4,1.7,9.6s2.1,3.5,4.9,1.7
	C253.4,411.5,260.8,411.8,266.1,416z M844.9,291.1c0.8,3.7,1.9,7.4,3.4,10.9c1.4,3.1,0.9,5.4-2.9,6.4c-4.2,1.1-7.3,3.9-10.1,7
	c-3.4,3.6-7.5,6.6-11.9,8.9c-2,1.1-4.2,1.4-6.2,0.1c-2.1-1.5-1.2-3.6-0.4-5.4c1-2.3-0.1-4.6,0.2-6.9c-0.4-2.5-1.8-4.8-2-7.5
	c-0.3-2.5-0.1-4.6,2.2-6c3.1-1.4,4.6-4.5,7.3-6.3c5.5-0.9,11-0.9,16.5-2.1l1.7,0.1C843.6,290,844.5,290.3,844.9,291.1z M745.1,378.1
	c0.3-2,0.7-3.9,0.9-5.9c0.8-9.5-3.5-13.3-13.1-11.5c-5.1-3.7-5.1-3.7-9.8,0.3c-3.6,3.1-6.6,2.8-10-1c-0.3-3.6-0.8-7.3-1-10.9
	c-0.2-4.2,1.6-6.6,6.3-6.2c6.1,0.7,12.1,2,17.9,4c7.4,2.3,14.7,5.4,22.6,1.4c1.5-0.8,3.1,0.2,2.2,2.4
	C756.8,360.5,752.4,370.1,745.1,378.1z M175.1,292c2.4-6.9,5.5-9,13.4-9c6.3,0,6.4,0,4.2-5.8c-1-2.6-0.2-4.5,1.3-6.4
	c1-1.3,2.1-2.5,3.1-3.8c3-2.2,7.1-2.2,10.1,0c-4.4,5.3-4.2,6.7,1.7,10.3c4,2.5,4.7,5.6,1.5,8.9c-3.4,3.5-6.9,6.6-6.4,12.3
	c0.2,3-2.9,2.8-5,2.5c-6.9-1.2-13.8-1.5-20.8-2C176.6,296.8,174.2,295.2,175.1,292z M418,114.1c-14.5,3.3-23.9,13.5-33.4,23.8
	c-0.8,0.8-1.7,1.6-2.6,2.3c-1.8-1.1-3.4-1.4-5.3,0c-1.6,1.2-3.5,2.6-5.6,0.9c-1.9-6.4-2-12.4,3.5-17.4c1.5-1.4,1.5-3.6,1.3-5.7
	c-0.2-3.2,0.5-4.4,3.8-2.4c4.8,2.9,5,2.8,5.2-2.8c0.1-3.2,0.6-4.1,4.1-2.5c3.7,1.6,8,1.9,12,2.8c1.5-1.2,3.3-1.3,5.1-1.3
	C410.3,111.8,414.4,111.6,418,114.1z M495.8,173.1c-7.9,0.1-10.6-4.1-8.3-10.3c1.4-3.7,2.1-7.6,3.3-11.4c2.1-6.7,4.4-7.8,11-5.6
	c3.1,1.1,6.4,1.8,9,4.1c3.2,2.9,5.3,6.5,3.1,10.5C509.6,167.9,502.3,171.1,495.8,173.1z M212.1,239.1c4.8-6,11.2-9.4,18.5-10.8
	c4.9-1,9.4,2.6,14.5,2.2c1.3-0.1,0.9,2.1,0.6,3.4c-1.6,7.3-6.2,11.9-12.8,14.7c-4.1,1.7-8.4,3.1-12.6,4.6c-2.4-1.6-4-4.2-4.4-7
	c1-1.5,1.5-3-0.5-4.2C214,241.3,212.5,240.7,212.1,239.1z M852,358c8.8,3.1,8.8,3.1,16-6.9c4,4.6,2.5-1.6,4-2c2.7-1.7,5.3-1.1,8,0
	c1.4,3.4,2.5,6.9,4.2,10.1c2,3.4,3,8.4,9.2,6.6c2.1-0.6,3.4,2,3.2,4.1s-1.3,4.5-3.8,3.5c-7.4-2.9-15.4-2.2-22.9-4.4
	C863,366.8,856.6,364,852,358z M337.1,349c-1.2,0-2.3,0-3.5,0c-1.6,0.1-3.7-0.7-4.6,0.9c-1.1,1.9,1.7,2.5,2,4
	c-3.5,1.2-2.3,3.3-0.6,4.8c2.2,2,1,3.2-0.4,4.9c-3,3.5-6.9,3.8-10.9,3.3c-8-1-15.5-3.4-21.1-9.8c-0.8-1-2-2.1-1.2-3.5
	c0.6-1.2,2.1-0.8,3.2-0.7c6.9,1,13.9-1,19.3-5.4c4.8-3.7,11.2-1.3,16.9-1.2C337.1,346.5,337,348,337.1,349z M266.1,416
	c-2.2-0.6-4.5-1.3-6.7-1.7c-4.5-0.7-8.8-0.8-12.4,3.1c-2.4,2.7-4.2,1.9-5-1.7c-0.8-3.9-1.2-7.9-0.9-11.8c2.4,0.5,2.3,2.1,2.2,4.2
	c-0.3,5.5,1,6,6.4,4.2c7.5-2.5,8.6-8.4,8.3-14.6c-0.3-5.9,0.6-8.2,8-5.2c5.2,2.1,8.8,6.5,12.9,10c3,2.6,0.8,5.5-1,7.9
	c-1.4,1.9-2.6,4.5-5.9,2.5C268.4,410.9,266.6,412.3,266.1,416z M839,252.9c3.5,2.7,3.8,5.7,1.3,9.3c-1.1,1.6-1.9,3.5-2.2,5.4
	c-0.8,4.6-2.2,9.1-4.2,13.4c-1.2,7.7-3.9,10.6-10.9,11.7c-2.2-0.4-3.2-2.1-3.8-4c-1-2.9-2.4-5.6-4-8.2c-0.4-2.2-1-4.5,1.1-6.3h1.5
	c12.2-0.1,13.5-1.7,10.9-14c-0.5-2.5-1-4.8,0.5-7.1C832,250.9,835.9,250.9,839,252.9z M602.9,115.1c1.5,1.4,2.9,3,5.2,3.1
	c-7.3,6.6-16,9.1-25.6,8.9c-6.4-0.2-12.5-9-10.3-14.8c1.7-4.7,6.5-3.8,10.2-3.7c4.2,0.2,7.8,2.6,11.4,4.6
	C596.6,114.7,599.8,115.4,602.9,115.1z M310.2,111.1c6.6,0.7,11.6,5.1,16.8,8.7c3,2.1,5.5,4.7,8.5,6.9c2.6,2,3.2,4.1,1.4,6.8
	c-2.1,3.1-4.9,3.3-7.8,1.5c-4.7-2.9-9.1-6.1-13.8-8.9c-4.4-2.6-9.1-4.8-13.6-7.3c-1.3-0.7-2.8-1.3-2.5-3.2c0.2-1.4,1.5-2.4,2.9-2.3
	C305,113.6,307.1,110.9,310.2,111.1z M819.9,586.1c-3.4-2.9-5.1-7.2-8.7-10c-2.2-1.8-1.6-3.7,0.8-4.5c6.4-2,10.6-6.3,14.6-11.5
	c3.4-4.5,6.8-0.5,10,1c3.6,1.7,2.2,3.9,0.7,6.5c-3.4,5.8-8.5,10.7-10.4,17.4C824.5,585.2,821.9,583.6,819.9,586.1z M386.7,346
	c3.8,0.1,6.8,0.1,9.7,0.8c2.5,0.6,3.8,1.7,3.7,4.3c-0.1,2.3-0.8,3.7-3.4,4c-2.6,0.1-4.7,2.1-5.1,4.6c-0.8,4-3.4,4.8-7.1,3.6
	c-3.6-1.3-7.2-2.4-10.9-3.2c-2.8-0.5-4-2.1-4.5-4.5c-0.6-2.6,0.8-4.5,2.8-5.9C376.3,347,381.5,345.6,386.7,346z M899.9,313.1
	c0,6.7-4.7,10-10.4,6.6c-6.2-3.7-11.3-9-16-14.5c-1.7-2-1.8-4.3,0.2-6.2c1.7-1.7,3.4-1.7,5.7-0.4c3.8,1.9,7.9,3.4,12.1,4.2
	C899.2,304.6,899.8,305.5,899.9,313.1z M631.9,141.9l11.2-5.8c-0.6,2.4,0.6,4.6,1.1,6.8c2.1,9.5-3.3,19.6-12.4,22.7
	c-2.2,0.8-3.9,0.4-5-1.9c-0.9-2-1.9-3.9-2.9-5.8c-2-6.9-1.3-8.6,4.4-10.5C630.9,146.5,631.8,144.5,631.9,141.9z M321.1,325.9
	c-0.8-3.9,0.6-6.4,5.5-6c0.8,0.1,1.6-0.5,2.4-0.7c3.2-0.4,6.6-2.7,9.5-0.4s3.8,12,1.7,15.7c-2.3,4.1-5.5,6.9-10.8,6.6
	c-2.4-0.1-4.5-0.7-5.2-3C322.9,334.3,320.7,330.6,321.1,325.9z M630,148.1c-5.9,1-6.7,5-6,9.9c-1.6-1.1-1.8-3.1-2.4-4.7
	c-1.2-3.1-2.9-5.7-6.8-5.1s-6.9,2.2-6.7,6.9c-2.3-1.2-3-3.7-4.5-5.6c-2.4-3.2-5-6.1-9.6-5.4c2.5-1.1,5-2.2,7.1-4.2
	c1.6-1.6,3.9-2.9,6.3-2.7c6.1,0.6,9.8-1.9,10.6-8.1c0.6,4.4,2.4,8.6-1.1,13c-1.9,2.4,1.1,3.3,3.1,3c2.7-0.4,5.4-1.2,8.1-1.9
	C627.8,145.1,628,147,630,148.1z M513.1,198.6c-4.4-0.6-7.6-0.5-10.6-1.8c-4.4-1.9-5.9-5.1-4-9.7c2.9-7.2,13-9.2,18.2-3.6
	c1.3,1.4-1.2,14.2-3,15C513.2,198.7,512.5,198.6,513.1,198.6z M556,195c1.1-1.3,2.7-1.7,4.3-2.1c5.6-1.4,10.5-4.9,13.6-9.8
	c1.5,6.6,2.9,13.2,4.5,19.8c0.4,1.6,1.1,3.3-0.4,4.6c-1.7,1.4-3.5,0.7-5-0.4C567.3,203,561.7,199,556,195z M572.8,304.1
	c-2.4-2.6-5.4-2.5-8.5-2.2c-2.8,0.2-5.5,0.1-8.3,0.2c0.8-3.8,3-6.9,5-10.1c1.6-2.5,4.2-2.9,5.9-1.1c4.2,4.2,9.4,8,9.1,15.1
	L572.8,304.1z M273.2,581c2.6-0.2,4.9,0.7,7.2,1.6c1.3,0.5,2.8,1.3,2.5,2.8c-0.9,4.9,0.1,10.1-2,14.6c-2.5,5.5-10.9,5.1-14.5-0.4
	c-2.3-3.6-2.9-7.8-3.2-11.9S267.1,581,273.2,581z M177.8,504.9c-0.2,3.8-2.3,6-5.6,7.9c-5,2.9-5.2,5.8-2.1,10.8
	c1,1.6,3.1,3.2,1.6,5.3s-4,1.4-6.1,1c-7.1-1.5-14.2-3.2-21.3-4.8c-0.7-11,4-19.6,12.1-26.5c3-2.6,6.3-4.5,9.5,0.5
	c1.3,2.1,4.1,2.7,6.6,3.1C174.5,502.3,176.7,502.6,177.8,504.9z M620,428c-1.2-0.8-1-2-1-3.1c6,0.8,10.2-1.7,13-6.9
	c0.7-1.3,0.9-3.2,3-3.1c4.4,1.6,6.5,4.2,4.4,9c-2.2,5.1-5.2,6.6-10.6,5.2C626,428.2,623,427.8,620,428z M300.1,536l4.8,8.4
	c-2.7-0.6-4.7,0.2-6.1,2.6c-1.8,2.8-0.4,6.3-2,9.1c-4,0.2-6-2.4-7-5.7c-0.9-2.8,0.7-5,3.2-6.5C293.7,540.2,296.4,537.1,300.1,536z
	 M666.8,232.9c-3.7,1-5.9,3.6-7.8,6.6c-1.1,1.8-2.5,3.9-5,3.3c-2.2-0.5-3.8-2.5-3.8-4.8c0.2-9.1-0.1-18.3,3.5-26.9
	c2.3-5.5,13.7-10.1,19.8-9c1.6,0.3,2.5,0.9,2.4,2.5c-0.2,4.5,1.7,8.4,3.1,12.5c0.4,1.1,0.8,2.2,1.1,3.3c2.6,8.8,0.3,11.6-8.4,9.9
	C670.2,231.3,668.5,232.2,666.8,232.9z M875.1,380.9c8.1,1.7,16.3,3.4,24.3,5.2c2.9,0.6,4.2,2.7,3.4,5.6s-2.8,3.5-5.4,3.2
	c-0.7-0.1-1.3-0.3-1.9-0.5c-7.5-1.5-10.4,0.3-12.4,7.7c-1.4,5.1-3,6-7.7,4.5c-2.5-0.8-5-1.8-7.5-2.7c-4.4-1.6-8.1-4.8-10.2-9
	c-2.3-4.4-1.2-6.8,3.5-8.1c1.4-0.4,2.9-0.9,4.2-1.4c0.9-0.3,1.8-0.5,2.7-0.8C870.9,384.1,871.8,380.3,875.1,380.9z M847.1,528.2
	c-0.1-8.7,1.6-16.2,10.7-20.3c5.4-2.4,5.2-4.4,0.1-10.9c-0.2-1.6,1.5-2,2-3.1c1.1-1.4,2.1-3.5,4.2-2.6c1.6,0.6,1.6,2.7,1.8,4.3
	c0.5,4.6,1.3,9.1,1.1,13.8c-0.3,4.1-1.8,7.4-5.2,9.6C857,522.2,852,525.2,847.1,528.2z M562.2,350.1c0-0.8-0.2-2,0.2-2.4
	c6.3-5.5,4.5-12.9,4.7-19.8c0-1.7-0.1-3.4,1-4.8c1.2-1.5,2.5-2.3,4.6-1.1c4,2.1,7.6,1.1,10.6-2.1c2.5,5.8-0.9,10-4.1,14.2
	c-1.6,2.1-3.4,4-5.2,5.9c-1.8,3-1.5,6.4-1.7,9.7c-0.3,5.8-1.7,6.6-6.4,3.5C564.5,352.4,562.8,351.9,562.2,350.1z M833,600l-4-5.1
	c-2.6-1.1-4.3-3.6-4.6-6.4c0.7-1.7,1.8-2.5,3.7-1.6l14.8,4.2c5.4,2.1,10.8,4,16.2,6c1.2,0.4,2.9,1,2.7,2.5s-2,1.3-3.3,1.5
	C850,601.7,841.4,601.9,833,600z M580.9,389l-0.8,0.1c-0.1-1.5-0.1-3.1-1.7-3.8c-8.4-3.7-9.3-11.5-10.5-19.2c2.9,1.4,6,2.5,8.8,4.1
	c6.3,3.5,7.4,6.7,5,13.4C581,385.5,581.2,387.2,580.9,389z M357.9,385.2V378c5,10.2,10.9,19.9,13,31c1.3,6.7,4.2,9,10.6,7.1
	c9.1-2.7,18.2-5.1,26.9-9c1.8-0.8,4.6-1.5,4-3.5c-0.8-2.4-4-2-5.7-1c-9,5-16.1-0.6-23.5-4c-2-0.9-3.3-3.6-1.5-4.9
	c4.4-3.3,7.2-9,13.5-9.5c2.5,2.9,4.3,6.3,5.2,10c1.5,5.4,4,6.4,9.3,4.5c4.6-1.6,10.7,0.8,12.8,4.9c0.5,1,0.7,2-0.1,2.7
	c-3,2.6-3.3,6.3-4.4,9.8c-1.9,5.8-6.5,8.8-13.2,8.4c-4.1-0.3-8.2-0.9-12.3-1.8c-11.6-2.1-15.5,0.2-18.4,11.4
	c-2.6,1.6-3.6-0.8-5.2-1.9C363.2,416.9,359,401.4,357.9,385.2z M516.2,354.1c1.1-0.1,2.2-0.1,2.9,0.9c2.3,3.5,4.5,6.9,8,9.4
	c0.9,0.6,1.8,1.6,1.2,2.9c-4.2,6-4.2,6,3.9,13.3c0.7,1.5,0.1,2.6-1.2,3.5c-2.1-1-4.2-1.9-6.3-2.9c-7-3.3-13.1-1.9-19.1,4.9
	C507,373.7,509.9,363.4,516.2,354.1z M288,411.9c0.9-8.3,3.5-11.2,9.8-11c3.5,0.1,5.7,1.2,5.3,5.3c-0.1,1.5,0,3.3,1.9,3.5
	c1.7,0.2,1.9-1.5,2.3-2.8c1-3.3,3.5-4.1,6.6-3.8c4,0.3,8.8-0.4,7.4,6.5c-0.3,1.3,1.2,3,1.9,4.5c2.5,7.8,1.1,15.7,1,23.6
	c-1.2,3-3.1,1.6-4.8,0.7c-2.6-1.4-4.9-3.5-7.8-4.3c-2-0.6-4.1-1-5.5,0.8c-1.7,2.2,0.4,3.6,1.7,5c2.4,2.4,3.4,5.1,1.2,8
	c-2.1,2.7-4.9,2.4-7.6,0.9c-5.4-3-11.9-4.5-15.4-10.3c-0.8-1.4-2.4-2.4-2.1-4.3c2.1-2.4,4.4-5.1,7.9-4.2s3.3,4.5,4,8.1
	c0.3-4.9-1.9-8.8,0-12.8c0.6-2,2.1-4.5-2-4.3c-0.5,0.1-1,0.1-1.5,0C288.2,419.1,287,416,288,411.9z M312,194.1c0,7.3,0,14.6,0,22
	c0,4.6,1.8,8.8,3.1,13c0.4,1.3,1.5,2.7,2.8,2.4c1.8-0.3,1.2-2.3,1-3.4c-1.1-7.4,2.7-14.2,2.4-21.6c-0.2-4.8,12.3-10.8,16.9-8.8
	c2.5,1.1,3.4,2.8,1.8,5.1c-2.5,3.7-2.2,7.3-0.6,11.3c2.4,5.7,0.9,10.6-3.7,14.8c-5.6,5.1-11.5,9.5-19.8,8.1
	c-2.3-0.5-4.7,0.1-6.5,1.7c-2.7,2.2-4.8,1.2-6.4-1.6c-2.4-4.3-3.6-8-0.1-12.8c3.3-4.4,3.1-10.5,2.7-15.9c-0.3-3.6-0.2-7.3-0.7-10.9
	c-0.5-4.1,1.1-6.3,4.9-7.3C311.4,191.1,312.6,192.1,312,194.1z M269.1,351.1c1-1.1,1.9-2.3,3-3.4c3.7-3.5,6.3-3.5,8.7,1
	c1.7,3.3,3.8,4.8,7.4,4.4c3.5-0.4,4.9,1.8,4.9,4.8c0.1,5.1,1,10.2,2.7,15.1c1.3,3.6,0.9,7.9-3.5,9.8c-4.2,1.8-8.1,1.4-11.1-2.6
	c-1-1.1-2-2.2-3.1-3.2c-1.5-2-0.6-4.1-0.4-6.2c0.5-5.3-0.7-9.6-5.7-12.5C269.4,356.8,267.1,354.6,269.1,351.1z M316.1,329
	c0.1,5.6-3.9,8.5-7.9,6c-4.6-2.9-9.7-4.9-15-5.9c-4.3-0.8-5.2-3.3-2.5-6.9c4-5.2,4.4-10.5,1.9-16.3c-0.7-1.7-1.1-3.5,0.8-5
	s3.5-0.9,5,0.3c3.8,3,7.6,6,9.6,10.6c2.1,5,4.2,10.1,7.3,14.7C315.7,327.3,316,328.1,316.1,329z M367,246c1.7,1.6,3.5,3.1,5.1,4.7
	c1.3,1.3,2.9,2.7,1.1,4.6c-1.5,1.6-3.1,2.6-5.7,1.5c-6.8-2.9-9.7-2.1-15,3.2c-2.3,2.2-4.3,6.1-8.1,4.3s-5.2-6.1-5.1-10.1
	c0-3.3,0.2-6-3-8.2c-2.3-1.6-0.1-5.9,3.6-6.7c4.1-1,8.4-0.2,12,2.1c4.1,2.5,8,5.6,13.3,4.6C365.7,245.5,366.5,245.5,367,246z
	 M241.2,363.1c-2.1,3.4-7,0.5-9.1,4c-3,1.9-6,2-9-0.1c-1.5-4-3.1-8-4.3-12.2c-1.4-5-0.6-10.4,2.2-14.8c11.9-3.1,23.8,7,22.3,18.9
	C243.3,360.6,242.5,362.1,241.2,363.1z M822,438.1c-2.2,2.2-6.1,2.3-7.1,6c-2.3,3.1-5.4,3.4-8.8,2.4c-1.5-4.1-0.5-6.2,3.6-8
	c5.8-2.5,5.8-2.5,2.1-7.1c-2.5-3-2.1-7.4,0.9-9.9c0.5-0.4,1-0.7,1.5-1c1.3-0.7,2.9-0.5,5.3-2.2c-8.3-0.3-12.7-6.9-19.7-8.5
	c1.2-2.9,3.8-2,6-2.1c3.3-0.1,6.6-0.3,9.3-2.6c2.7-3.2,5.4-6.5,8.9-9c1.3,0.9,1.2,2.3,1.1,3.6c-0.4,5.3,1.6,10,3.3,14.9
	c1.9,5.7,0.5,8.7-5.2,10.5c-2.2,0.7-3.3,1.8-2.9,3.8C820.7,431.9,818,435.7,822,438.1z M503,299c-1.8,2.7-2.1,5.3,0,8
	c-0.9,0.3-1.9,0.7-2.7,1.2c-9.5,5.7-11.6,2.6-18.4-4.9c-2.7-3-3-6.5,0.1-9.3c3.2-3,3.3-5.5,0.7-9c-3.1-4.2-2.4-5.7,3-7
	c1.6-0.4,3.2-0.7,4.9-0.9c2.5-0.3,3.7,0.8,3.6,3.4s-0.1,5-0.1,7.5C494.2,294.9,496,297.2,503,299z M204.5,454.1
	c-6.1,0.1-11.3-1.3-15.3-5.5c-1.4-1.5-3.3-3.4-1.5-5.6c1.6-1.9,3-4.4,6.4-3.5c5.6,1.5,11.6-0.4,17.2,1.5c1,0.3,2.1-0.3,2.5-1.2
	c1.6-3.1,3.9-2.9,6.7-2c2.2,0.7,4.8,0.9,5.3,3.7s-1.1,4.7-3.4,6.1C216.9,451,211.2,454.5,204.5,454.1z M704.4,187.9
	c2.5-0.1,4.7,0,6.6,1.2c3.5,2.1,3.8,3.8,0.5,6.2c-2.5,1.9-3.9,3.7-3,7.1s-1.2,6.3-4.6,6.3c-5.7,0-11.3-1.2-15.1-6.2
	c-3.4-4.4-2.2-9.3,3-11.3C696,189.7,700,187.3,704.4,187.9z M675.9,181.9c-0.1-4.7-2.8-6.8-7.3-6.8c-3.1,0-6.2-0.2-9.3-0.8
	c-5-1.1-7.1,0.6-8.3,5.9c-0.4,1.8,0.3,4.1-2.4,4.9c0.2-15.3,3.6-15.1,17.1-13.5c4.9,0.6,9.7,2.1,14.5,3.2c2.3,0.5,4.2,1.4,3.7,4.3
	c-0.4,2.7-2.5,2-4.3,2.2C678.5,181.3,677.2,181.6,675.9,181.9z M459.2,293c2-0.9,3.1-2.9,2.9-5c0.7,0,1.3,0,2,0.1
	c2.6,0.6,5.9-1.5,7.7,1.2c1.3,1.9-4.2,9.5-7.3,10.3c-1.8,0.5-3.6,0.6-4.4,2.6c-0.4-2.8-2.7-2-4.4-2.3
	C456.2,297.3,459.9,296.2,459.2,293z M289.1,476.1c4,0.5,4.5-1.8,3.8-4.9c-0.5-2.6-1.6-5.1-3.2-7.2c-1-1.2-1-3,0.1-4.1
	c1.1-1.4,2.5-2.1,4.3-1.3c2.4,1,5.1,1.2,7.4,3c-2.5,3.2-5.5,6.3-1.5,10.3C296.7,474,294.3,478.9,289.1,476.1z M793,481
	c-0.3,1.7,0.4,3.4,1.8,4.3c3.6,2.5,5,6.9,8.8,9.2c1.1,0.5,1.5,1.8,1,2.9c-0.1,0.2-0.2,0.3-0.3,0.5c-0.8,1.1-1.7,2.1-3.2,1.6
	c-1.4-0.4-2.8-1-4.1-1.6c-2.5-1.3-3.7-0.4-4.2,2.1c-2.7,0.6-5,0.2-6.8-2.1c-3.6-1.4-7.1-2.9-7.1,3.4c0,1.5-0.6,3.2-2.9,2.7
	c0.2-9.1,0.4-9.7,4.4-14.2c-0.4-1.3-1.8-1-2.7-1.5c-5.5-2.6-5.4-2.8-0.7-6.6c1.8-1.3,2.3-3.8,1.1-5.7l5-2
	C786.5,476.2,789.8,478.5,793,481z M465.9,150.1c-4.7-0.4-7.8-3.4-10.3-6.8c-2.7-3.7-5.6-5.2-9.8-2.4c-2.2-4.1-1.1-7.7,1.5-11.1
	c1.7-1.3,4-1.2,5.6,0.2c0.3,4.7,2.6,8.3,5.9,11.6C461.5,144.2,465.2,146,465.9,150.1z M234.1,146c2.2-8.5,6.6-10.7,18.7-8.8
	c1.4,0.2,2.8,0.9,4.3,0.7c6.5-1,7.1-0.2,4.9,6.2c-6.3,1.4-12.4,4-18.9,4.1C240,148.2,236.8,148,234.1,146z M611,423
	c2.8,0.2,5.9-1.1,8,1.9c0.8,0.8,1.2,2,1,3.1c-0.5,2.6,1.6,3.4,3.3,4.3c3.8,2.2,2.9,4.7,0.4,7.1c-3.5,3.4-7.5,2.6-11.5,1.1
	c-3.4-1.3-5.9-1-6,3.5c-4.3-2.5-1.5-5.9-1.2-8.9c1.5-1.4,3.1-0.3,4.6,0c1.1,0.2,2.5,1,3-0.4c0.5-1.3-1-1.9-1.9-2.5
	c-2.4-1.8-5.2-3.4-2.7-7L611,423z M880.9,969.9c1.3,2.7,4.1,3.7,6.2,5.4c1.7,1.4,0.3,1.7-0.2,2.4c-2.3,0-4.7,0.4-6.9,0
	c-8-1.2-12.7,2.7-16,9.3c-2.5-0.8-3.2-2.8-3.1-5.2c5.1-4.1,7.5-10.3,12.2-14.8c3.6-3.4,4.8-3.1,7,1.5
	C880.3,969.2,880.8,969.4,880.9,969.9z M475.8,316.1c3.9,2.9,5.2,7.5,7.3,11.6c1.6,3.3,2.6,7.3,6.9,8.4c0.5,2.2-0.4,4.2-1.2,6.1
	c-1.2,2.7-3.2,3.6-5.9,1.9c-5.1-4.4-7.3-10-7.1-16.6C475.9,323.6,475.8,319.9,475.8,316.1z M623,906c1.8,0.8,2.2,2.6,3,4.1
	c-11.2,10-24.5,16.1-38.4,21C598.9,921.9,613.3,917.4,623,906z M374.1,677c-1.6-4.4-3.4-8.8-4.5-13.3c-0.9-3.4,0.7-6.3,4.3-7.7
	l3.3,5.7c0.3,4.5,1,8.9,1,13.3c-0.4,1-1.1,1.8-2.1,2.1L374.1,677z M454.1,313.2c-2.4-4.8-1.4-9.2,1.6-13.3c2.3-0.8,4.6-1.8,4.4,2.3
	c0.3,2.6,0.9,5.1,2.8,7s-0.4,1.9-1,2.7L454.1,313.2z M774,584.9c-1.1-1.3-2.7-0.8-4-0.9c2.3-3.5,5-6.9,3.2-11.6
	c-0.4-1,0.1-2.1,1-2.5c2-0.8,2.9,0.7,3.8,2.1c-0.3,4.7,2,8,5.6,10.6c-0.3,4.8-3.2,4.6-6.7,3.5L774,584.9z M860.9,981.9l3.1,5.2
	c-2.5,3-5.3,6-6.5,10.1C854.3,990.9,855.6,985.3,860.9,981.9z M725,558.8l9.3-3l12.5,5.2C739.3,561.2,732,561.4,725,558.8z
	 M368.7,432.1l5.2,1.9l-0.1,1c-0.5,1.6-0.5,3.3,0,4.9c1,3,2,6,0.9,9.2c-0.4,1.1-1.1,2-2.6,1.8s-1.1-1.4-1.1-2.2
	C371.6,443,369.9,437.6,368.7,432.1z M435,379.1c-0.3-1.9,0.5-3.8,1.9-5.1l1.1-0.1c4.7,0.3,9.7-0.6,13,4c-1.5,1.1-3.5,0-5,0.9
	L435,379.1z M308,547.2c0.6-2.8,3-3,4.9-2.7s1.1,2.5,1.1,3.8c-0.1,2.2,0.7,4.6-0.7,6.7L308,547.2z M781.9,577c-2.1-1.8,0.8-1.9,1-3
	c2.8-1.6,1.5-3.8,0.9-5.9c2.5-0.9,3.7,0.5,4,2.6c0.3,1.9,0.5,4-1.7,5.2C784.9,576.6,783.4,577,781.9,577z M531,384.1
	c0.4-1.2,0.8-2.3,1.2-3.5c0.6,0.2,1.2,0.5,1.8,0.9c1.4,1.1,3.5,1.7,3,4.1c-0.2,1-1.1,1.8-2.1,1.9C532.5,387.6,531.8,385.8,531,384.1
	z M849.1,497.1h8.8c5.8,3.4,6.8,8.3,1.7,11c-7.5,4-10.6,10-11.6,17.8c-0.2,0.8-0.5,1.6-0.9,2.3c-0.8,5.6-1.4,11.2-2.5,16.7
	c-0.6,3.4-2.4,6.4-6.2,7c-4.6,0.7-9,0-12.5-3.5c-1.6-1.6-1-3.7,0.2-5c3.8-4.3,2.4-7.7-1.2-11c-0.5-0.7-0.9-1.4-1.1-2.2
	c-2-2.5-5.7-3.1-7-6.3c-0.3-1.5,0.6-2.6,1.4-3.6c4.1-5.1,7.3-10.7,9.7-16.8c0.8-2.2,2.2-4.1,4.9-4.5c3-0.4,5.3,0.4,6.3,3.5
	c0.5,1.8,1.2,3.4,1.8,5.2c0.8,3,0.1,6.2,0.6,9.5c0.7-2.5,1.5-4.6,2.2-6.9C845.7,506,845.4,500.7,849.1,497.1z M792.7,305.9
	c3.8-6,8.7-10.3,16.1-11c3.8-1.2,6.2-0.1,6.9,4c-1.7,3.2-0.5,7.2-2.8,10.2C803.8,316.1,797.1,315.1,792.7,305.9z M394.9,229.9
	c3.1,3.7-1.4,6.7-0.9,10.2c-2.1,0.9-3.6,2.8-3.9,5.1c-0.3,1.5-0.7,3.3-3,2.9c-3.8-3.7-5.6-8.5-6.8-13.5s2.4-7.9,7.4-6.1
	C390.1,229.4,392.3,230.4,394.9,229.9z M833,600h28.9c-6.7-3.8-14.2-3.7-19-8.9c4.9-1.3,9.5-0.1,14,1.9c1.3,0.7,2.8,1.1,4.2,1.1
	c4.6,0.5,7.3,2.8,6.7,7.8c-9.8,0-19.6,2.5-29.5,0.1C836.5,601.5,834.5,601.5,833,600z M209,239.1c-3.4,0.5-3.6,3.7-4.9,5.9
	c-0.1-1.7,0-3.5-2.2-3.9c-1.9-0.4-3-1.9-4.5-2.9c-2.2-1.5-4.6-2.9-4.3-6.1c0.4-3.6,3.7-2.6,5.8-3.5c0.4-0.2,0.9-0.5,1.3-0.7
	c2.3,0.4,3.9,2.1,5.9,3.2C207,233.8,208,236.5,209,239.1z M766,444.9c-3.3-0.4-4.8,1.9-5.6,4.5c-1,3.1-1.6,6.4-2.5,9.5
	c-1,3.4-2.4,6.5-6,7.9c1.8-5.6,1-11.4,1.1-17.1c0.1-5.9,2.3-7.8,8-6.4C762.6,443.7,764.6,443.5,766,444.9z M701.9,364.9
	c3.2,0.4,6.5,0.5,9.7,1.2c4,0.8,8.1,0.8,12.1-0.2c-0.3,1.7-1.9,2.1-3,3c-2.3,1.7-3.1,4.7-1.9,7.3
	C709.9,375.8,703.7,371.7,701.9,364.9z M562.2,350.1c1.8,0.8,3.6,1.5,5.4,2.5c0.9,0.5,1,2.5,2.6,1.5c1.2-0.7,0.8-2,0.9-3.2
	c0.3-3.8-1.2-8.1,3-10.9c0,3.6,0.2,7.3,0,10.9c-0.1,2.8,1.2,6.3-4.5,6c-3-0.2-2.1,4.5-2.5,7.2C559.6,358.4,559,356.7,562.2,350.1z
	 M404.8,220.2c5.4,1.9,6.5,4.1,4.3,8.8c-2,4.3-3.5,4.6-6.6,1c-1.9-2.1-4.1-1.9-6.4-1.9C399.7,226.3,404.9,226.1,404.8,220.2z
	 M826,360.1c0.2,8.2-6.6,11.7-13,7C816.5,363.4,821,361,826,360.1z M293.1,420.1c-4.4,6.1-5.9,6.5-10.1,2.9c1.7-3.7,3.3-7.4,5-11.1
	C288.7,415.3,289,418.9,293.1,420.1z M223.1,500.1l9.2,4.7l1,2.1l-0.2,0.3c-6.8,2.6-15.2-1.4-15.7-7.5
	C219.3,498.4,221.2,498.8,223.1,500.1z M371.2,141c2.5,0.2,4.3-1.2,6.1-2.7c2.6-2.2,4.2-1.3,4.8,1.9c-1.8,3.8-4.5,6.1-8.9,6
	C372.5,144.5,371.8,142.7,371.2,141z M868.9,386c0.8-4-1.3-7.9-0.8-11.9c4.6-0.1,6.5,2.7,7,6.8C873,382.6,871,384.3,868.9,386z
	 M618.9,120.3c3,0.9,6,1.9,9,2.8c1,0.3,2,0.4,1.9,1.8c-0.1,1-1,1.1-1.8,1.3c-2.9,0.8-5.8,1.2-8.8,1.1
	C619,124.9,618.9,122.6,618.9,120.3z M433.2,196.9c-2.4,0.6-4.5-0.4-6.5-1.6c-1.1-0.6-2.7-1.1-2.2-2.8c0.5-1.4,2-1.4,3.4-1.5
	c2.4,0,5,0.5,7.2-1L433.2,196.9z M400.2,151c-6,0.3-6,0.3-6.2,9h-1c0-2.8,1.2-5.9-2.2-7.9c-1.1-0.6-0.8-2.1,0.1-3
	c1-1.1,2.5-1.5,3.5-0.6C396.1,150,398.5,149.7,400.2,151z M828.1,586.9c-1.4,0-2.6,0.9-3.1,2.1c-2,1.5-3.5,0.1-5.1-0.8v-0.1
	c0-0.7,0-1.3,0-2c1.4-6.2,4.4-2.4,7-1.1L828.1,586.9z M287.1,528c0,0.7-0.1,1.4-0.1,2.1c-1.5,1.1-2.8,2.5-4.9,2
	c-2.8-2.7-2.3-5.6-0.1-8.2c1.3-1.5,1.9-3.4,3-4.9C285.2,522.1,284.4,525.4,287.1,528z M282,532.1c1.5-0.9,2.8-2.5,4.9-2
	c0,1.2,0.1,2.3,0.1,3.5c0,6.5,0,6.5-6,4.3C283.5,536.3,283.5,534.3,282,532.1z M725,479c1.1-1.4,2.8-0.7,4.2-1.2
	c2.2-0.8,4.3-2.5,3.5-4.8c-2.1-5.9-1-12.2-2.5-18.1c1.7-1.9,2.3-5,5.7-5c0.5,12,0.3,24.1-1.8,36C730.8,483.9,727.5,482,725,479z
	 M786,498l6.8,2.1c1.4,5.6,2.9,11.2,4.3,16.8c-0.6,5.6-0.7,5.7-5.5,3.5c-3.5-1.6-7-3-10.6-4.4c-1.4-0.6-2.7-1.5-2.9-3.1
	c-0.2-2,1.7-1.8,2.8-2.2c3.8-1.6,4.7-4.1,3.5-8.1C784,501.2,781.6,498,786,498z M558.1,312c-0.8-5.5,3.3-5.4,6.8-5.9
	c1,1.3,2.3,2.5,2.8,4c1,2.6,2.8,5.7-1.5,7.3c-3.6,1.4-6.4,1.3-6.6-3.7C559.6,313.2,558.6,312.6,558.1,312z M430.1,133.9
	c2.3,1.7,5,2.8,7,5c-1.9,2-4,3.8-6.2,5.5c-1.1,0.8-2.4,3-4.1,1.6s-0.2-3,0.5-4.4C428.5,139.1,430.6,137,430.1,133.9z M735.8,450
	c-2.6,0.8-2.5,4.8-5.7,5c-1.4-1.8-2.9-3.6-4.3-5.5c-2.5-3.2-2.3-6.1,1.1-8.5c1.2,0.5,2.4,1,3.6,1.3
	C734.9,443.2,736.7,445.7,735.8,450z M713.2,435.2c-0.3-1.7-0.1-3.6-1.3-5.1l10,1.9C720.2,436.4,716.3,434.6,713.2,435.2z
	 M871.9,349c0.4,2.1,1.1,4.5-1.7,5.2s-2-1.7-2.2-3.2C868.9,349.9,870.4,349.1,871.9,349z M248.1,446c2.4-7.9,3.5-15.9,5-24l6,6
	c-2.4,0.4-1.9,2.3-1.9,3.9c0,1.8,0,3.6,0,5.5C257.1,445.9,256.8,446.2,248.1,446z"/>
<path class="st6" d="M505.2,102.9c-2.9-5.7-4.9-11.4,0.5-16.8c4.2-4.3,18.8-4.3,23,0c1,0.9,1.4,2.3,1,3.6c-0.5,1.6-2.1,2.7-3.8,2.6
	c-2.9,0.1-6.1-0.5-7.9,2.8c-0.2,0.5-0.3,0.9-0.4,1.4c-0.5,2.1,1.4,5.2-1.5,6.3C512.6,104.1,508.8,105.7,505.2,102.9z M871,602
	l-3.1-0.1c-1.6-3.8-3.9-6.6-8.4-6.9c-1.2-0.1-2.2-0.9-2.5-2c5.1-3.2,10.4-2.5,15.6-0.6c4.5,1.7,5,3.4,2.4,7.7L871,602z M696.8,405.9
	c-4.3,0.4-5-2.9-5.8-5.9c-2.2-9.2-6.9-17.1-12-24.9c-2.4-7.5-7.6-10.5-15.4-10.5c-5.7,0-11.6-0.2-16.6-3.8
	c18.3-6,34.3,2.2,40.9,20.8c1.5,4.2,2.3,8.6,4.9,12.4c1.3,2,2.9,3.1,5.3,3.1C698.5,400.2,699,403.3,696.8,405.9z M718,544
	c-4.5,1.4-7.6-0.1-9.8-4.3c-1.7-3.3-3.3-6.8-7.2-9.3c6.5-1.2,12.2-2.4,18.1-3.1c3.5-0.4,6.4,1,7.5,4.9c0.3,1.2-0.2,2.8,1.2,3.6
	c-1.5,2.2-3.8,3.6-6.4,3.8C718.9,540.1,717.5,541.3,718,544z M632.8,404.1L619,400c1.3-1.4,2.4-3.4,4.1-4.2c5.4-2.7,8.4-6.7,8-12.8
	c3.1,2.7,3.3,6.3,2.6,9.9C633.1,396.6,632.8,400.4,632.8,404.1z M351,387.1c-4.5,1.9-9.1,0.5-13.7,0.8c-0.9,0.1-2-0.3-1.9-1.2
	c0.3-4.9-2.3-10.1,1.5-14.7C339.5,379.1,345.3,383,351,387.1z M527.9,358.2c0.2,2.2,2.5,3,3.1,5c-0.1,2-0.8,3.5-2.8,4.1
	c-2.1-2-4.3-3.9-6.3-5.9c-1.9-1.6-3-4-2.9-6.5c4,0.5,5.5-1.4,5-5.2c-0.2-1.3-0.8-2.5,0-3.8c3,0.3,3,2.7,3.2,4.7
	C527.5,353.3,527.7,355.7,527.9,358.2z M376,677.2l1.1-2.2c2.1-0.6,1.5-3.2,3.1-4.2c0.8,2.8,1,5.7,2.6,8.3c-0.3,3.1-3,5-3.7,7.9
	L376,677.2z M680.9,828c2,0.7,2,2.5,2.1,4.1c0,3.6-3.3,4.6-5.1,6.8C676,834.4,675.7,830.4,680.9,828z M415,872c0.2-2-0.7-4.2,0.8-6
	C415.9,868,416,870.1,415,872z M866,386.1c-1.1,1.2-2.7,1.9-4.4,1.9c-4.6,0.2-4.6,2.8-3.1,6.1c2,4.4,6.4,6.5,9.5,9.9
	c-2.9,0.3-5.9-0.3-8.8,0.8c-1.8,0.6-3.8,0-5-1.4c-2.7-2.5-5.6-4.6-8.7-6.5c-2.4-1.5-3.1-3.6-0.2-5.3s4.1-4.1,2.3-6.9
	c-2.1-3.3-4.3-0.5-6.3,0.6c-1,0.6-2.2,0.8-3.3,0.7c1.4-3.2,3.9-5.7,7.1-7.1c2.7-1.3,5.4-2.6,6-6c1,3.1,3.3,5.6,6.4,6.8
	c1.5,0.6,2.8,1.8,3.6,3.2C862.5,384.3,864.7,384.4,866,386.1z M241.2,363.1c1.4-3.5,1-7.2,0.7-10.8s-2.1-6.4-5.6-7.6
	c-5-1.8-9.9-3.9-15.1-4.7c0.7-1.7,1.3-3.4,2.1-5c1.5-2.8,3.7-3.8,6.6-2.1c3.1,1.8,6.3,3.7,9.3,5.8c1.5,1,3.2,1.7,4.8,2.5
	c2,1,5.6-0.4,5.9,2.4c0.5,3.8,1.4,7.9-1.1,11.6C246.6,358.3,245.9,362.5,241.2,363.1z M269.1,351.1c0,2.5,0.5,4.9,2.9,5.9
	c7.6,3.1,7.9,8.6,6.5,17.2c-0.2,1-0.3,1.9-0.4,2.9c-3.4-1.9-4.9-5.2-6.7-8.4s-3.3-6.1-5-9.1C264,355.4,264.6,353.5,269.1,351.1z
	 M278.1,425.9c-0.4-1-0.7-1.9-1.1-2.9h5.9c4.2,1.9,7.1-0.6,10.1-2.9h1c1.4,1.4,1.7,3.5,2.9,4.9c-1.7,3-0.5,6-0.1,9.1
	c0.3,2,0.6,4.2-0.5,6.5c-2-0.9-2.1-2.6-2.3-4.3c-0.8-6.8-2.1-7.3-7.7-3.3c-0.7,0.4-1.5,0.7-2.2,0.9
	C280.9,432.5,278.7,429.4,278.1,425.9z M713,360c4.2,2.7,7.6,2.9,11-1.7c2.8-3.8,6.3-2.6,8.8,2.5l-9.1,5.1c-7.5,4.5-14.6,1.4-21.8-1
	c0.5-3.2,2.9-2.8,5.2-2.9S711.7,362.7,713,360z M405,259c-2.3,2.6-1.8,5.9-2,9c-1.9-1.5-2-3.7-2-5.9c0.1-1.6,0-3.3-0.4-4.9
	c-0.7-2.1-0.6-5.5-2.9-5.9c-2.7-0.4-2.8,3.1-3.6,5.1s-2,3.1-4.2,1.9c-3.1-1.7-2-4-0.8-6.3c1-3.4,0.9-7.5,5-9.1
	c1.8,2.8,4.1,5.2,6.8,7.1C404.3,252.4,405.4,255.3,405,259z M776.9,586c2.7-0.3,6.1,0.4,6-4.1l0.1-0.2c2.7,0.9,3.8-0.9,4.9-2.8
	c2.7,0.3,4.9-0.9,7.1-2c2.1,2.7,0.5,4.2-1.8,5.4c-2.5,1.1-3.9,3.8-3.4,6.5c-2.4,0.3-3.1,2.3-3.7,4.2s-1.3,4.1-3.8,5.5
	C783.8,592.8,781.4,588.9,776.9,586z M323,439.1c0-8.4,0-16.7,0.1-25.1l1,1c2.5,4.6,1.1,9.6,1.2,14.5c0.1,2.3,0.9,2.7,2.8,2.5
	c-0.3,3.4,2.4,5.6,3.7,8.3c2.4,5,1.7,6.3-3.7,6.8C324.2,445.7,323,442.7,323,439.1z M239.1,439c8.5,0.2,9.1-0.4,8.4-9.2
	c-0.3-3.6,2.3-7.2,5.6-7.8c0.8,8.5-0.4,16.6-5,24v0.1L239.1,439z M801.9,363.1c-3.7-0.8-5.4,1.5-6.7,4.4c-1,2.2-2.1,4.4-3.1,6.6
	c-0.2-3.1,0-6.3,0.7-9.4c1.2-4.5,0.9-9.3-0.9-13.5C797.7,353.8,801.7,356.9,801.9,363.1z M608.1,425.1c-0.4,2.8,0.3,4.9,3.2,5.9
	c2.2,0.7,4.3,2.1,3.5,4.5c-1,2.9-3.5,1.3-5.5,0.8l-4.3-1.2c-3.1-0.4-6.2-0.8-6-5.1c2.2,0.2,4.1,0,5.2-2.4
	C604.8,426,606.4,425,608.1,425.1z M223.1,367l9,0.1c-0.4,3.6,0.9,7.4-1,10.9c-1.4,1.5-3.1,1.6-5,1.1l-0.9-0.2
	C223.7,375,222.6,371.1,223.1,367z M269,276.1c4.4-0.7,5.5-6,10-7.1c0.7,4.9-0.6,9.4-0.9,14C274.5,281.4,268.9,282.5,269,276.1z
	 M400.2,151c3.1,0.1,6,1.6,7.9,4.1c-5.1,0.6-9.4,3.2-14,4.9c-0.7-1-0.4-2.3-0.5-3.4C393.5,150.5,393.9,150.2,400.2,151z
	 M822.9,292.1c5.8-1.6,9.5-5.2,11-11.1c0.1,8.6,0.2,8.8,7.1,9.1c-5.3,3-11.1,3.2-17,2.9C823,293.4,822.8,293,822.9,292.1z
	 M781.9,443c0,2.8,0,5.6,0,8.4c0,1.4,0.5,3.2-1.7,3.5c-2,0.3-2.9-1-3.4-2.8c-0.7-2.5-0.7-5.8-4.8-5.4
	C775.4,445.7,779.2,445.9,781.9,443z M510.1,320l2.9,1c-1.3,2.7-2.5,5.4-3.9,8c-0.6,1-0.7,3-2.4,2.5c-0.7-0.2-1.1-1.9-1.5-2.9
	c-0.1-0.8-0.2-1.6-0.1-2.5L510.1,320z M406,113c3.4-3.3,7.7-1.6,11.6-1.9c2.1-0.2,4.2,0,6.4,0l0.1,2.9l-6,0.1L406,113z M216,246.2
	c-3-1.2-5.9-2.6-6.8-6.2l2.9-0.9c1.6,0.7,3.2,1.5,4.7,2.4C219.5,243.4,219.9,245.2,216,246.2z M175.1,292l3,6.9h-0.5h-0.5
	c-2.4-1.8-5.2-1.8-8-1.9C168.8,292.6,172.1,292.5,175.1,292z M179.1,306c-4-0.3-4.6-2-2-6C178.7,301.7,185.5,301.7,179.1,306z
	 M186.9,537.9c0.2,2.5,0.3,4.9,1.6,7.2c3.1,5.6,6.2,6,10.6,1.5c5.8-6,13.4-9.6,20-14.6l6.1-1.9c0.2,1.7-0.6,3.3-2,4.3
	c-8.8,6.4-17.5,13.1-26.5,19.3c-6,4.2-10.9,3.1-14.6-2.3S180,541.6,186.9,537.9z M209.2,493.2c-2.6,3.7-1.4,7.8-0.9,11.5
	c1.9,13.5-1.4,19.6-14.3,25.2c1.2-7.9,4-15.4,5.9-23.1c0.1-0.5,0.2-1.1,0.3-1.6c2.1-3.1,3.7-6.6,4.7-10.2l0.2-0.9
	C206.2,492.3,207.4,491.5,209.2,493.2z M272.9,430.1c0.1,1.3,0.1,2.5,0.2,3.8c0.3,3.3-1.3,5.5-4,7.1c-1.2-3.4-3.8-5.5-7-7
	C266.3,434.5,269.3,431.5,272.9,430.1z M285,508c0,3,0,6.1,0,9.1C283.5,514.3,283.5,510.9,285,508z M713.2,435.2
	c-0.8,3.5,1.5,6.3,2.1,9.5c1,4.8,1.6,9.5-2.4,13.4c-4.6-2.4-10.1-2.7-15-0.9c-1.4,0.5-3.5,1.2-2.6-1.5c1.2-3.9,0.6-7.9,1.3-11.8
	c1-6,3.6-10.6,8.5-14l6.8,0.4C714.3,431.4,714.3,433.1,713.2,435.2z M765,494c0.3,0.5,0.9,1.1,0.9,1.7c-0.7,5.5,2.5,8,7.2,9.4
	c-2,3.3-5.3,4.9-8.3,7.4c-3.9-3.7,1.7-7,0.3-10.5C763.1,499.3,762.9,496.7,765,494z M765,494v8c-1.8,0.1-2.7-1.5-4.1-2.1
	c0-1.8-0.2-3.7,0.2-5.5C761.8,491.6,763.3,491.3,765,494z M538,324c2.5-1.8,5.3-0.4,8-0.9c1.5,8.3,4.1,16.1,9.3,23
	c2,2.7,0,6-1.4,8.8c-7.2-1.8-7.1,4.8-9.4,9l-7.6-11.9c-1-1.1-1.5-2.6-1.2-4.1C536.9,340,537.5,332,538,324z M730.9,505h2.1
	c1.5,2,3,3.1,5.1,0.6c1-1.2,2.2-2,3.9-1.5c-1.6,4.5-4.2,8.7-7.7,12c-0.8,0.8-1.6,2-2.9,1.4c-1.2-0.5-1.8-1.7-1.4-2.9
	C731.2,511.5,727.3,507.9,730.9,505z M439.2,123.1c8.3,0.6,8.7,0.9,8.9,7c-2,3.3-2,7.1-2.1,10.8l-8.8-2c-3-0.5-5.5-2.3-7-5
	c-0.6-3.4,0.9-5.6,4-7C436.2,126.2,438,124.9,439.2,123.1z M423.1,250c-2.8-0.2-3.7-2.3-3.9-4.4c-0.3-1.6,0.7-3.2,2.4-3.5
	c0.3-0.1,0.6-0.1,0.9,0c2.6,0,3.3,1.9,3.4,4C426,247.9,425.4,249.6,423.1,250z M798.8,429.9c0-4.6-2.2-9-1.9-13.7
	c0.2-2.6,0.3-5,3-6.4c4.1,0,8-0.4,10.4,4.5c1.2,2.5,4.9,1.2,7.4,2.1c1.4,0.5,3.9,0.3,3.8,2.4c-0.1,1.9-2.3,2.2-3.9,2.1
	c-3.4-0.2-5.2,1.7-6.2,4.6c-1,2.7,0.3,4.3,2.5,5.8s2.5,3.4,2.2,5.7c-0.4,2.8-2.7,1.7-4.3,2.1c-3.7,0.8-6.1,2.7-5.5,6.9
	c0.8,0.9,0.7,2.2-0.1,3c-3.1,1.6-3.7,4.3-2.7,7.2c1.1,3.4,0.6,6.9,0.8,10.3c0.1,1.7,0,3.4-2.4,3.5c-2.8,0.1-2.6-1.9-2.6-3.8
	C798.9,454.1,798.8,442,798.8,429.9z M793,481c-4.2-0.8-7.8-3.4-10-7c5.6-3.9,6.6-3.6,9.8,2.6c0.8,1.4,1.5,2.9,2.2,4.4H793z
	 M817,453l-1-7c3.8,0.6,8.4-2.1,11,2.9C824.1,451.6,820.9,453.3,817,453z M826.9,474.1c-3.1-0.6-5.3-4.5-9.1-2.2
	c0.7-1.9-1.3-5.2,2.1-5.7s5.3,2,6.2,5.1C826.4,472.2,826.6,473.1,826.9,474.1z M630,148.1c-1.3-0.2-3.1,0.6-3.8-1.3s0.9-2.6,1.8-3.7
	l3.9-1.2C634.3,144.9,632.3,146.6,630,148.1z M818,299.1l-3-0.1c-0.6-3.6-3.5-3.6-6.2-4.1c2.7-2.5,6.1-4.5,6.2-8.8
	c1.5-1.5,0.7-3.4,1-5.1c2.4,1,2.9,3.3,3.6,5.5s1,4.5,3.3,5.7l1,0.9C823.2,296,820.9,298.3,818,299.1z"/>
<path class="st7" d="M197.8,558.2l9.3,1.9c2.6,1.5,5.2-0.6,7.8,0.1c3.3,2.1,3.2,4.3-0.1,6.3c-4.4,2.7-8.8,5.3-13.2,7.7
	c-2.1,1.5-5.1,0.9-6.5-1.2c0,0,0-0.1-0.1-0.1c-2-2.6-0.2-4.4,1.7-5.8C200.6,564.3,199.9,561.4,197.8,558.2z M164.1,297.9
	c1.5-1.4,3.4-0.6,5.1-0.9c3.2-1.6,6-1.8,8,1.9l-0.1,1.1c-0.4,2.4-0.3,4.5,2,6c0.8,3.3,3.5,3,5.9,3c2.7-0.1,4.9,0.4,6.1,3
	c-3.4-1.2-6.9-0.8-10.4-0.9c-1.5,0-3.4,0.3-4.4-0.4c-5.8-4-7.9-0.9-9.2,4.3c-3.7,2-5.2-0.2-6-3.3c-0.7-3.1,0.1-6.4,2.3-8.7
	C164.8,301.5,165.7,299.9,164.1,297.9z M900.9,600.9l3-4.8c2.8-2,5.1-4.3,5.2-8c0.1-1,0.9-1.8,1.8-2c1.6-0.3,3.2-0.7,4.8-0.9
	c2.1-0.3,4.3-1,5.6,1.6c1.1,2.1,0.5,4.7-1.4,6.2c-4.3,3.6-8.4,7.5-14.7,7.2C903.8,600.3,902.4,600.5,900.9,600.9z M927.1,553.3
	c0.4-5-2.9-4.7-6.2-4.1c-6,1-7.8,0.1-10.6-5.8c4.4,0.3,9.5,4.2,12.4-2.4c1.8,0.9,1,3,2,4.4c1.6,0.3,2.4-2.3,4.3-1.4
	C933.5,549.3,933,551.5,927.1,553.3z M929,318c-0.1,1.5,0,3.4-1.7,3.7c-2.3,0.4-2.2-1.9-2.8-3.3c-1.1-2.3-1.7-5.2-5.4-4.1
	c4.2-5.2,6.3-11.7,5.9-18.4c2.7,2.7,2.9,6,2.4,9.6C926.8,309.8,926.3,314.1,929,318z M227.2,536.2c-0.4-2.1-1.4-4.1-1.1-6.3
	c0.7-4.3,4.3-4.6,7.4-5c2.3-0.3,5.1-0.6,5.7,2.9l-0.1,1.3C232.8,527.7,230.1,532.3,227.2,536.2z M783,582c-7-2.4-7-2.4-5-10
	c1.4,1.4,2.8,2.5,5,2.1c0.5,1.3-0.8,1.9-1,3c0.3,0.7,0.7,1.3,1,2c0.7,0.6,0.9,1.7,0.5,2.5C783.3,581.7,783.1,581.8,783,582z
	 M373.8,440c-1.2-1.4-1.2-3.5,0-4.9C373.8,436.7,373.8,438.4,373.8,440z M446,378.9c1.5-1.4,3.3-0.6,5-0.9
	C449.6,379.8,447.7,378.6,446,378.9z M212.1,409c2.5-0.1,5.1-0.1,7,1.8c1.1,1,2.1,2.4,1.7,4c-0.7,2.1-2.2,0.3-3.4,0.3
	c-3.5-0.1-5.3,1.4-5.4,5c0,3.3,0.1,6.7,0.1,10c-0.9-0.3-1.8-0.7-2.8-0.9c-6.3-1.6-7.4-3.2-7.3-11.1C207,416.7,208.1,411.2,212.1,409
	z M783.9,204.1c-0.6-1-1.3-1.9-2.1-2.7c-5.5-5.4-9.9-4.3-12.4,2.9c-0.5,1.6-1,3.2-1.4,4.8c-1,0.1-2,0.2-2.9,0.5
	c-1.7,0.5-3.4,1-4.5-0.7c-1.3-1.9,0.1-3.1,1.7-3.9c1.8-1,1.6-2.7,1.8-4.3c0.4-3.4,2.3-5.4,5.8-5.5c1.5-0.1,3,0,4.5,0
	C781.3,195.1,782.9,196.6,783.9,204.1z M278.1,167.2c0.3-3.6-1-5.6-5-5.1c1.2-2.6,3.6-2,5.8-2.2c3-0.3,5.3,1.6,8.1,2.2
	c1.8,2,2.8,4.2,2,6.9C285.3,169.2,281.7,168.2,278.1,167.2z M449,130l-0.9,0.1c-1.1-4.6-5.7-5-8.9-7c0.8-3.6-2.6-4.8-4.1-7.1
	c7-2.4,10.1,3,13.9,7C450.7,125.4,450.8,127.7,449,130z M328,432c-1,1.2-2,2.4-2.9,3.6l-1-0.5V415l3.9,3
	C328,422.7,328,427.3,328,432z M866,386.1c-2.2-0.3-4.6-0.1-5-3.1c2.9-2.5,2.4-7.7,7.1-8.8c2.1,3.8,3.2,7.7,0.8,11.9H866z
	 M268,176.1c2.7-0.3,5.5,0.6,8-1c0,2.1,0.3,4.4-0.1,6.4c-0.5,2.7-2.3,4.4-5.3,3.8c-3.5-0.7-1.5-3.3-1.1-4.6
	C270.3,178.5,269.6,177.3,268,176.1z M794.9,563.2c-3.4-0.1-6.9-0.2-10.3-0.5c-1.2-0.1-2.9-0.6-2.9-2.2c0-1.3,1.6-1.4,2.7-1.7
	c2.2-0.6,4.4-1.1,6.6-1.7C791,560,794.2,560.7,794.9,563.2z M394.2,243c-1.7,3.1-3.3,6.1-5,9.1l-2.1-4c1.9-0.9,1.8-2.8,2.1-4.5
	c0.5-2.4,1.4-4.9,4.8-3.5L394.2,243z M813,309.1c-0.2-3.5-0.2-7,2-10.1c0.9-0.8,2.2-0.8,3,0.1c-2.3,1.5-2.3,3.5-1.6,6
	c0.6,2.2,1.7,4.5,0.7,7C816.2,310.3,814.5,309.9,813,309.1z M851.9,289c2.3-1.3,4.5-2.6,3.9-5.9c1.2,0.5,2.3,1.1,3.3,1.9
	c1,1,2,2.3,1.2,3.9c-1,1.9-2.5,1.6-4.2,1.1C854.8,289.6,853.3,289.3,851.9,289z M229.1,384.1c3.6-1.5,4.9,0.1,4.6,3.6
	c-0.1,1.1-0.4,2.3-0.6,3.4c-2.2-1.1-4.4-2.4-7-2C227.4,387.6,229,386.3,229.1,384.1z M665,109c0.7-0.7,1.7-1.1,2.7-0.9
	c3.8,0.4,3-1.7,2.3-3.9c3.5,0.3,6.8,2,9,4.8H665z M449,130v-7c5.4,0,3.7,4.1,4,7.1L449,130z M819,238.4c1.2,0.2,1.9,0.9,1.6,2
	s-1,2.2-2.3,2.1c-1-0.1-1.8-0.9-1.7-1.9c0,0,0,0,0-0.1C816.9,239.3,817.8,238.4,819,238.4z M833.1,359.9l-7.1,0.2
	C828.3,358.4,830.7,358.7,833.1,359.9z M398.1,302c1.4,1.5,0.8,3.3,1,5.1C397.4,305.6,398.2,303.7,398.1,302z M711,515.1
	c0.7,3.3,4.7,3.2,6,5.8c-2.4,0.5-4.8,1-7.1,1.6s-5,1-5.4-2.1c-0.3-2.8,0.6-5.7,4.6-5.4C709.7,515.1,710.3,515.1,711,515.1z
	 M735.1,493.2c-0.7,3.9-1.4,7.9-2.1,11.8c-0.6,0.6-1.5,0.6-2.1,0c-0.3-3.4,1.2-7-1.9-9.9c0.2-0.9,0.5-1.9,0.8-2.8
	c0.7-1.5,1.6-3.2,3.5-2.8S734.8,491.8,735.1,493.2z M726.9,502c0,2.8,0,5.6,0,8.4c0,2,0.3,4.4-2.7,4.3c-2.5-0.1-2.3-2.3-2.3-4.2
	c0-0.5,0-1,0-1.5c3,0.3,4.5-0.9,4.1-4.1C725.7,503.9,726.1,502.8,726.9,502z M787.9,579c-0.3,1.7,1,3.8-1.3,4.8
	c-1.8,0.8-2.5-1-3.5-2c0-0.9,0-1.9-0.1-2.8H787.9z M805.9,449c0-1,0-2,0.1-3c3.2,0.2,6-0.9,8.9-1.9l1,2c1.6,2.1,2.7,4.3,1,7
	C812.5,453.7,809.7,450,805.9,449z"/>
<path class="st8" d="M143.3,476.2c-3,4.1,2.3,4.1,3.2,6.3c-6.5,2.2-10-0.1-10.3-7.2c-0.2-6.5-0.1-12.9,0-19.4c0.1-8.1-5.1-12-13-9.8
	c0-1.7,0-3.5,0-5.2c5.6,1.7,10.3-2.4,15.7-2.1c1.9,1.6,1.5,3.9,1.6,6 M922.1,332.9c-2.5-3-3.1-7-5.6-10.2c-2-2.5,2.1-5.4,2.6-8.4
	c3.2-2.4,4.6,0,5.8,2.3c1,1.9,1.8,3.7,4.1,1.4c0.3,0,0.7-0.1,1-0.2c2.3-1,4.2-4.7,7.3-1.7c2.8,2.8,1.9,6.1,0.5,9.2
	c-0.3,0.6-0.6,1.2-0.9,1.8c-0.3-0.4-0.7-0.7-1-1.1c-1.1-3.1-2.4-4.7-4.9-1c-1.2,1.2-3,1.9-3.2,3.9
	C927.2,332.1,926.2,334.9,922.1,332.9z M665,109c-5.2-0.9-12-8.3-11.7-13.1c0.2-3.6-1.5-7.6,1.8-10.8c-0.1,0.8,0,1.6,0.1,2.4
	c1.5,7.6,3,8.5,9.8,5.5c0,1.5,0.7,3.2-1.4,4.1c-3.5,1.6-2.3,3,0.4,4c2.1,0.8,4.3,1.3,6,3c2.4,2.5,2.7,4.3-1.6,4.3
	C667.2,108.6,666,108.3,665,109z M708.9,88.1c0.7,2.1,2.5,3.7,2.1,6.4s0.5,4.5,3.6,4.9c2.5,0.3,3,2.4,3.2,4.4
	c0.3,2.2,0.4,4.5-1.8,5.8c-2.6,1.4-5.3,2.9-6.1-2c-0.7-4.4-5.4-6.8-6.1-11.3C708.9,95.7,707.2,90.8,708.9,88.1z M68.2,429.1
	c0.6-4.5-0.8-7.5-5.8-8.5c-2.6-0.5-3.4-2.9-3.4-5.4c0-2,0.1-4,0.1-5.9c3,1.4,7,0.3,9.1,3.7c-0.6,1.5-3,1.2-3.3,3.1
	c2,0.4,2.5-1.9,4.1-2c2.8,2.7,5.9,4.5,10,4.1C74,420.3,72.2,425.8,68.2,429.1z M214.9,560.1c-2.6,0.9-5.3,4-7.8-0.1
	c3.5-2.2,6.4-4.1,6.9-9.3c0.7-7.3,8-9.8,13.1-13.7c-0.8,6.1-4.2,11-8,15.5C217,554.6,215.6,557.2,214.9,560.1z M820,190.1
	c-0.1-0.3-0.2-0.7-0.2-1c2-9.3-2.7-14.4-10.9-17.2c-0.4-0.1-0.7-0.7-1-1c0.4-3.4-0.4-6.9,1.2-11.1c2.8,7.2,7.2,12.1,12,16.9
	C826.4,182.1,826,185.2,820,190.1z M900,227c-6.5-4.4-14.3-5.7-22.2-8.5c3.5-3.6,7.3-2.6,10.7-1.9c3.1,0.6,6,1.9,9.2,1.3
	C897.7,221.1,899.3,224,900,227z M164.1,297.9c4.3-0.2,4.5,1.1,1.8,4.2c-1.9,2.3-4.4,4.5-4,8.1c0.4,3.3,1.4,5.4,5.2,4.9
	c-1.4,1.7-2.7,4.8-5.2,3.5c-2.8-1.5-3-5.1-2.6-8c0.5-3.4,0-6.2-2.3-8.7C158.5,299.1,161.5,298.8,164.1,297.9z M110.1,411
	c0.7,1.9,2.8,2.1,3.9,3.4c2,2.2,4.1,4.3,2.1,7.6c-3.4,3-5.3,8-10.8,8.1c2.3-3,4.7-6,6.8-9.1c1.5-2.2,1.2-4-1.9-3.8
	c-2.1,0.1-4.5,1.6-5-1.8S107.7,411.6,110.1,411z M155.1,230.1c-4.3-0.2-8,1.9-11.9,3.4c-1.3,0.7-2.7,1.2-4.2,1.5
	c-1.8,0.2-3.4-1-3.7-2.7c-0.6-2.2,1.5-2.1,2.7-2.7c5.4-2.7,11.2-2.6,17-2.6L155.1,230.1z M150.1,565c4.1,2.2,8.8,1.3,13,2.7
	c-4-0.3-6.1,0.8-4.2,5.3c0.4,1,1.4,2.8,0.1,3.6c-1.7,0.8-3.7,0.6-5.1-0.5C149.6,573.4,150,569.1,150.1,565z M200.1,228l-3.2-2.8
	c3,0,5.9-0.1,8.3-2.2c1.4,0.4,2.9,0.8,4.3,1.1c2.4,0.6,4,1.7,3.5,4.4s-2.6,2.6-4.6,2.5c-0.8,0-1.6,0.1-2.5,0.1
	C203.2,231.6,201.6,230,200.1,228z M125.2,515.3c1.2,2.7,4.7,3,5.9,5.7c-5.2-0.1-10.6,1.2-15.3-2.2c-1-0.7-2.7-1.3-2-2.9
	c0.5-1.3,2-0.7,3.1-0.7C119.6,515.2,122.4,515.2,125.2,515.3z M944.9,529.2c-0.7,0.7-1.7,1-2.7,0.8c-1.4-0.2-3.2,0.8-4-1.1
	c-0.6-1.4,0.4-2.6,1.2-3.6c1.7-2.2,3.7-4.2,5.5-6.3C946,522.4,942.2,525.8,944.9,529.2z M344.1,118.2c-0.1,1.2-0.1,2.3-0.2,3.5
	c0,1.2-1,2.2-2.2,2.2c-1.3,0.1-2.4-0.8-2.5-2.1c0-0.1,0-0.2,0-0.4c-0.1-2.8,0-5.6,0.1-8.4C340.4,115.1,339.6,119.2,344.1,118.2z
	 M819.9,118.1c-5.1-3.9-2.3-9.4-2.8-14.2C818.3,108.6,822.7,112.6,819.9,118.1z M124.1,311c1.8,0.1,3.4,0,3.9-2.2
	c0.4-1.5,1.2-2.8,2.4-3.7c0.8-0.7,1.6-2.1,2.9-1.5c1.5,0.7,0.8,2.3,0.6,3.6c-1.7,1.2-3.5,2.4-5.2,3.6S125.7,312.8,124.1,311z
	 M644.3,292.1c4.1-2.5,9.1-2.2,14.2-1.2c1.7,0.3,3.4,0.1,4.1,2.1c0.8,2.1-0.4,3.5-1.8,4.8c-0.5,0.5-1,0.9-1.5,1.3
	c-1.3,1.1-2.1,2.3-0.8,3.8s2.5,1.1,3.9,0.1c6.8-4.3,8-4,12.7,2.8c3.5,5.2,7.4,9.9,14.2,10.9c2.3,0.3,2.5,1.4,1.6,3.4
	c-2.2,5.2-4.7,6.1-10,3.6c-2.6-1.2-5.3-0.9-7.8-0.6c-4.6,0.5-8.5-0.9-12.3-3.2c-12.4-7.6-24.1-15.9-34.1-26.5
	c-4.5-4.8-3.7-13.1,1.8-16.6c2-1.2,3.8-2.8,6-3.5c3.6-1.2,5.1,0.4,4.3,4c-0.5,1.9-1.3,3.8-1.8,5.7
	C635.4,287.7,638.7,292.2,644.3,292.1z M223,434.9c-2.3,0.1-4.4,0.5-5.9-2.2c-0.9-1.7-3-2.4-5-2.8c-2.3-3.9-1.6-8-0.8-12.1
	c0.7-3.5,4.1-3.9,7.3-4.4c-1.6-3.3-4.6-2.8-6.9-3.6c-1.6-0.9-2.8-1.9-1.7-3.9c1.4-3.8,4.6-5.9,7.5-8.3c1.8-1.5,4.7-2.5,4-5.6
	s-3.2-4.4-6.5-4.1c-2,0.2-3.6-0.3-4-2.7c-0.3-2.2,0.9-3.2,2.6-4.2c3.6-2.3,7.6-2.1,11.5-2.3c0.5-0.2,1-0.2,1.4,0
	c2,1.3,3.4,2.9,3.5,5.4s-1.6,4-4,4.8c0,1,0,2-0.1,3c-1.1,12.5,0.7,25,5.4,36.6c0.3,1.1,0.5,2.2,0.6,3.4
	C229.4,434.1,225.8,433.2,223,434.9z M666.8,232.9c0.8-2.6,2.7-3.1,5.1-2.6c0.7,1.1,1.2,2.3,2,3.4c1.3,1.9,2.2,3.4-0.2,5.4
	c-2.6,2.1-2,5-0.8,7.7c1.1,2.6,2.2,5.1,3.4,7.7c1.1,2.3,0.6,5.1-1.3,6.8c-2.4,2.1-3,4.5-3,7.4c0,1.7-0.4,3.5-2,4.3
	c-3.6,1.7-2.8,3.8-0.9,6.1c2.3,1.6,5.9,1.3,6.9,4.9c-3.4,3.8-7.7,1.7-11.7,1.6c-1.8-0.1-1.2-2.4-1.3-3.8c-0.3-5.3,0.9-10.6-1.4-15.7
	c-0.9-2,0.8-2.5,2-3.3c6.2-4,7.4-7.8,3.1-13.5C662.2,243.5,665.8,238.4,666.8,232.9z M278,206.3c0-3.5,0-7,0-10.5c0-2.5,1-3.1,3-1.7
	c4.3,3,9.3,5.1,13,9.2c2.5,2.8,3.8,5.5,0.9,8.7c-1.8,2-1.9,4.6-2.5,6.9c-0.9,3.7-3,5.6-6.8,4.9s-7.3-1.9-7.4-6.6
	c-0.1-3.7,0-7.3,0-11L278,206.3z M319,187c2.8-7.1,9.4-7.8,15.5-8.7c2.9-0.4,4.9-0.9,5.7-4.2c0.4-1.9,1.9-3.9,4.1-3.6
	c2,0.3,1.3,2.7,1.8,4.2c0.7,2.2,0.5,5.1,4,5.5c2.2,0.2,4.2,1.5,3.5,3.8s-2.6,5.1-5.6,4.7c-2.5-0.3-5.5-0.5-7.3-2.7
	c-2.9-3.5-5-1.9-7.1,0.8c-1.9,2.4-3,5.7-6.5,6.4c-1.8,0.3-3.5,1.1-5.3,0.8C317.9,193.4,316.8,190.4,319,187z M867.9,454l1.8-1.2
	c4.5-1.2,8.7-3.1,12.6-5.7c3.5-2.5,8.8,0.1,9.3,4.3c0.2,1.8-1.1,1.9-2.1,2.3c-5.1,1.9-5.4,5.6-3.2,9.6c1.7,3.2,1.3,5.6-1.6,8.1
	c-2.3-3.8-6-5-10.3-4.4c-1.1,0.2-2.1-0.5-2.4-1.5c0-0.1,0-0.3,0-0.4c-2.6-1.7-5.8-3.1-4.1-7.2C867.9,456.6,867.9,455.3,867.9,454z
	 M931.9,468c5.6,8.1,4.2,13.8-4.2,17.3c-1.3-0.5-0.8-1.7-0.8-2.5c0.2-1.7-1.1-3.3-2.8-3.5c-0.2,0-0.3,0-0.5,0
	c-1.9-0.1-3,1.2-3.5,2.9c-0.3,0.9,0,2-0.4,2.9c-0.9,2.2-3,3.7-5.4,3.7c-2.1,0-2.9-1.8-3.4-3.7c-0.6-2-1.4-4-2.1-6.1
	c-0.3-4.5,2.2-7.2,7.7-8.1c2.9-0.5,6-0.4,8.7-1.9C927.4,468.1,929.4,466.3,931.9,468z M810.1,274.2l4.8-4.5
	c1.4,4.9-0.2,10.2,1.5,15.1c0,5-2.7,8.2-6.8,10.7c-7.1,1-11.6,6.4-16.9,10.4c-3.4-1.7-3.6-10.1-0.3-12.5c3.6-2.6,7.4-5,11-7.7
	C807.3,282.9,810.7,279.6,810.1,274.2z M322.8,267.2c-5.4-4.4-7.1-10.7-8.6-17c-0.9-3.8,2.9-5.9,7.1-4.5c6.3,2.2,10.9,11.2,9.2,18.1
	c-0.4,1.8-1.1,3.5-1.7,5.2C326.1,271,324.5,268.7,322.8,267.2z M878.7,442.1c-3.9-1.2-7.6-3.1-11-5.4c-1.6-1.2-0.8-3.4,0-5.1
	c0.9-2.2,2.5-4,4.8-3.4c4.8,1.3,9.5,0.9,14.2-0.1c2.4-0.5,4.1,1,5.4,2.9c1.4,2-0.8,2.9-1.7,4.1C887.8,439.4,883.5,441,878.7,442.1z
	 M369,235.1c-3.4-3.5-3.4-7.8-2.7-12.2c1.2-7.9-1-12.6-8-16.3c-2.4-1.3-4.8-2.5-4.3-5.9c0.4-2.7,2.6-3.5,4.7-3.6
	c3.2-0.2,7.6-1.1,8.8,2.7c1.7,5.6,5.6,10.2,6.4,16.1c-3,1-3.4,3.4-3.6,6.2C370.1,226.6,371.7,231.1,369,235.1z M780.9,216.1l-4,2
	c-6.9,2.5-8.1,1.4-7.8-7l-1.2-2c-0.8-5.1,1.9-11,5.5-12c4-1.1,8.1,1.6,10.5,7c0,0.3,0.1,0.6,0.1,0.9
	C786.2,210.3,785.6,212.3,780.9,216.1z M264,169l9.2-6.9c1.7-1.1,3.3-1.3,4.8,0.3c1.4,1.2,1.5,3.3,0.3,4.7c0,0,0,0-0.1,0.1l-2.2,7.9
	c-2.2,3.6-5.2,1.9-8,1c-3.4-0.2-5,2.1-6.3,4.7c-1.1,2.2-2.4,4.4-5.2,2.7c-2.4-1.5-1.8-4.1-0.9-6.2c0.6-1.7,2-3.1,3.8-3.5
	C261.8,173.2,263.5,171.3,264,169z M839,252.9l-10,0.2c-0.1-1.6,0-3.3-0.2-5c-0.2-2-3-3.9-1.2-5.9c2.2-2.3,5.4-3,8.7-3.1
	c3.8-0.1,7.6,0.5,11.2-1.5c1.2,3.9-0.2,6.7-2.7,9.2C842.8,248.8,840.9,250.8,839,252.9z M319,187c-1,4.7,0.5,6.5,5.1,5.8
	c1.1-0.1,2.1-1.1,3,0.3c-4.8,3.4-10,2-15.1,0.9l-2.2-3.8c-1-2.7-1.3-5.6-0.7-8.4c1.4-6.8,0.2-13.1-2.6-19.3c7.4-0.2,8.5,0.8,8.4,7.6
	c-0.1,3.1-0.8,6.2-0.9,9.4C314,183.1,314.9,186.2,319,187z M599,420c-1.2-0.3-3.2,0.7-3.7-1.2s1.2-2.5,2.5-3.2
	c4.3-2.6,5.1-6.1,2.7-10.6c-1.4-2.6-2.5-5.4-3.7-8.1c-0.7-1.6-1.3-3.2,0.5-4.4c1.6-1.3,3.8-1.5,5.5-0.5c3.5,2,6.5,9,4.5,12.6
	c-1.6,2.9-1.4,5.7-1.4,8.6C605.9,419.1,605.1,420,599,420z M212.8,332c-4.9,0.4-7.8-2.3-10.4-5.4c-1.3-1.4-1.3-3.5-0.1-5
	c1-1.6,3.1-2.1,4.7-1.1c0.1,0,0.1,0.1,0.2,0.1c3.4,2.2,7.5,2.8,11.4,1.7c2.7-0.7,5.3,1,6.3,3.8c0.5,1.3,0.9,3.5-1.2,3.7
	C219.8,330.2,216.5,332.7,212.8,332z M779.1,430.1c0,0.6,0,1.2-0.1,1.8c-0.5,2.4-1.9,3.5-4.3,2.4c-4.1-1.7-6.9-5.5-7.3-10
	c-0.5-4.8-2.2-10.3,3-14.2c1.4-1,2.6-1.4,4.1-0.7c1.2,0.4,1.9,1.8,1.4,3c0,0.1-0.1,0.2-0.1,0.3C772.2,419.6,773.9,425.2,779.1,430.1
	z M745.9,164.1c-2-0.4-4-0.9-5.8-1.7c-2.6-1.3-4.3-3.9-2.8-6.5c1.9-3.2,4.5-6.3,8.3-7.4c2.2-0.7,4.9-1.1,6.7,0.4s-0.2,3.7-0.4,5.6
	c-0.3,2.6-2.2,4.7-2,7.6C750,164.1,748.3,164.1,745.9,164.1z M897,458.6c2.8-4.3-0.5-8.2-2.4-12.4c-0.7-1.5-1.3-3.5,0.5-4.4
	c1.7-0.8,1.7,1.5,2.6,2.3c2.7,2.7,5.5,5.3,8,8.2c4.3,4.9,3.7,9.5-1.1,11.8C901.1,465.8,896.9,463.2,897,458.6z M915.8,371.9
	c2.6-2.6,6.1-4.2,8-7.8c1.2-2.3,4.1-1.1,6.2,0c4.6,2,4.9,3.2,2,7.9c-3.6,6.2-9.3,7.8-16,6.9C916.2,376.6,918.2,374.2,915.8,371.9z
	 M844.9,291.1c-0.8-0.1-1.7,0-2.2-0.9c0.2-2.8-1.8-4.4-3.4-6.3c-2.1-2.5-2.9-5.2-0.6-8.1c1-1.3,2.7-2,4.4-1.7c1.9,0.2,1.7,1.7,1.8,3
	c0.2,1.8,1.3,3.6,2.9,3.6c3,0,5.1,2.4,7.9,2.4c2.5,4.5-0.9,5-3.9,5.9C849.5,289.3,847.1,290,844.9,291.1z M675.9,284
	c-2.3-1.6-5.3-2.3-6.9-4.9c4-0.6,6.8-2.4,7.4-6.8c0.3-2.3,1.5-3,3.8-2.3c2,0.7,4.2,1,6.2,1.7c1.4,0.5,3.5-0.4,4,1.2
	c0.5,1.8-1.5,2.7-2.8,3.7C683.9,279.4,680.6,282.9,675.9,284z M917.8,428c0.4,5,2.2,9.9,2.1,15.3c-3.2-0.1-4.8-2.4-6.4-4.3
	c-3.4-4.1-5.1-9.2-7.4-13.9c-0.3-0.8,0-1.7,0.8-2.1C911.4,421.6,914.5,423,917.8,428z M401,106.1c-0.3-1.6-0.7-3.2-0.9-4.9
	c0-1.1,0-2.3,0.1-3.4c7.4,2,16.3-0.2,20.8,8.3c-0.3,2.9-2.7,3.3-4.8,3.3C411.1,109.3,405.8,108.8,401,106.1z M769.1,211.1
	c0.2,0.3,0.6,0.6,0.5,0.8c-0.7,5.7,2.4,7,7.3,6.2c-0.9,1.6-2.4,2.8-4.2,3.3c-3.4,1.1-5.2,2.7-5.2,6.6c0,2.1-1.6,3.8-3.7,3.8
	c-0.2,0-0.5,0-0.7-0.1c-2.5-0.3-3.3-2.4-3.3-4.8c-0.1-4.4,2.6-7.4,5.1-10.4C766.4,214.8,768.7,213.6,769.1,211.1z M205.1,468
	c-4,0.4-8.1-1.7-11.9,1.5c-0.8,0.7-2.9-0.5-3.6-2s0.6-2.1,1.5-2.8c2.9-2.2,6.2-2.8,9.8-2.8c2.8,0,6.1,1.3,8.2-2
	c1.3-1.3,3.4-1.4,4.8-0.1C212.8,464.5,208.8,466.1,205.1,468z M369,235.1c0-5.3,0-10.7,0-16c0-3.7,1.5-5,5-3.1
	c4.5,7.2,1.1,13.6-2.1,20c-0.6,1.3-1.5,2-2.9,1C369,236.4,369,235.8,369,235.1z M813,260l-4-2c0.1-1,0.2-1.9,0.4-2.9
	c1.7-6.7,1.7-6.7,8.6-5.2c1.7,0.4,3.8-0.2,3.9,2.6c0.1,2.4,0,4.6-2.3,6.1C817.7,259.9,815.3,260.4,813,260z M926,470
	c-0.4-3-2.8-4.5-5-5.8c-2.3-1.2-3.5-3.7-3.2-6.2c1.7-2,2.7-4.6,5-6.2c0.9-0.8,2.2-1,3.3-0.5c0.9,0.4,0.8,1.4,0.5,2.2
	c-2.2,6.3,0.3,10.8,5.4,14.5C929.6,467.8,927.9,469.1,926,470z M913,342.2c-1.6,5-1,11.6-9,11.7c-4-2.9-0.6-6.5-1.1-9.8
	c2.2-2.8,5.3-4.6,8.8-5.1C914.4,339.1,913.6,340.7,913,342.2z M401,106.1c3.5-0.2,6.9,1,10.3,1.6s6.9,1.3,9.8-1.6
	c2.2,0.1,4.9-0.3,5.7,2.5c0.5,1.7-1.2,2.4-2.8,2.6c-3.2,2.2-6.8,1.4-10.2,1.2c-2.7-0.2-5.3-0.4-7.8,0.7l-4.9-0.1L401,106.1z
	 M931.9,372c0.2-2.9,2.1-6.1-2-7.9c4.5-1.8,8.5-1.5,11.9,2.4c1.2,1.4,3.5,2.3,2,4.8c-1.1,2.4-3.9,3.4-6.3,2.4
	C935.7,373.1,934,371.9,931.9,372z M768.9,164.1c2-0.9,2.1-2.9,2.7-4.6c0.7-1.9,1.1-3.9,3.5-4.3c-0.8,3.7,1.7,5.3,4.2,7.1
	c2,1.5,5.3,2.9,2.5,6.2c-2.3,2.6-5.1,2.2-7.2-0.5C773,166.2,770.9,165.4,768.9,164.1z M686.2,112.8c-1.1,0.4-2.4,0-3.1-1
	c-1-1.1-0.5-2.2-0.1-3.3c1.2-2.7,8.4-4.9,10.9-3.4c1.2,0.6,2,1.8,1.9,3.2c-0.1,1.4-1.1,2.5-2.5,2.7L686.2,112.8z M226.1,379.1
	c1.6-0.8,3.3-1.1,5-1.1c4.3,0.8,6.6,3.4,7.1,7.8c0.4,3.8-0.9,5.8-5,5.2c-1.5-2.2,0.2-6.3-4-7C229.2,381.8,226.8,380.9,226.1,379.1z
	 M867.8,457.9c-0.5,3.5,2.9,4.7,4.1,7.2c-3.9,0.5-9-2.3-10.9,3.9c0.6,2.7-2,2.1-3.1,3l-1,0.1l0,0c-0.9-1.7-0.6-3.4-0.2-5.1
	c0.8-3.3,3.4-4.6,6.2-5.6C864.9,460.5,866.9,460,867.8,457.9z M594.9,291.1c0.3,3.1,1.4,6.1,3.2,8.7c1.1,1.3,1.2,3.2,0.3,4.6
	c-0.7,1.2-2.1,1.7-3.5,1.4c-1.8-0.5-2.5-2.3-2.8-3.8c-0.2-2.6-0.3-5.3-0.2-7.9c1.2-2.6-0.3-5.5,1-8.3
	C595.5,287.1,593.7,289.6,594.9,291.1z M212.1,409c-1.4,2.2-2.8,4.5-4.3,6.7c-1.2,1.9-3.5,2.8-5.7,2.2c-2-4.3-0.7-7,3.6-8.9
	c1.6-0.7,2.9-2.1,4.3-3.1C210,407.3,210.8,408.5,212.1,409z M70.9,392.2c-2,0.5-2-0.9-1.6-2c0.8-2.8,1.2-6.2,5.3-6.1
	c2.3,0,4.4,1,4.1,3.4C78.1,391.7,74,391.4,70.9,392.2z M730.9,122c0,2.7,0,5.4,0.1,8.1c-2-0.7-4.1-1.2-6.1-2
	c-1.6-0.6-2.9-1.9-2.8-3.7c0.2-2.3,2.2-2,3.8-2.1L730.9,122z M917.8,428c-3.4-2.1-6.3-5.5-10.9-5.1c0.7-2.1,0.9-5.2,3.3-5.4
	c2.7-0.3,4.6,2.3,6,4.5C917.4,423.8,918,425.9,917.8,428z M915.8,371.9c4.1,2.1,4.1,2.9,0.2,7c-3,0.5-5.8,0.3-5.9-3.7
	C910,371,913.3,372.2,915.8,371.9z M913,342.2c-0.1-1.2,0.1-2.5-1.3-3.3l2.3-2.8c2.6-0.6,5.2-1.4,7.8-0.1c0.7,0.9,0.7,2.1,0.1,3
	C920.1,343.2,916.2,341.6,913,342.2z M594.9,291.1c-1.4-1-0.7-2.7-1.3-4.4c-1.4,2.6,0.4,5.4-1.5,7.4c-0.1-4.3-0.1-8.6-0.3-12.9
	c-0.1-1.3-1-2.6,0.5-3.6c1-0.7,2.4-0.5,3.2,0.4c1.4,1.2,2.1,2.8,1.3,4.4C595.3,285.1,594.7,288.1,594.9,291.1z M731,130.1
	c3.7,0.5,4.8,4,7.1,6.1c-0.8,1.1-2.1,1-3.2,0.8c-2.7-0.3-6.5,1.3-7.8-1C725.6,133.5,730.4,132.6,731,130.1z M815,286.1l-0.2-16.4
	c0-0.2,0-0.5,0.1-0.7c0.3-0.2,0.5-0.4,0.7-0.6c1.1-1.8,2.5-3.3,4.7-2.8c1,0.2,1.4,1.7,1.5,2.9c0.2,2.7-1.8,3.2-3.8,3.5
	c-1.4,0.2-2.1,0.8-1.9,2.2L816,281C816.6,282.9,818.2,285,815,286.1z M864.9,298.5c0-2.4,0.4-5.1,2.9-5c3,0.2,1.9,3.2,2,5.2
	s-0.1,4.3-2.8,4.2C863.8,302.8,865.4,300,864.9,298.5z M800.9,591.9c-2.3-0.2-3.7,0.8-3.9,3.1c-3.7-0.4-5.8-2.7-7-6
	C794.6,586.3,797.8,589.1,800.9,591.9z M780.9,216.1c2.9-3.1,3.3-7,3-11c2.8,0.8,5.2,2.4,4.8,5.4C788.2,214.4,784.2,215,780.9,216.1
	z M855.9,584l8.6,2c1,0.2,2,0.6,1.9,1.8s-1.1,1.1-1.9,1c-3.2-0.3-6.5,0.9-9.6-0.8C854.5,586.6,854.9,585.1,855.9,584z M369,237.1
	l2.9-1c0.9,4.6-2.5,7-4.9,10h-1.9C363.6,241.8,367.2,239.8,369,237.1z M213.9,459.9l-4.8,0.1c-2.1,0.4-3.5-1.1-5.1-2
	c1.6-2.8,4.4-2.9,7-2.6C213.3,455.7,214.2,457.6,213.9,459.9z M157.1,455c-4,0.8-1.8-2.4-1.9-3.5c-0.1-2.9,1.5-4.7,4.6-4.4
	c2.4,0.2,4.9,0.7,7.3,1.1C163.2,449.6,157.7,448.6,157.1,455z M922,339.1l-0.1-3c0.1-1.1,0.1-2.1,0.2-3.2c2.6,0.1,4.9-1.5,5.7-3.9
	c-1,2.6,3.2,5.8-0.9,8.1C925,336.7,923.1,337.4,922,339.1z M473,108.2c-0.2,1.8-1.2,2.8-2.9,2.8c-2.6-0.1-3.1-2.4-3.4-4.2
	c-0.1-1.2,0.8-2.3,2-2.4c0.2,0,0.4,0,0.5,0C471.2,104.8,473,105.8,473,108.2z M296.2,139.2c-1.2-2.2-2-4.6-2.2-7.1
	c0.2,0,0.3,0,0.5,0c2.5,0.2,5.5,0.6,6,3.1C301,137.4,297.8,137.9,296.2,139.2z M223,434.9c2.3-3.3,5.7-2.9,9.1-2.9
	c0.5,3.4-1.2,4.5-4.3,3.9C226.2,435.7,224.6,435.3,223,434.9z M905.8,438.2c0,1.7-0.8,2.7-2.3,2.7c-1.7,0-3.2-1.3-3.3-3.1
	c-0.2-1.9,1.6-2.4,3-2.5C905.1,435.1,905.2,437,905.8,438.2z M855.9,584c-0.1,1.4,0.5,3-1.1,4.1c-2.9-0.1-5.5-1.6-7-4.1H855.9z
	 M322.8,267.2c2.1,0.4,3.7,2.2,6.1,1.8c-0.9,1.5-0.4,4.4-3.2,4C322.1,272.5,323.4,269.3,322.8,267.2z M857.9,472
	c0.9-1.2,2.6-1.4,3.1-3c0.8,0,1.7,0,2.5,0c1.6,0,2.6,0.7,2.3,2.4s-1.8,1.7-3.1,1.5C861.1,472.7,859.5,472.3,857.9,472z M931,325.1
	c0.1-0.8,0.3-1.6,0.6-2.4c0.6-1.4,1.2-3,3.1-2.5s1.2,2.1,1.2,3.3c0,0.8,0,1.6-0.1,2.5C934.4,325.2,932.7,324.8,931,325.1z M73,405.7
	c-0.2,1.4-0.9,2.7-2.3,2.7c-1.4-0.1-2.5-1.3-2.4-2.7l0,0c-0.2-1.2,0.6-2.4,1.8-2.6c0.2,0,0.3,0,0.5,0C72.2,403,72.8,404.2,73,405.7z
	 M150.1,472c1.6-2.6,2.3-5.6,2-8.6c-0.4-3.6,2-3.4,4.4-3.5c2.9-0.1,3.7,1.2,3.6,3.9c-0.1,1.8-0.9,3.6-2.2,4.8
	c-1.3,1.3-2.8,2.4-3.1,4.4C153.5,471.9,151.8,472,150.1,472z M849.8,196c-2.1,1.7-4.5,1-6.9,1.1l0,0c-0.5-2.1-1-4.6,1.4-5.6
	c3.1-1.3,4.1,1.8,5.6,3.6C849.9,195.4,849.8,195.7,849.8,196z M819.8,588.2l5.2,0.8l4,5.9c0.2,3.7-1.2,6.3-5.1,7.1
	C823.5,597.1,821.7,592.6,819.8,588.2z M842.9,197.1c-0.4,2.3-0.9,4.7-3.8,4.9c-1.3,0.1-3.3,0.7-3.8-1.1s1.1-2.5,2.4-3.2
	C839.3,196.8,841.2,197.2,842.9,197.1L842.9,197.1z M209.2,493.2c-1.4-0.3-2.9,0-4.1,0.9c-2.3-4.9-6.4-3.1-9.9-2.5s-6.9,1.3-9.1-2.6
	c0-1.3,0-2.6,0-4c0-6.9,1.7-8.6,8.7-10.2c3.5-0.8,6.9-0.6,10.3-0.7c6,8.7,12,17.3,18,26h-6C214.3,498,213.3,493.7,209.2,493.2z
	 M840.1,508l4.7,2.9l-3.4,9.6C838.8,515.8,840.5,511.8,840.1,508z M297,425c-3.3-0.3-2.9-2.7-2.9-4.9c1.1-1.3,2.3-1.3,3.3,0
	C298.7,421.7,298,423.4,297,425z M204.9,495c0.8,4.5-1.1,7.7-4.7,10.2C200.7,501.3,201.7,497.6,204.9,495z"/>
</svg>
