<?xml version="1.0" encoding="utf-8"?>
<!-- Generator: Adobe Illustrator 24.3.0, SVG Export Plug-In . SVG Version: 6.00 Build 0)  -->
<svg version="1.1" id="l1" xmlns="http://www.w3.org/2000/svg" xmlns:xlink="http://www.w3.org/1999/xlink" x="0px" y="0px"
	viewBox="0 0 1081 1080" style="enable-background:new 0 0 1081 1080;" xml:space="preserve">
	<style type="text/css">
		.st0 {
			fill: #03b5aa;
		}
	</style>
	<path class="st0" d="M453,871.8C453,871.8,453,871.7,453,871.8C453,871.7,453.1,871.7,453,871.8L453,871.8z M453,871.9
	c0,0,0.1,0,0.1,0C453.1,871.9,453.1,871.9,453,871.9L453,871.9z M1079.9,980c0,6.5,0.1,13,0.1,19.5c0,4.6-4.5,7.5-8,4.8
	c-17.4-13.4-38.2-13.6-58.5-16.7s-40.9-3.7-61.4-3.2c-6.2,0.2-12.3,1.5-18.1,3.8c-2,0.8-4,1.4-5.8,0.5c-5.2-2.6-11.3-3.4-15.9-7
	c-7-5.3-14.9-4.5-22.8-3.9c-0.8,0.1-1.7,0-2.5,0c0-0.1,0-0.1-0.1-0.1c0,0,0,0,0,0c-2.3,0-4.7,0.4-6.9,0c-8-1.2-12.7,2.7-16,9.3
	c0,0-0.1,0-0.1,0l0.1,0.1c-2.5,3-5.3,6-6.5,10.1c-3.2-6.3-1.9-11.9,3.4-15.3l0,0c0,0,0-0.1,0-0.1c5.1-4.1,7.5-10.3,12.2-14.8
	c3.6-3.4,4.8-3.1,7,1.5c0,0.1,0.1,0.2,0.1,0.3c3.9,1.3,5.8-3.3,9.4-3c0,0,0.1,0,0.1,0c0,0,0,0,0,0c2.3-0.9,2.9-2.4,2-4.7
	c0,0-0.1,0-0.1,0c-5.4-0.4-9.7-3.1-13.7-6.4c-8.5-7.1-16.2-15.1-24.8-22.2c-4.4-4-7.8-8.8-10.1-14.3c0,0,0,0-0.1-0.1
	c-14.1-11.8-29.7-21.2-46-29.6c-11.2-5.8-23-9.5-35.7-9.4c-2.3,0.7-4.2-0.7-6.4-0.8c0.9,1.9,0.6,3.8-0.9,5.6
	c-17.4-2.4-31.4-10.6-42.5-24.1c-1.4-1.7-2.9-3.5-5.4-3.9c-0.1,0.1-0.1,0.1-0.1,0.2c-1.9,1.5,0.3,3.2,0,4.8c0,0,0,0,0,0
	c1,8.4-0.4,16.6-3.2,25.4c-4.6-5-7-10.5-8.7-16.3c-2.8-9.4-2-19.1-1.8-28.8c0.1-5-1.3-9.2-5.2-12.4c0,0,0,0,0,0c0,0,0,0.1,0,0.1
	c-2.8-0.8-3,1.7-3.9,3.2c0,0-0.1-0.1-0.1-0.1c0,0,0,0.1,0,0.1c0,3.5-3.2,4.6-5,6.7c0,0,0,0.1,0,0.1c-14,21.3-26.1,43.8-43.5,62.8
	c-2.7,2.9-5.6,5.6-8.4,8.4c0,0-0.1,0-0.1-0.1c0,0,0,0,0,0.1c-11.2,10-24.5,16.1-38.4,21c11.3-9.2,25.7-13.7,35.4-25.1
	c0,0,0.1,0,0.1,0.1c0,0,0,0,0-0.1c8.1-12.3,17-24.2,23.5-37.5c2.7-5.2,4.9-10.6,6.6-16.1c6.5-23.6,20.2-42.8,36-60.8
	c11.2-12.6,15-27.4,11.5-43.6c-3-13.9-4.1-27.6-1.7-41.5c1.2-7.6,1.2-15.3,0-22.9c-0.9-5.9,0.6-10.8,5.3-14.7c1.2-0.9,2.3-2,3.1-3.3
	c2.3-4.5,5.1-6.5,10-3.5c1.8,1.1,2.6-0.2,3.1-1.8c1.2-3.6,0.2-6.9-1.3-10.1c-3-6.8-6.6-13.4-10.7-19.7c-9.6-14.8-10-29.8-2-45.4
	c2.2-4.3,4.2-8.7,6.4-13c2.4-4.8,4.4-5.6,9-2.6c9.5,6.2,18.7,12.7,28.1,19c2.9,2,5.7,4,8.7,5.8c4.4,2.6,5.9,2.1,8-2.6
	c1.2-2.5,2.2-5.2,3.2-7.7c0,0,0.1,0,0.1-0.1c2.3-3.5,4.9-6.9,3.2-11.5c-0.4-1,0.1-2.1,1-2.5c2-0.8,2.9,0.7,3.8,2.1
	c1.4,1.4,2.7,2.4,4.9,2.1c0,0,0-0.1,0-0.1c2.7-1.6,1.6-3.7,0.9-5.8c0,0,0,0,0,0c-8.6-9.8-20.8-12.7-32.4-16.9c-4.5-1.6-8-3.9-8.8-9
	c0-0.1,0-0.2-0.1-0.3c-0.8-1.1-0.6-2.4-0.6-3.6c-0.2-6.5-4.8-10.1-11.9-9.3c0,0,0,0,0,0v0c-1.2,2.2-0.5,4.8-2.2,6.8c0,0,0,0-0.1,0
	c-1.5,2.1-3.8,3.5-6.3,3.7c-2.5,0.5-3.9,1.7-3.4,4.4l16.3,11.8l12.5,5.2c-7.5,0.2-14.8,0.4-21.8-2.2c-5.2-2.8-10.2-1.8-15.2,0.9
	c-5.4,2.9-10.5,6.4-16.7,7.7c-1.5,0.3-2.9,0.5-4.4,0.7c-4,0.4-5.5-0.8-3.5-4.9c5.1-10.8,3-20-6.3-27.5c-1.4-1.4-3-2.7-4.5-3.9
	c-13-8.3-10.6-32.4,4.9-38.2c5.8-2.2,11.2-5.3,13.6-11.6c1.7-4.3,0.7-6.1-3.8-7.1c-1-0.2-2-0.3-3-0.5c-5.2-0.9-6.5-3-4.7-8
	c2.7-7.3,5.6-14.4,8.6-21.4c2.3-5.7,4.7-11.2,7.1-16.9H697c1.6-6.2,1.6-6.2-5.2-7.2c-5.5-0.9-7.5-3.8-6-9c2.6-8.7,0.2-16.7-3.3-24.5
	c-1.7-3.9-4.5-7.5-3.6-12.2c0.1,0,0.1,0,0.2,0c0,0,0-0.1-0.1-0.1c-2.4-7.5-7.6-10.5-15.4-10.5c-5.7,0-11.6-0.2-16.6-3.8
	c0.2-0.1,0.4-0.1,0.6-0.2c-0.1,0-0.1,0-0.2,0l-2.3-0.5c0,0,0,0,0-0.1c-0.1,0.1-0.2,0.2-0.3,0.3c-4-0.4-3.9-5.9-7.9-6.3
	c-1.6,1.8-1.2,4.9-3.8,5.9c0,0,0,0,0,0c0,0,0,0,0,0c-1.7,1.1-4.2,1.4-4.3,4.2c0,0-0.1,0-0.1,0c0,0,0,0,0,0c0.2,0.3,0.2,0.6,0.2,1
	c0,0,0.1,0,0.1,0c4.5,3.7,4.4,4.2-0.5,7.1c-1.2,0.6-2.4,1.2-3.5,1.8c0,0-0.1,0-0.1,0c0,0,0,0,0,0c0.4,4.1,4,6,6.1,9
	c0,0.2,0.1,0.3,0.1,0.5c0-0.2,0-0.3,0-0.5c3.1,2.7,3.3,6.3,2.6,9.9c-0.6,3.7-0.9,7.5-0.9,11.2l-0.1,0c-0.6,1.6-1.2,3.3-1.8,4.8
	c0,0.1-0.1,0.1-0.1,0.2c0.1,0,0.1-0.1,0.2-0.1l4,5.9c4.4,1.6,6.5,4.2,4.4,9c-2.2,5.1-5.2,6.6-10.6,5.2c-2.8-0.9-5.8-1.3-8.8-1.1
	c-0.5,2.6,1.6,3.4,3.3,4.3c3.8,2.2,2.9,4.7,0.4,7.1c-3.5,3.4-7.5,2.6-11.5,1.1c-3.4-1.3-5.9-1-6,3.5c-0.1,0-0.1-0.1-0.2-0.1
	c0,0,0,0.1,0.1,0.1c1.5,1.8,5.3,2.1,4.7,5.1c-0.5,2.5-3.8,2.1-5.9,2.8c-5.9,2-10.9,6.4-17.5,6.8c-1.3,0.1-2.7,0.9-3.6-0.5
	c-0.8-1.2,0.4-2.1,1-3.1c1.8-3.4,3.7-6.6,5.5-10c2.1-4,1.5-7.8-2.3-10c-6.4-3.6-8.7-9.1-9.3-15.9c-0.2-1.8-1-3.4-1.6-5.2
	c0,0,0-0.1,0-0.1c0,0-0.1,0.1-0.1,0.1c-1.8-2.6-2.9-5.6-3-8.8c-0.2-1.8-1-3.5-2.3-4.8c-4.3-4.8-6.2-4.6-8.9,1.1
	c-1.2,2.4-2.5,4.5-5.4,4.3c-2.7-0.2-3.6-2.4-4.6-4.6c-2.6-6.1-4.3-12.5-5-19.1c0.1,0,0.2,0,0.2,0c-2.2-1.3-3.9-3.4-4.6-5.8
	c-0.2-0.5-0.3-0.9-0.3-1.2c-0.1,0.2-0.2,0.4-0.2,0.6c0,0.1,0,0.2,0,0.3c-1.5-1.9-1.5-4.3-2.2-6.5c-1.6-4.6-4.4-7.4-9.7-6.4
	c0,0,0,0-0.1,0c0,0,0,0.1,0.1,0.1c-0.1,2-0.8,3.4-2.7,4.1c0,0,0,0,0,0c-4.2,6-4.2,6,3.9,13.3l0,0c0.6,0.2,1.2,0.5,1.8,0.9
	c1.4,1.1,3.5,1.7,3,4.1c-0.2,1-1.1,1.8-2.1,1.9c-2.4,0.1-3.1-1.7-3.9-3.4l0,0c-2.1-1-4.2-1.9-6.3-2.9c-7-3.3-13.1-1.9-19.1,4.9
	c1.4-12.4,4.3-22.7,10.6-32c0,0,0.1,0,0.1,0c-0.4-1-0.8-2-1.2-3c-0.1-0.1-0.1-0.2-0.2-0.3c0,0.1,0.1,0.2,0.1,0.3
	c-4.4,0.8-8.9,0.3-13-1.3c-3.6-1.3-7.2-2.1-11-1c0-0.1,0-0.1,0-0.2c0,0-0.1,0.1-0.1,0.1c-6.7,1.3-7.3,0.9-8-4.6c0,0,0,0,0,0
	c-5.1-4.4-7.3-10-7.1-16.6c0.1-3.6,0-7.1,0-10.6c-0.2-0.3-0.3-0.6-0.5-1c-4.4-1.5-8.3-4.6-13.2-4.2c-0.1,0.1-0.1,0.1-0.2,0.2
	l-7.8,1.3c-10.1,4-20.5,3.3-30.9,1.4c-1.9-0.3-3.5-0.7-5.2,0.5c0,0,0.1,0.1,0.1,0.1c-3.6,4.1-8.6,5.8-13.2,8.3
	c-3.3,1.8-6.5,3.7-9.8,5.6c-0.1-0.6-0.2-1.2-0.3-1.7c0,0.6,0,1.3-0.1,1.9c-0.7,1.4-2.9,2.2-1.9,4.2s3.2,2,4.8,1.6
	c16-4.3,25.8,7.7,37.5,14.5c1.3,0.9,2,2.5,1.7,4c-0.6,5.6,3.1,11,0.7,16.8c-0.5,1,0,2.3,0.2,3.5l0.3,0c4.7,0.3,9.7-0.6,13,4
	c-0.1,0.1-0.2,0.1-0.2,0.1c0.1,0,0.2,0,0.2,0c-1.4,1.8-3.3,0.6-5,0.9c0.1-0.1,0.2-0.2,0.3-0.2c-0.1,0-0.2,0.1-0.3,0.1l-10.7,0.3
	c-0.1,0.1-0.1,0.1-0.2,0.2c-11.6,4.7-23.3,8.9-35.7,2.6c-0.2,0.1-0.4,0.1-0.6,0.2c-1.5,0.3-2.9,1-3.9,2.1c0.1,0,0.2,0,0.3,0
	c2.5,2.9,4.3,6.3,5.2,10c1.5,5.4,4,6.4,9.3,4.5c4.6-1.6,10.7,0.8,12.8,4.9c0.5,1,0.7,2-0.1,2.7c-3,2.6-3.3,6.3-4.4,9.8
	c-1.9,5.8-6.5,8.8-13.2,8.4c-4.1-0.3-8.2-0.9-12.3-1.8c-11.6-2.1-15.5,0.2-18.4,11.4c-0.1,0-0.1,0.1-0.2,0.1l-0.1,0.8
	c0,0,0,0.1,0,0.1c0,0,0,0,0,0c0,1.6,0,3.2,0,4.8c0,0,0,0,0,0c1,3,2,6,0.9,9.2c-0.4,1.1-1.1,2-2.6,1.8s-1.1-1.4-1.1-2.2
	c0.6-5.7-1.1-11.1-2.3-16.6l0.2,0.1c-5.7-15.3-9.9-30.8-11-47v-0.3c-0.1,0.2-0.1,0.3-0.2,0.5c-1.2-7.4-0.9-15.2-4.8-22.1
	c-0.4-0.7-0.8-1.4-1.2-2.2c-3.5,0.4-5.4,3-7.5,5.4c-2.2,2.4-4.5,4.2-7.9,3.8c0-0.1-0.1-0.1-0.1-0.2c0,0.1-0.1,0.2-0.1,0.3l0.6,1.9
	c0.1-0.1,0.1-0.2,0.2-0.3c2.6,7.1,8.4,11,14.1,15.1c-0.2,0.1-0.3,0.1-0.5,0.2c0.1,0,0.2,0,0.3,0c1.3,0.7,2.8,1.7-0.2,1.8
	c-3.6,0.3-7.3,0.3-10.9,0.1c-4.3-0.4-5.8,1-4.1,5.1c0-0.1,0.1-0.2,0.1-0.2c6.3,17.4,4.7,35,1,52.6c-1.3,6.3-0.7,6.9,5.6,5
	c2.6-0.8,5.3-1.7,7.5,0.5c2.3,2.4,0.9,4.9-0.3,7.4c-9.5,19.3-8.9,39.5-5.1,60c2.1,11.4,5.7,22.6,6.4,34.3c0.1,2,2,3.1,2.2,4.9
	s0.3,4-1.5,4.9c-2.2,1.1-3.2-1-4.1-2.5c-4.8-8.8-7.6-18.4-11.3-27.7c-2-5-4.5-9.2-10.1-10.7l0.2,0.3c-3.5,1.3-7.8,1.4-9.1,6
	c0,0-0.1,0.1-0.1,0.1c0.3,1.6,1.8,2.5,2.6,3.7c1.9,2.7,2.2,5.7-0.5,7.5c-4.7,3.1-4.6,7.4-4.4,12c0,1,0.8,2.3-0.6,3
	c-0.1,0-0.3,0-0.4-0.1c-0.1-0.1-0.2-0.2-0.3-0.4c0,0,0-0.1,0-0.1c0,0.1-0.1,0.1-0.1,0.2l-5.3-7.8c0-0.1,0-0.1,0-0.2l-2.9-2.7
	c-0.2-0.1-0.3-0.3-0.5-0.4l0.3,0.5c-2.7-0.6-4.7,0.2-6.1,2.6c0,0,0,0,0,0c0.1,0,0.1-0.1,0.2-0.1c-0.3,9.8,3.3,13.6,13.5,14.2
	c11.7,0.7,18,5.4,21.8,16.4c2.3,7.3,4,14.7,5.1,22.3v0.7c1.4,3.4,1,6.9,0.6,10.2c-0.4,4.2,0.9,7,4.2,9.1c0,0,0,0,0.1,0
	c8.1,2.7,9.6-5.1,14.2-9.5c1.8,16.8,9.8,30.8,15.4,45.7c0,0,0,0,0,0l3.3,5.7c0,0.1,0,0.2,0,0.2c1.5,2.8,2.5,5.7,2.9,8.9
	c0,0,0,0.1,0,0.1c0,0,0.1-0.1,0.1-0.1c0.8,2.8,1,5.7,2.6,8.3v0c2.7,4.7,5.4,9.5,8,14.2c1.6,2.9,1.4,5.5-1.9,7.1
	c-3.8,1.8-3.9-1.7-5-3.7c-1.7-3.2-3.3-6.5-4.9-9.7c0-0.1,0-0.2,0-0.4l-3-9.4l0.1-0.1l-1.8-0.1c0,0,0,0.1,0,0.1
	c1,14.8,4.5,29.1,7.3,43.6c1.9,10,5,19.8,5.4,30.2c-0.1-0.1-0.2-0.3-0.3-0.4c0.1,0.2,0.2,0.4,0.2,0.6l1.1,4c0,0,0,0,0-0.1
	c5.3,14.1,10.6,28.1,15.9,42.2c1,2.6,2.1,5.2,3.2,7.7c0,0,0,0,0,0c4.8,7.3,11.6,12.9,19.7,16.2c7.1,3,10.7,9.2,13.2,16.1
	c2.3,6.2,4.5,12.5,6.7,18.7c1.1,3.3,2,6.5,5,8.9c2,1.6,2.2,4.3,1.4,6.9c-3.1,0.7-4.5-1.1-6.2-3.4c-9.3-12.5-18.2-25.3-28.4-37
	c-0.3-0.3-0.9-0.2-1.8-0.4c2.5,11.9,0.6,23.5-0.7,35.1c0,0.1-0.1,0.2-0.1,0.3c0.1,1.4,0.1,2.8-0.2,4.2c-0.1,0.5-0.2,1.1-0.5,1.6
	c0,4.3,0.1,8.6,0.1,12.8c0,1.3,0.7,3-0.5,3.7c-1.7,1-2.4-1-3.6-1.8c0-0.1,0-0.1,0-0.2c0,0.1,0,0.1-0.1,0.2
	c-4.1-3.2-3.9-7.8-3.6-12.3c0.2-3.5,0.6-6.9-0.8-10.6c-5.1,3.3-8.8,8.4-10.4,14.3c-1.9,7.1-8,10.5-12.1,15.6c-1.2,1.5-2.6,0.3-4-0.4
	c-6.5-3.5-10-3.5-13.9,2.1c-5.5,8-14.2,11.9-20.7,18.5c-2,2.3-5.3,2.6-7.7,0.8c-2-1.3-3.2-3-2.7-5.4c0.6-3.2,3.1-4,5.9-4.3
	c0,0.1,0.1,0.1,0.1,0.2c0,0,0-0.1,0-0.1c1.8-0.9,3.2-2.3,4.2-4.1c0,0-0.1,0-0.1,0c-1.2-5.8-5.3-1.9-8.1-2.5c0,0,0.1-0.1,0.1-0.1
	c0,0,0,0,0,0v0c3.4-4.1,8.4-5.4,13-7.1c6.6-2.6,13-5.1,18.6-9.4c4-5.2,9.4-8.8,14.3-13c8.1-6.7,15.1-13.9,16.7-25.4
	c1.4-9.9,6.4-19.2,5.3-29.6c0,0,0.1,0,0.1,0c-6.1-12.1-10.9-24.7-14.2-37.8c0,0-0.1,0.1-0.1,0.1c-4.5-5-6.3-11.3-8.4-17.3
	c0-0.1-8.5-27.7-8.7-32.7s-20.4-38.4-22.5-43.5c-2-5.2-0.9-7.6-0.9-7.6c5.5-2.4-0.6-35.4-2.5-40.9c-0.5-1.1-1.4-1.9-2.5-2.3
	c-5.1-2.3-10.2-4.2-15.9-2.2c-3.2,1.2-3.7-0.6-3.8-3.2c-0.2-3.6-0.5-7.3-0.7-10.9c-0.3-4.4-2.6-6.4-6.9-5.7
	c-15.3,2.7-30.6,5.4-40.4,19.7c-3.9,5.7-9.6,4.7-15.4,4s-8-3.3-8.7-9.4c-1.3-11.6-6.7-21.8-14.6-30.6c-5.3-0.8-2.4,2.3-2.1,4.3
	c1.2,3.9-3.8,11.5-7.7,11.8c-0.7,0-1.3-0.3-1.7-0.8c-3.9-4.9-9.3-7.2-15.2-8.3c-1.8-0.3-3.4-1.3-3.1-3.3c0.4-3.4,0.7-6.9,4.2-9.1
	c7.1-4.3,14.1-8.8,21.2-13.2c0.4-0.3,0.9-0.5,1.3-0.8c8.4-4.8,9.8-4,10,5.5c0,2,0.1,4,0,6c-0.3,3.5,0.4,6.3,4.6,6.9
	c3.9,0.5,7.1,0.4,9-4c4.2-9.6,6.2-19.7,7.2-29.9c0.9-8.8-2.9-13.8-11.9-17.3c-5.9-2.3-11.8-4.7-15.3-10.6c-0.3-0.6-0.5-1.2-0.7-1.7
	c-6.1-1.2-8.7,3.3-11.6,7.1c0,0.1,0,0.1,0,0.2c0,0.3,0,0.5-0.1,0.8c0,0,0,0,0,0c-0.8,6-4.2,10.9-8,15.4c-2.1,2.1-3.5,4.7-4.2,7.6
	c-0.1,0-0.1,0-0.2,0.1c0.1,0,0.1,0,0.2,0c3.3,2.1,3.2,4.3-0.1,6.3c-4.4,2.7-8.8,5.3-13.2,7.7c-2.1,1.5-5.1,0.9-6.5-1.2
	c0,0,0-0.1-0.1-0.1c-2-2.6-0.2-4.4,1.7-5.8c3.9-2.8,3.2-5.7,1.1-8.9l0,0c0,0,0,0,0,0c-7.7-0.6-13.2,3.3-17.9,8.8
	c-2.6,3-5.2,6-7.9,8.9c-1.1,1.2-2.2,2.9-4.1,2c-1.4-0.7-1.6-2.4-1.6-3.9c-0.1-2.6-0.6-4.9-3.2-6.2c-0.4-0.1-0.9-0.1-1.3-0.1
	c-3.1,0-4.6,1.4-2.9,5.3c0.4,1,1.4,2.8,0.1,3.6c-1.7,0.8-3.7,0.6-5.1-0.5c-4.3-2.7-3.9-7-3.8-11.1c0,0,0,0,0.1,0
	c-0.9-1.9-2-3.8-2.8-5.7c-2.5-6.2-2.1-7,3.9-10.2c5.1-2.7,5.9-5.4,2.9-10.4s-7.7-8.4-11.1-12.9l-12-4.9c0,0-0.1,0-0.1-0.1
	c0,0.1,0.1,0.1,0.1,0.2c-5.2-0.1-10.6,1.2-15.3-2.2c-1-0.7-2.7-1.3-2-2.9c0.5-1.3,2-0.7,3.1-0.7c2.7,0,5.5,0,8.3,0.1c0,0,0,0,0,0
	c0,0,0-0.1,0-0.1c1.8-1.8,5.8-2.2,5.7-4.9c-0.1-3.3-4-3.3-6.5-4.5c-3.3-1.6-6.1-4-8.2-7c-1.6-2.3-3.1-4.7-4.5-7.1
	c-5.7-9.3-5.6-9.3,3.3-15.7c7.7-5.5,10.9-13.1,9.3-22.5c-0.4-2.4-0.8-4.9-1.2-7.3c0,0,0.1-0.1,0.1-0.1c0-1.6,0-3.3,0-4.9
	c0,0-0.1-0.1-0.1-0.1c-1.5-4.9-5-9.2-5-14.6c0.3-4.1,2.9-7.4,4.2-11.1c1.7-5.2,1.1-5.9-4.1-5.1c-2.6,0.2-5.1,0.9-7.5,1.7
	c0.9,1,2.4,1.4,3.3,2.4c2,2.2,4.1,4.3,2.1,7.6c-3.3,2.9-5.2,7.8-10.4,8.1c-0.2,0.1-0.3,0.2-0.5,0.3c-4.6,5.4-4.6,5.5,0.6,10
	c2.1,1.9,3.2,4.3,1.9,6.7c-7.4,13-14.4,26.5-29.1,33c-6.1,2.7-9,0.8-9.7-6c-0.3-3-0.3-6-1.4-8.8c-0.5-1.4-1-2.9,0.5-4
	c1.5-1.1,3.2-0.8,4.6,0.3s2.4,2.3,3.7,3.3c2.8,2.3,5.5,1.9,8.1-0.4c1.3-1.1,2.1-2.6,0.4-3.7c-3.3-2.2-2.8-5.4-2.8-8.5
	c0.2-9.2,2-18.2,5.4-26.7c1-2.7,3-5.6-0.1-8.2c-3.1-2.6-5.6-0.3-8.2,1c-0.5,0.2-1,0.4-1.5,0.6c-3.9,2.5-5.8,7.2-9.4,10.1
	c-1.4,2.8-2.2,5.9-2.2,9.1c0.2,3-1.3,5.8-3.8,7.5c-4.3-17.4-12.3-33.9-5.4-52.1c0-0.2,0.1-0.4,0.1-0.5c3.4-6.2,8-11.6,10.5-18.4
	c1.4-3.7,5.4-3.8,9.1-3.4c6.9,0.8,13.8,1.5,20.8,1.9c6,0.3,7.8-1.6,7.7-7.5c0-1.3-0.1-2.7-0.2-4c-0.2-7.2,1.2-8.3,8.2-6
	c7.6,2.5,13.1,8.4,19.5,12.9c1.5,1,2.5,3.8,4.9,1.7c2.4-2.1,1.9-4.7,0.2-6.7c-3.5-4.2-7.4-8.1-11.1-12.2c-4-4.3-3.7-5.9,1.8-8.2
	c8-3.2,15.8-7.1,23.1-11.7c9.3-5.8,19-7.4,29.5-3.2c5.8,2.3,7.2,1.1,6.8-5c-0.1-2.3,0.1-4.3,1.7-6c1.3-1.3,1.9-3.2,1.5-5.1
	c-0.2-0.1-0.3-0.3-0.5-0.4c-3.2-0.9-6.4-0.6-9.7-0.7c-1.5,0-3.4,0.3-4.4-0.4c-5.8-4-7.9-0.9-9.2,4.3c-0.1,0-0.2,0.1-0.3,0.1
	c0.1,0,0.2,0,0.3,0c-1.4,1.7-2.7,4.8-5.2,3.5c-2.8-1.5-3-5.1-2.6-8c0.5-3.4,0-6.1-2.2-8.6c-0.1,0-0.2,0.1-0.3,0.1
	c-4.3,3.6-8.1,7.6-11.5,12.1c-1.9,2.5-4,5.2-7.7,4c-3.7-1.2-3.2-4.5-3.6-7.4c-0.1-1.1-0.1-2.3-0.2-3.5c0,0,0,0,0,0
	c-1.7,1.2-3.4,2.3-5.1,3.5c-1.6,1.1-2.9,1.9-4.4,0.5c-0.1,0-0.2-0.1-0.3-0.2c-1.2-1-1.5-2.7-0.8-4.1c3.9-8.7,1.5-16.8-2.2-24.9
	c-0.1-0.1-0.2-0.2-0.2-0.3c0.1,0.1,0.2,0.2,0.3,0.2v-4.9c4.1-2.2,5.1-5.3,2.6-9.7c-1.2-2.4-0.5-4.6,2.5-5.3
	c10.2,1.3,17.9-4.5,15.8-16.4c-0.6-3.4-2.1-5.8-6.2-5.8c-5.2,0-9.8-2.8-15-3.3c-3.5-0.3-4.2-4.2-1.5-7.4c3.4-4,8-5.9,12.9-6.9
	c8.1-1.6,16.5-1.6,24.4-4.4c2.2-0.8,3.4,0.6,4.1,2.6s0.6,3.6-1.7,4.5c-1.4,0.5-2.9,0.8-4,1.9c0,0-0.1,0.1-0.1,0.1c0,0,0.1,0,0.1,0
	l0.1,3.1c3.9,2.6,8,2.3,12.3,1.2c7.2-1.9,14.4-3.7,21.6-5.6c2.6-0.6,5.2-0.8,7.9-0.6c0.1,0,0.1,0.1,0.2,0.1c2.9,0,5.6-0.2,8-2.1
	c-6.3-6.2-13-11.7-20.2-16.8c-9.2-6.3-19-9.9-30.4-9c-8.2,0.6-12.2-4.5-10.7-12.7c0.3-1.4,0.6-2.7,2-3.2c1.7-0.6,2.9,0.2,3.9,1.4
	c0.5,0.6,1,1.3,1.6,1.9c3.9,3.9,6.7,3.4,7.4-1.9c0.6-4.3,3.9-6.9,5.3-10.6c0.4-1,1.2-1.1,2.1-0.9c1.4,0.2,2.5,1.3,2.6,2.8
	c-0.4,9.7,4.3,16.5,11.9,21.7c9.2,6.2,19.5,8.2,30.4,7.4c6.1-0.5,12.2-1.7,18.1-3.4c2.6-0.7,3.8-1.7,3.1-4.9
	c-1.7-7.3,1.9-12.4,7.6-16.6c4.1-3,9-5.1,11.1-10.3c0.1,0.1,0.1,0.1,0.2,0.1c0-0.1,0-0.2-0.1-0.2c0.9-8.6,5-13.4,13.6-15.5
	c3-0.8,6.1-1,9.2-1.4c0,0,0,0,0,0c1.8-1.2,1.9-3.1,2.1-4.9c2.9-4.3,3.7-4.6,8.4-2.3c6.7,3.3,8.8,2.5,10.9-4.4
	c0.1-0.3,0.3-0.6,0.5-0.8c0-0.1,0.1-0.1,0.1-0.1c-0.8-1.7-1.4-3.5-1.7-5.4c-0.3-0.1-0.7-0.2-1-0.4c-3.2-3.7-3.1-5,0.4-8.6
	c1-1,2.6-1.9,2.1-3.6c-0.5-1.5-2.2-1.1-3.4-1.4c-1.6-0.3-3.1-0.8-3.7-2.3c-4.3,3.4-6.3,7.7-7.3,13.4c-0.8,4.9-4.3,8.9-8.4,11.8
	c-3.3,1.8-7.1,2.5-10.8,2.1c-6.3,1.4-12.4,4-18.9,4.1c-3.1,0-6.3-0.2-9-2.2c-2.4-0.9-4.7-2.2-8.2-2.2c6.2-7.5,13.8-13.7,22.4-18.4
	c11-6.3,23.2-10.2,35.9-11.5c1.8-0.2,3.6-0.7,5.6-1c0,0,0.1-0.1,0.1-0.1c0.1-0.1,0.2-0.4,0.3-0.4c8.9-0.9,17.2-6.7,26.7-2.3
	c4.6,2.1,9.6,1.7,14.4-0.6c5.1-2.4,6.4-1.7,7.8,3.4c0.1,0.3,0.1,0.6,0.2,1c0-0.3,0-0.6,0-0.9c1.1,2.1,0.3,6,4.5,5.2
	c0.1,0,0.1-0.1,0.2-0.1c16.4-3.8,31.5-10.2,45.1-20.3c8-6,17.8-4.2,27.1-3.4c2.8,0.2,5.1,0.3,7.4-1.5c3.6-2.8,7.9-2.4,12-1.5
	c2.6,0.6,5.1,1.5,7.5,2.6c7.7,3.9,15.4,6.3,24.3,5.1c6.2-0.8,8.4,1.5,10.3,7.7c2.9,9.3,12.1,12.6,20.6,7.4c2.4-1.5,5.1-2.4,6.7-5
	c0.1,0,0.2-0.1,0.3-0.1c0.8-1.9,0.8-4.2-0.1-6.2c-2.9-5.7-4.9-11.4,0.5-16.8c4.2-4.3,18.8-4.3,23,0c1,0.9,1.4,2.3,1,3.6
	c-0.5,1.6-2.1,2.7-3.8,2.6c-2.9,0.1-6.1-0.5-7.9,2.8c0,0.1,0,0.1-0.1,0.2c0.2,2.3-0.7,4.9,2,6.4c4,1,7.8,2.7,12.1,2.3
	c3.6-0.3,5.6-1.5,3.8-5.3c-1.5-3.3,0.1-3.8,2.8-3.8c1.5,0,3,0,4.5,0c6.9-0.3,13.9-0.3,17.9-7.7c0.7-1.4,2.4-2.3,3.8-3.2
	c6.5-4.7,7.8-4.3,12,2.3c2.9,4.4,6.1,8.7,9.5,12.8c1.6,1.9,4,3.8,6.5,2.1s0.9-4.3-0.1-6.2c-2.3-4.5-3-8.6,1.1-12.7
	c2.7-2.7,5-2.9,7.8-0.6c1.9,1.6,3.6,3.5,6.3,3.6c0.1,0,0.2,0,0.3,0.1c-0.1,0-0.1,0-0.2-0.1c4.8-0.1,9.6-0.1,14.5-0.3
	s6.1-1.9,5.2-6.7c-0.5-2.8-1.4-5.5-1.7-8.3c-0.8-6.6,4.4-10.5,10.7-8.5c0.9,0.3,1.8,0.8,2.7,1.3c9,4.8,9,4.8,2.1,12.1
	c-4.2,4.4-3.3,7.5,2.6,10.1c2.1-0.2,3.5-1.5,5-2.8c1.4-1.4,3-2.6,4.7-3.6c1.6-1,3.8-0.5,4.8,1.1c0.1,0.2,0.2,0.3,0.3,0.5
	c1.3,2.6-1.2,2.3-2.5,3c-0.7,0.3-1,1.2-1.5,1.8c0,0.1,0,0.2-0.1,0.3c0.1-0.1,0.1-0.1,0.2-0.2c-0.1,0.8,0,1.6,0.1,2.4
	c1.5,7.5,3,8.5,9.7,5.6c0,0,0,0,0-0.1c2.1-2.6,4.4-3.3,7.8-2.2c10.1,3,20.6,4.4,31,5.4c0,0,0.1,0.1,0.1,0.1c5-0.6,3.4-5.4,5-8.1
	c0-0.1,0-0.1,0-0.2c0.6-1.3,1.5-2.7,2.8-2.6c8.1,0.7,16-5.3,24.4,0.6c5.2,3.7,6.8,6.2,2.4,10.8c-2.2,2.3-2.6,3.8-0.1,5.9
	c0.9,0.7,1.5,1.8,1.7,2.9c0.2,5,2.2,5,6.1,3c9.2-4.9,16.1-2.8,22,6.3c1.1,3.2-0.4,4.9-3.4,5.7c-8.6,0.3-17.2-1.5-25.8-1.2
	c-2.5,0.1-5-0.1-6.8,2.2c-0.4,0.4-0.8,0.7-1.2,0.9c0,2.3,0,4.7,0.1,7c0.1,0.2,0.2,0.4,0.3,0.6c3.1,0.6,4.3,3.3,6.1,5.3
	c0.3-0.1,0.7-0.2,1-0.3c9.6-1.3,18.2-5.3,26.1-10.7c5.5-0.9,7.5-5.7,10.7-9.2c4.1-0.9,6.7-0.1,6.2,4.9c0,1.2,0.7,2.2,1.6,2.8
	c2.6-6.3,7.9-9.7,14-11.8c3.3-1.2,5.9-2.9,6.7-6.6c0.6-3,2.3-5.3,5.7-5.3s6.8,0.6,7.8,4.7c0,0.1,0,0.3,0,0.4
	c1.4,4.5,5.3,8.4,2.7,13.6c0,0.1,0,0.1,0.1,0.2c0.9,1,1.7,2,2.4,3.2c1.2,2.3,0.7,4.4-2.1,3.8c-8.8-1.8-16.5,1.7-24.6,4
	c-1.7,0.5-3.5,0.8-5.3,0.9c-6.6,0.4-6.5,0.4-6.4,7.1c-0.1,2.5-0.1,4.9-0.1,7.5c0,0.1,0.1,0.2,0.1,0.3c0.7,1.3,1.3,2.6,2,3.9
	c-4,4.8-9.3,3.6-14.3,3.1c-3.3-0.3-6.6-0.8-9.8,0.4c-1.7,0.6-3.8,1-3.8,3.3s1.3,3.7,3.1,4.8c2.3,1.4,5,1.6,7.5,2.6
	c0.4,0.1,0.7,0.3,1.1,0.4c1.2-1,1.3-2.6,1.8-4c0.7-1.8,1.1-3.8,3.3-4.2c0.1-0.2,0.3-0.5,0.5-0.8c3.8-1.4,6.8,0.4,9.7,2.6
	c6.8,6,13.8,11.8,22.9,13.9c0,0-0.1-0.1-0.1-0.1c0.4-3.4-0.4-6.9,1.2-11.1c2.8,7.2,7.2,12.1,12,16.9c5.2,5.3,4.9,8.4-0.9,13.2
	c0,0.1-0.1,0.2-0.1,0.3l-1,4.9c5.1-0.3,7.9-3.5,9.7-7.9c2.8-6.8,2.8-6.8,10.2-5.1c6.5,1.4,12.7,3.6,18,7.9l0,0h0
	c8.3,0.8,16.7,1.4,24.9,3.1c0,0,0,0.1,0.1,0.1c0,0,0-0.1,0-0.1c6.9-0.8,13.8-0.5,20.6,1.1c5.8,1.4,12.1,2.7,18.4,2.9
	c5.4,0.1,8.1,2.8,8.4,8.3c0.1,1.3,0.4,2.6,0.6,3.9c0.2,1.5,0.6,3.2-1.4,3.6s-3.2-0.3-3.7-2.4c-0.4-1.9-0.5-4.2-3.7-3.1
	c-2.6,1-3.7,2.8-3.1,5.4c0.5,3.3,2.3,6.4,4.9,8.5c6.1,4.5,7.6,10.5,6.4,17.6c-0.3,2.3-0.4,4.7-0.4,7c-1.9,0.6-2.8-1-3.9-2
	c-3.8-7.3-10.3-13.1-12.6-21.3c-0.3-1.1-0.9-2.2-1.1-3.3c-1.2-6.1-2.5-6.8-8.4-4.6c-1.9,0.6-3.6,1.6-5,3c-0.1,0.1-0.2,0.2-0.3,0.3
	c0,2.9,1.4,5.6,2.1,8.4c0.1,0.1,0.3,0.3,0.4,0.4c1.5,1,4.7,1.1,3.5,3.8c-0.9,2.1-3.4,2.4-5.7,1.8c-2.7-0.7-6.3-3.1-7.9-0.9
	c-1.8,2.4,1.6,5.2,2.8,7.8c4.3,9,7.9,17.9,5.4,28.3c-0.9,3.5,3.1,5.6,7.3,4c1.5-0.6,3-3,4.7-0.6c1.5,1.9,1.4,4.6-0.2,6.5
	c-4.2,5.8-3.8,7.2,2.1,11.3c4.1,2.9,9.4,3.5,13.1,7c0.1,0.2,0.1,0.4,0.2,0.6c2.2,2.6,2.4,5.7,1.9,9.1c-0.6,4.3-1.1,8.6,1.6,12.5
	c0.3,0,0.7-0.1,1-0.2c2.3-1,4.2-4.7,7.3-1.7c2.8,2.8,1.9,6.1,0.5,9.2c-0.3,0.6-0.6,1.2-0.9,1.8c0,0,0,0,0,0c0,0,0,0,0,0
	c1.7,4.7,3.4,9.4,6.4,13.5c3.7,5.1,8.7,7.7,15,7.1c2.4-0.2,4.5-1.5,5.9-3.4c0.8-1.1,1.8-2.7,3.6-1.6c1.8,1.1,0.7,2.6,0.5,4
	c-0.3,3.5-2.3,6.7-5.3,8.6c-2.8,1.9-3.8,4.4-3.7,7.6c0.2,8.4-1.6,16.9,1.7,25.1c0.9,2.5,2.1,4.9,3.4,7.2c1.3,2.1,1.7,4.4-0.5,6.4
	s-4.3,1.1-6.3-0.4c-0.8-0.6-1.6-1.3-2.3-1.9c-1.9-1.6-3.1-1-3.2,1.4c-0.1,3.6,0,7.3,0,11s-0.1,7.2-1.6,10.7s-0.6,7.6,2.4,10.1
	c8.1,6.3,8.6,14.4,5.9,22.9s-2.7,16.9-2,25.6c0.8,10.5-0.4,20.6-7.7,29c-2.2,2.5-2.9,5.9-4.1,9c0,0,0,0.1-0.1,0.1
	c1,3.4-2.7,6.7,0,10.1c0,0,0.1,0,0.1,0c0.5-0.1,1-0.2,1.5-0.3c3.2-0.7,6.9-2.6,9.2,0.8c2,3.1-0.8,5.9-2.4,8.6
	c-1.6,2.5-3.7,4.7-6.2,6.4c-6.2,4.4-7.5,4.3-13-1.2c-1.1-1-2.5-1.6-4-1.5c-2.2-0.8-4.3-2.6-6.4,0c0.5,1,0.3,2.4,1,3.4
	c1.6,0.3,2.4-2.3,4.3-1.4c4.4,5.2,4,7.4-1.7,9.2c0,0,0,0,0,0.1c-2.4,3.6-4.9,6.1-9.7,3.1c-2.5-1.5-5.2,0.1-7.5,1.5
	c-4.9,3-7.7,7.8-9.8,12.8c-1.3,3.3,1.3,6.9,5.6,8.3c2,4.1,2.2,8.1-0.7,11.8c-0.9,1.4-1.2,3.1-0.7,4.7c0,0.1,0,0.1,0,0.2
	c2.5-1.9,4.5-4.1,4.6-7.6c0.1-1,0.9-1.8,1.8-2c1.6-0.3,3.2-0.7,4.8-0.9c2.1-0.3,4.3-1,5.6,1.6c1.1,2.1,0.5,4.7-1.4,6.2
	c-4.3,3.6-8.4,7.5-14.7,7.2c-1.4,0.1-2.8,0.3-4.3,0.7l0-0.1c-2.7,2.2-6.5,2.2-9.2,0.3c-3.4-2.1-7.1-0.8-10.7-1c-2-0.1-4-0.1-5.9-0.1
	c0,0,0,0.1-0.1,0.1l-4,1.9c-0.5,1.4-1.1,2.7-1.6,4.1c-2.1,5.4-5.4,7.3-11.2,6.5c-3.4-0.5-6.8-1.1-10.3-1.6c-7.8-1.1-13.6,1.8-17,9
	c-3.8,1.5-7.1-0.3-10.6-1.2c-1.6-1.5-3.7-2.5-5.5-4c1.7,2.4,2.8,5.2,4.6,7.6c1.9,2.4,6.6,3,4.9,7.6c-4.5,2.2-9.1,4.4-13.7,6.7
	c-4.2,2.1-7.9,1-11.4-1.5c-3.5-4-4.3-0.2-5.8,1.9c0.3,5.4-3.3,9.1-6.1,13.1c-2.9-0.5-2.1-2.9-2.2-4.7c-0.2-2.8-0.3-5.5-2-8
	c1,3.1,1.4,6-0.4,9.2c-2.7,4.5-1.8,5.7,3.6,6.3c4.2,2.8,3.8,5.9,0.4,9c-3.2,2.9-6.6,5.6-9.9,8.4c-6.3,5.3-11.3,11.3-11.6,20.1
	c-0.1,2.5-1.6,3.9-3.9,3.5s-4.7,2.8-6.5-1.6c-3.1-7.4-9.3-12.1-16.5-15.3c-5.1-2.3-7.3-1.1-8.7,4.4c-3.7,14.2-7.1,28.4-8.5,43
	c-1,11.9-3.6,23.7-7.8,34.9c-5.6,14.8-6.6,30.2-7.4,46c-1.1,20.5,9.1,34,22.9,46.3c9.9,8.8,21.7,14.3,34.5,17.4
	c23.6,5.6,44.3,17,63.8,31c30.6,22.1,63.7,39.2,100.3,49.1c13.1,3.5,26.5,4.5,39.9,5.7c15.5,1.4,30.7,4.3,45,10.4
	c11.9,5.1,23.9,5.2,36.2,3.3c2-0.3,3.9-0.6,5.9-0.7c6.4-0.3,12.4-0.8,16-7.6c1.4-3.3,5.4-4.5,8.4-6.5c2.4,4.9,0.3,10.2,1.2,15.2
	l-0.3,11c0,0-0.1,0.1-0.1,0.1C1079.7,980.1,1079.8,980,1079.9,980z M67.3,414c-0.9,0.5-2.2,0.8-2.4,2.1c1.5,0.3,2.1-0.9,3-1.6
	L67.3,414z M490,336C490,336,489.9,336,490,336C489.9,336.1,489.9,336.1,490,336C490,336.1,490,336,490,336z M797.1,517.1
	c0,0,0,0.1,0,0.1C797.1,517.2,797.1,517.2,797.1,517.1C797.1,517.1,797.1,517.1,797.1,517.1z M867.9,454c-0.1,0-0.2,0.1-0.3,0.1
	c0.1,0,0.2,0,0.3,0C867.9,454.1,867.9,454.1,867.9,454z M880.4,349c-0.1,0-0.3,0-0.4,0c0,0-0.1,0-0.1,0c0,0,0.1,0,0.1,0.1
	c0.1,0.3,0.2,0.5,0.3,0.8C880.3,349.6,880.4,349.3,880.4,349z M779.2,430c-0.3-0.2-0.6-0.4-0.8-0.6c0.2,0.2,0.5,0.5,0.7,0.7
	C779.1,430.1,779.2,430,779.2,430z M786.1,498c0,0-0.1-0.1-0.1-0.1c0,0,0,0-0.1,0c0,0-0.1,0.1-0.1,0.1c0.1,0,0.1,0,0.2,0L786.1,498z
	 M861.7,600h0.2c-0.1,0-0.1-0.1-0.2-0.1C861.7,599.9,861.7,600,861.7,600z M842.9,196.9c0,0.1,0,0.1-0.1,0.2
	C842.8,197.1,842.9,197,842.9,196.9C842.9,197,842.9,197,842.9,196.9z M273.2,433.9c0-0.1,0-0.2-0.1-0.2c0,0,0,0,0,0
	C273.1,433.8,273.1,433.8,273.2,433.9C273.1,433.9,273.1,434,273.2,433.9C273.1,434,273.1,434,273.2,433.9z M505.1,326.2
	C505.1,326.2,505.1,326.2,505.1,326.2C505.1,326.2,505.1,326.2,505.1,326.2C505.1,326.2,505.1,326.2,505.1,326.2z M217.2,500.1
	c0.1,0.2,0.2,0.3,0.4,0.5c0-0.2-0.1-0.3-0.1-0.5H217.2z M782.7,581.9c0.1,0.1,0.1,0.1,0.2,0.2c0,0,0-0.1,0-0.1
	C782.8,581.9,782.8,581.9,782.7,581.9z M789.8,588.9C789.8,588.9,789.7,588.8,789.8,588.9c-0.1-0.1-0.2-0.1-0.2-0.1
	C789.7,588.9,789.7,588.9,789.8,588.9z M823.3,601.1c0.2,0,0.3-0.1,0.5-0.1c-0.5-4.5-2.2-8.6-3.9-12.6c0,0,0,0-0.1,0.1
	c-5.9,1.9-11.3,5.8-18,4.5c-0.7-0.3-1.4-0.6-2-1c-1.4,0.2-2.3,1-2.7,2.4c0.2,0.1,0.4,0.2,0.6,0.3c3.4,2.5,5.4,6.1,7.7,9.5
	c2.1,3.2,4.9,5.7,7.6,8.4c0.2,0.2,0.3,0.3,0.4,0.5C814.3,607.1,818.3,603.8,823.3,601.1z M188.9,510.6c1.9-1.3,3.7-2.8,5.9-3.5
	c1.6-0.5,3.4-1.4,5.1-0.4c0.1-0.5,0.2-1.1,0.3-1.5c0.5-3.9,1.5-7.6,4.7-10.2l0.2-0.9c-2.3-4.9-6.4-3.1-9.9-2.5
	c-3.5,0.6-6.9,1.3-9.1-2.6c0-1.3,0-2.6,0-4c0-6.9,1.7-8.6,8.7-10.2c3.5-0.8,6.9-0.6,10.3-0.7c6,8.7,12,17.3,18,26c0,0,0,0,0,0
	l9.2,4.7l0,0c3.8-3.6,3.7-4,0.4-9.3c-2.6-4.2-5-8.6-8.2-12.5c-4.8-5.7-11.2-8.5-17.9-11c-1.2-0.9-2-2.2-2.2-3.6
	c0-0.1,0.1-0.2,0.1-0.4c-3.8,0.2-7.7-1.6-11.3,1.5c-0.8,0.7-2.9-0.5-3.6-2s0.6-2.1,1.5-2.8c2.9-2.2,6.2-2.8,9.8-2.8
	c2.8,0,6,1.3,8.1-1.9c-1.7,0.3-2.9-0.6-4.1-1.4c-0.5,0.2-1,0.5-1.5,0.6c-4.8,1.6-9.8,1.7-14.6,2.7c-5.7,1.1-11,3.7-15.5,7.4
	c-3.7,3.2-5.4,2.6-7-2c-0.1-0.3-0.2-0.7-0.3-1c-0.1-6.2-3.4-9.7-9.3-10.9c0-0.1,0-0.2-0.1-0.3c-3.3,0.4-1.3-2.5-1.4-3.6
	c-0.1-2.9,1.5-4.7,4.6-4.4c1.6,0.1,3.3,0.4,4.9,0.7c0.5-0.1,1.1-0.2,1.6-0.4c6.1-2.2,6.1-2.2,3.5-7.9c-1.4-3-2.4-6.2-3.1-9.5
	c-0.6-3-2.3-3.8-4.6-1.9c-6.8,5.4-15.3,7.1-22.6,11.3c1.2,1.5,0.9,3.6,1,5.4l2.7,30.5c2.1-1.7,4.5-3.2,7.1-4.1c0.1,0,0.2,0,0.3-0.1
	c1.3-2.4,1.8-5.1,1.5-7.7c-0.4-3.6,2-3.4,4.4-3.5c2.9-0.1,3.7,1.2,3.6,3.9c-0.1,1.8-0.9,3.6-2.2,4.8c-1.2,1.2-2.5,2.2-3,3.8
	c0.2,0.2,0.3,0.3,0.5,0.5c0.5,1,0.9,2.1,1.2,3.2c2.2,7,4,8.4,11.1,7.2c4.4-0.7,7.3,1.1,9.9,4.2c2.4,3.4-0.2,5-3.1,7.1
	c2.2,0.3,3.6-0.4,5.2-0.5c3.5-0.3,6.3,0.7,7.2,4.5c0.8,3.4-1.3,5.9-5.5,6.8c-0.8,0.2-1.6,0.3-2.5,0.3c-0.1,0-0.2,0-0.3,0
	c0.4,0.6,0.6,1.4,0.9,2.1C181.5,512.6,184.5,513.5,188.9,510.6z M880.9,969.9C880.9,969.9,880.9,970,880.9,969.9
	C881,970,881,969.9,880.9,969.9C880.9,969.9,880.9,969.9,880.9,969.9z M337,898.6C337,898.6,337,898.5,337,898.6
	C337,898.5,337,898.5,337,898.6L337,898.6z M120.4,277.5c0.2-0.1,0.5-0.2,0.7-0.4V277c-1.3-7.5-1.8-15.2-1.5-22.8
	c0-1.8-0.5-3.7-1.5-5.2c-5.7-1.6-8.6,0.2-9,6c-0.9,11,2.2,20.3,11.7,26.8C120,280.5,119.8,278.9,120.4,277.5z M328.7,900
	c-10.7,6-21.8,11.4-33.1,16.2c-24.1,10.5-46.9,22.9-65.5,42c-3.1,3-7,5.1-11.2,6c-10.7,2.6-21.3,5.4-31.3,10
	c-22.6,10.3-46.3,16.6-70.8,19.7c-14.2,1.8-28.4,3.1-42.5,5.1c-10.8,1.6-21.3,2.1-32.2,0.4c-14.2-2.3-28.8-0.4-41.9,5.5v37
	c0,0-0.1,0-0.1,0l0.1,13.8c7.5,1.7,15.2,1.4,22.8,1.6c18.8,0.5,37.6,0.9,55.7-5.6c11.2-4,22.7-6.5,34.2-9
	c30.5-6.5,61.5-10.6,90.9-21.7c4.1-1.6,7.5-0.5,9.6,3.6c0.7,1.9,2.5,3.2,4.5,3.3c9.8,0.8,19.5,2,29.3,2.6c6.9,0.5,10.6-2.5,11.9-8.6
	c0,0,0-0.1,0-0.1c0,0.1,0,0.1,0,0.2c1.4-3,0.6-5.9-0.3-9c0,0,0,0,0.1,0c0,0,0,0-0.1,0c0,0,0-0.1,0-0.1c-0.2,0-0.4,0-0.6,0
	c-4.6-1.1-5.2-6.2-8.1-8.9c-1.9-3.8-5.7-4.8-9.1-6.4c-10.4-4.7-12-10.5-6-19.9c4.3-6.8,8.5-13.8,12.7-20.7c0,0-0.1,0-0.1,0
	c0.1,0,0.1-0.1,0.2-0.1c2.9-2.7,5.7-5.6,8.7-8.2c12.9-11.2,28.2-18.1,43.5-25c13.8-6.2,26.3-14.8,37.1-25.3
	C334,897,331.3,898.5,328.7,900z M337.2,898.3C337.2,898.3,337.1,898.3,337.2,898.3C337.1,898.4,337.2,898.4,337.2,898.3
	C337.2,898.4,337.2,898.4,337.2,898.3L337.2,898.3z M467.4,888.7L467.4,888.7c-1.5-2.4-3.1-4.5-4.4-7c-2.4-4.4-5.1-8-9.9-9.8
	c0.6,7.2,5.9,11.7,9.7,17.1c3.6,6,8.1,10.8,15.4,13.6C476.4,895.8,472.2,892,467.4,888.7z" />
</svg>